<?xml version="1.0" encoding="UTF-8" standalone="no"?><svg xmlns="http://www.w3.org/2000/svg" xmlns:xlink="http://www.w3.org/1999/xlink" contentScriptType="application/ecmascript" contentStyleType="text/css" height="327px" preserveAspectRatio="none" style="width:561px;height:327px;" version="1.1" viewBox="0 0 561 327" width="561px" zoomAndPan="magnify"><defs><filter height="300%" id="f327w0m27r8g5" width="300%" x="-1" y="-1"><feGaussianBlur result="blurOut" stdDeviation="2.0"/><feColorMatrix in="blurOut" result="blurOut2" type="matrix" values="0 0 0 0 0 0 0 0 0 0 0 0 0 0 0 0 0 0 .4 0"/><feOffset dx="4.0" dy="4.0" in="blurOut2" result="blurOut3"/><feBlend in="SourceGraphic" in2="blurOut3" mode="normal"/></filter></defs><g><text fill="#D7A72D" font-family="sans-serif" font-size="10" lengthAdjust="spacingAndGlyphs" textLength="50" x="499" y="19.2822">Confidential</text><text fill="#555555" font-family="sans-serif" font-size="16" lengthAdjust="spacingAndGlyphs" textLength="197" x="181" y="36.4922">example project x Japanese</text><ellipse cx="275" cy="50.2656" fill="#000000" filter="url(#f327w0m27r8g5)" rx="10" ry="10" style="stroke: none; stroke-width: 1.0;"/><polygon fill="#EEEEEE" filter="url(#f327w0m27r8g5)" points="37,80.2656,81,80.2656,93,92.2656,81,104.2656,37,104.2656,25,92.2656,37,80.2656" style="stroke: #999999; stroke-width: 1.5;"/><text fill="#555555" font-family="sans-serif" font-size="14" lengthAdjust="spacingAndGlyphs" textLength="28" x="63" y="117.2607">はい</text><text fill="#555555" font-family="sans-serif" font-size="14" lengthAdjust="spacingAndGlyphs" textLength="44" x="37" y="97.1123">条件10</text><rect fill="#EEEEEE" filter="url(#f327w0m27r8g5)" height="36.2969" rx="12.5" ry="12.5" style="stroke: #999999; stroke-width: 1.5;" width="98" x="10" y="138.7607"/><text fill="#555555" font-family="sans-serif" font-size="14" lengthAdjust="spacingAndGlyphs" textLength="78" x="20" y="161.7559">メッセージ1</text><polygon fill="#EEEEEE" filter="url(#f327w0m27r8g5)" points="149,80.2656,185,80.2656,197,92.2656,185,104.2656,149,104.2656,137,92.2656,149,80.2656" style="stroke: #999999; stroke-width: 1.5;"/><text fill="#555555" font-family="sans-serif" font-size="14" lengthAdjust="spacingAndGlyphs" textLength="28" x="171" y="117.2607">はい</text><text fill="#555555" font-family="sans-serif" font-size="14" lengthAdjust="spacingAndGlyphs" textLength="36" x="149" y="97.1123">条件2</text><rect fill="#EEEEEE" filter="url(#f327w0m27r8g5)" height="36.2969" rx="12.5" ry="12.5" style="stroke: #999999; stroke-width: 1.5;" width="98" x="118" y="138.7607"/><text fill="#555555" font-family="sans-serif" font-size="14" lengthAdjust="spacingAndGlyphs" textLength="78" x="128" y="161.7559">メッセージ2</text><ellipse cx="167" cy="221.0576" fill="#FFFFFF" filter="url(#f327w0m27r8g5)" rx="11" ry="11" style="stroke: #000000; stroke-width: 1.0;"/><ellipse cx="167" cy="221.0576" fill="#000000" rx="6" ry="6" style="stroke: #7F7F7F; stroke-width: 1.0;"/><polygon fill="#EEEEEE" filter="url(#f327w0m27r8g5)" points="257,80.2656,293,80.2656,305,92.2656,293,104.2656,257,104.2656,245,92.2656,257,80.2656" style="stroke: #999999; stroke-width: 1.5;"/><text fill="#555555" font-family="sans-serif" font-size="14" lengthAdjust="spacingAndGlyphs" textLength="28" x="279" y="117.2607">はい</text><text fill="#555555" font-family="sans-serif" font-size="14" lengthAdjust="spacingAndGlyphs" textLength="36" x="257" y="97.1123">条件3</text><rect fill="#EEEEEE" filter="url(#f327w0m27r8g5)" height="36.2969" rx="12.5" ry="12.5" style="stroke: #999999; stroke-width: 1.5;" width="98" x="226" y="138.7607"/><text fill="#555555" font-family="sans-serif" font-size="14" lengthAdjust="spacingAndGlyphs" textLength="78" x="236" y="161.7559">メッセージ3</text><polygon fill="#EEEEEE" filter="url(#f327w0m27r8g5)" points="365,80.2656,401,80.2656,413,92.2656,401,104.2656,365,104.2656,353,92.2656,365,80.2656" style="stroke: #999999; stroke-width: 1.5;"/><text fill="#555555" font-family="sans-serif" font-size="14" lengthAdjust="spacingAndGlyphs" textLength="28" x="387" y="117.2607">はい</text><text fill="#555555" font-family="sans-serif" font-size="14" lengthAdjust="spacingAndGlyphs" textLength="36" x="365" y="97.1123">条件4</text><text fill="#555555" font-family="sans-serif" font-size="14" lengthAdjust="spacingAndGlyphs" textLength="56" x="413" y="88.9639">該当なし</text><rect fill="#EEEEEE" filter="url(#f327w0m27r8g5)" height="36.2969" rx="12.5" ry="12.5" style="stroke: #999999; stroke-width: 1.5;" width="98" x="334" y="138.7607"/><text fill="#555555" font-family="sans-serif" font-size="14" lengthAdjust="spacingAndGlyphs" textLength="78" x="344" y="161.7559">メッセージ4</text><rect fill="#EEEEEE" filter="url(#f327w0m27r8g5)" height="36.2969" rx="12.5" ry="12.5" style="stroke: #999999; stroke-width: 1.5;" width="98" x="452" y="162.1123"/><text fill="#555555" font-family="sans-serif" font-size="14" lengthAdjust="spacingAndGlyphs" textLength="78" x="462" y="185.1074">メッセージ5</text><ellipse cx="275" cy="283.0576" fill="#FFFFFF" filter="url(#f327w0m27r8g5)" rx="11" ry="11" style="stroke: #000000; stroke-width: 1.0;"/><ellipse cx="275" cy="283.0576" fill="#000000" rx="6" ry="6" style="stroke: #7F7F7F; stroke-width: 1.0;"/><line style="stroke: #000000; stroke-width: 1.5;" x1="167" x2="167" y1="175.0576" y2="210.0576"/><polygon fill="#000000" points="163,200.0576,167,210.0576,171,200.0576,167,204.0576" style="stroke: #000000; stroke-width: 1.0;"/><line style="stroke: #000000; stroke-width: 1.5;" x1="59" x2="59" y1="104.2656" y2="138.7607"/><polygon fill="#000000" points="55,128.7607,59,138.7607,63,128.7607,59,132.7607" style="stroke: #000000; stroke-width: 1.0;"/><line style="stroke: #000000; stroke-width: 1.5;" x1="59" x2="59" y1="175.0576" y2="252.0576"/><polygon fill="#000000" points="55,242.0576,59,252.0576,63,242.0576,59,246.0576" style="stroke: #000000; stroke-width: 1.0;"/><line style="stroke: #000000; stroke-width: 1.5;" x1="167" x2="167" y1="104.2656" y2="138.7607"/><polygon fill="#000000" points="163,128.7607,167,138.7607,171,128.7607,167,132.7607" style="stroke: #000000; stroke-width: 1.0;"/><line style="stroke: #000000; stroke-width: 1.5;" x1="275" x2="275" y1="104.2656" y2="138.7607"/><polygon fill="#000000" points="271,128.7607,275,138.7607,279,128.7607,275,132.7607" style="stroke: #000000; stroke-width: 1.0;"/><line style="stroke: #000000; stroke-width: 1.5;" x1="275" x2="275" y1="175.0576" y2="272.0576"/><polygon fill="#000000" points="271,262.0576,275,272.0576,279,262.0576,275,266.0576" style="stroke: #000000; stroke-width: 1.0;"/><line style="stroke: #000000; stroke-width: 1.5;" x1="383" x2="383" y1="104.2656" y2="138.7607"/><polygon fill="#000000" points="379,128.7607,383,138.7607,387,128.7607,383,132.7607" style="stroke: #000000; stroke-width: 1.0;"/><line style="stroke: #000000; stroke-width: 1.5;" x1="383" x2="383" y1="175.0576" y2="252.0576"/><polygon fill="#000000" points="379,242.0576,383,252.0576,387,242.0576,383,246.0576" style="stroke: #000000; stroke-width: 1.0;"/><line style="stroke: #000000; stroke-width: 1.5;" x1="93" x2="137" y1="92.2656" y2="92.2656"/><polygon fill="#000000" points="127,88.2656,137,92.2656,127,96.2656,131,92.2656" style="stroke: #000000; stroke-width: 1.0;"/><line style="stroke: #000000; stroke-width: 1.5;" x1="197" x2="245" y1="92.2656" y2="92.2656"/><polygon fill="#000000" points="235,88.2656,245,92.2656,235,96.2656,239,92.2656" style="stroke: #000000; stroke-width: 1.0;"/><line style="stroke: #000000; stroke-width: 1.5;" x1="305" x2="353" y1="92.2656" y2="92.2656"/><polygon fill="#000000" points="343,88.2656,353,92.2656,343,96.2656,347,92.2656" style="stroke: #000000; stroke-width: 1.0;"/><line style="stroke: #000000; stroke-width: 1.5;" x1="275" x2="275" y1="60.2656" y2="65.2656"/><line style="stroke: #000000; stroke-width: 1.5;" x1="275" x2="59" y1="65.2656" y2="65.2656"/><line style="stroke: #000000; stroke-width: 1.5;" x1="59" x2="59" y1="65.2656" y2="80.2656"/><polygon fill="#000000" points="55,70.2656,59,80.2656,63,70.2656,59,74.2656" style="stroke: #000000; stroke-width: 1.0;"/><line style="stroke: #000000; stroke-width: 1.5;" x1="413" x2="501" y1="92.2656" y2="92.2656"/><line style="stroke: #000000; stroke-width: 1.5;" x1="501" x2="501" y1="92.2656" y2="162.1123"/><polygon fill="#000000" points="497,152.1123,501,162.1123,505,152.1123,501,156.1123" style="stroke: #000000; stroke-width: 1.0;"/><line style="stroke: #000000; stroke-width: 1.5;" x1="501" x2="501" y1="198.4092" y2="252.0576"/><polygon fill="#000000" points="497,242.0576,501,252.0576,505,242.0576,501,246.0576" style="stroke: #000000; stroke-width: 1.0;"/><line style="stroke: #000000; stroke-width: 1.5;" x1="59" x2="501" y1="252.0576" y2="252.0576"/><text fill="#999999" font-family="sans-serif" font-size="10" lengthAdjust="spacingAndGlyphs" textLength="39" x="510" y="302.3398">mawatari</text><text fill="#999999" font-family="sans-serif" font-size="10" lengthAdjust="spacingAndGlyphs" textLength="161" x="388" y="313.9805">Last modified: 2020/02/25 15:54:10 JST</text><!--MD5=[f17682f7a07412a4061b6fb082e99fec]
@startuml
skinparam {
  BoxPadding 5
  ParticipantPadding 10
}
skinparam default {
  FontColor #555555
  FontSize 14
}
skinparam Header {
  FontColor #D7A72D
  FontSize 10
}
skinparam Footer {
  FontColor #999999
  FontSize 10
}
skinparam Title {
  FontSize 16
}

skinparam Actor {
  BackgroundColor #eeeeee
  BorderColor #999999
}

skinparam note {
  FontStyle bold
  FontColor #ffffff
  BackgroundColor #7f8c8d
  BorderColor #7f8c8d
}

skinparam activity {
  ArrowColor #000000
  BackgroundColor #eeeeee
  BorderColor #999999
  StartColor #000000
  EndColor #000000
  BarColor #000000

  DiamondBackgroundColor #eeeeee
  DiamondBorderColor #999999
}
right header Confidential
right footer mawatari\nLast modified: 2020/02/25 15:54:10 JST
title example project x Japanese

start
if (条件10) then (はい)
  :メッセージ1;
elseif (条件2) then (はい)
  :メッセージ2;
  stop
elseif (条件3) then (はい)
  :メッセージ3;
elseif (条件4) then (はい)
  :メッセージ4;
else (該当なし)
  :メッセージ5;
endif
stop

@enduml

PlantUML version 1.2020.01(Mon Feb 17 02:40:32 JST 2020)
(GPL source distribution)
Java Runtime: OpenJDK Runtime Environment
JVM: OpenJDK 64-Bit Server VM
Java Version: 11.0.5+10-alpine-r0
Operating System: Linux
Default Encoding: UTF-8
Language: en
Country: US
--></g></svg>