<?xml version="1.0" encoding="UTF-8" standalone="no"?><svg xmlns="http://www.w3.org/2000/svg" xmlns:xlink="http://www.w3.org/1999/xlink" contentScriptType="application/ecmascript" contentStyleType="text/css" height="337px" preserveAspectRatio="none" style="width:561px;height:337px;" version="1.1" viewBox="0 0 561 337" width="561px" zoomAndPan="magnify"><defs><filter height="300%" id="fawz0skeodafo" width="300%" x="-1" y="-1"><feGaussianBlur result="blurOut" stdDeviation="2.0"/><feColorMatrix in="blurOut" result="blurOut2" type="matrix" values="0 0 0 0 0 0 0 0 0 0 0 0 0 0 0 0 0 0 .4 0"/><feOffset dx="4.0" dy="4.0" in="blurOut2" result="blurOut3"/><feBlend in="SourceGraphic" in2="blurOut3" mode="normal"/></filter></defs><g><text fill="#D7A72D" font-family="sans-serif" font-size="10" lengthAdjust="spacingAndGlyphs" textLength="54" x="495" y="20.4297">confidential</text><text fill="#555555" font-family="sans-serif" font-size="16" lengthAdjust="spacingAndGlyphs" textLength="231" x="164" y="39.7734">example project 日本語ファイル</text><ellipse cx="275" cy="54.0234" fill="#000000" filter="url(#fawz0skeodafo)" rx="10" ry="10" style="stroke: none; stroke-width: 1.0;"/><polygon fill="#EEEEEE" filter="url(#fawz0skeodafo)" points="37,84.0234,81,84.0234,93,96.0234,81,108.0234,37,108.0234,25,96.0234,37,84.0234" style="stroke: #999999; stroke-width: 1.5;"/><text fill="#555555" font-family="sans-serif" font-size="14" lengthAdjust="spacingAndGlyphs" textLength="28" x="63" y="122.625">はい</text><text fill="#555555" font-family="sans-serif" font-size="14" lengthAdjust="spacingAndGlyphs" textLength="44" x="37" y="101.4648">条件10</text><rect fill="#EEEEEE" filter="url(#fawz0skeodafo)" height="38.3203" rx="12.5" ry="12.5" style="stroke: #999999; stroke-width: 1.5;" width="98" x="10" y="144.125"/><text fill="#555555" font-family="sans-serif" font-size="14" lengthAdjust="spacingAndGlyphs" textLength="78" x="20" y="168.7266">メッセージ1</text><polygon fill="#EEEEEE" filter="url(#fawz0skeodafo)" points="149,84.0234,185,84.0234,197,96.0234,185,108.0234,149,108.0234,137,96.0234,149,84.0234" style="stroke: #999999; stroke-width: 1.5;"/><text fill="#555555" font-family="sans-serif" font-size="14" lengthAdjust="spacingAndGlyphs" textLength="28" x="171" y="122.625">はい</text><text fill="#555555" font-family="sans-serif" font-size="14" lengthAdjust="spacingAndGlyphs" textLength="36" x="149" y="101.4648">条件2</text><rect fill="#EEEEEE" filter="url(#fawz0skeodafo)" height="38.3203" rx="12.5" ry="12.5" style="stroke: #999999; stroke-width: 1.5;" width="98" x="118" y="144.125"/><text fill="#555555" font-family="sans-serif" font-size="14" lengthAdjust="spacingAndGlyphs" textLength="78" x="128" y="168.7266">メッセージ2</text><ellipse cx="167" cy="228.4453" fill="#FFFFFF" filter="url(#fawz0skeodafo)" rx="11" ry="11" style="stroke: #000000; stroke-width: 1.0;"/><ellipse cx="167" cy="228.4453" fill="#000000" rx="6" ry="6" style="stroke: #7F7F7F; stroke-width: 1.0;"/><polygon fill="#EEEEEE" filter="url(#fawz0skeodafo)" points="257,84.0234,293,84.0234,305,96.0234,293,108.0234,257,108.0234,245,96.0234,257,84.0234" style="stroke: #999999; stroke-width: 1.5;"/><text fill="#555555" font-family="sans-serif" font-size="14" lengthAdjust="spacingAndGlyphs" textLength="28" x="279" y="122.625">はい</text><text fill="#555555" font-family="sans-serif" font-size="14" lengthAdjust="spacingAndGlyphs" textLength="36" x="257" y="101.4648">条件3</text><rect fill="#EEEEEE" filter="url(#fawz0skeodafo)" height="38.3203" rx="12.5" ry="12.5" style="stroke: #999999; stroke-width: 1.5;" width="98" x="226" y="144.125"/><text fill="#555555" font-family="sans-serif" font-size="14" lengthAdjust="spacingAndGlyphs" textLength="78" x="236" y="168.7266">メッセージ3</text><polygon fill="#EEEEEE" filter="url(#fawz0skeodafo)" points="365,84.0234,401,84.0234,413,96.0234,401,108.0234,365,108.0234,353,96.0234,365,84.0234" style="stroke: #999999; stroke-width: 1.5;"/><text fill="#555555" font-family="sans-serif" font-size="14" lengthAdjust="spacingAndGlyphs" textLength="28" x="387" y="122.625">はい</text><text fill="#555555" font-family="sans-serif" font-size="14" lengthAdjust="spacingAndGlyphs" textLength="36" x="365" y="101.4648">条件4</text><text fill="#555555" font-family="sans-serif" font-size="14" lengthAdjust="spacingAndGlyphs" textLength="56" x="413" y="92.3047">該当なし</text><rect fill="#EEEEEE" filter="url(#fawz0skeodafo)" height="38.3203" rx="12.5" ry="12.5" style="stroke: #999999; stroke-width: 1.5;" width="98" x="334" y="144.125"/><text fill="#555555" font-family="sans-serif" font-size="14" lengthAdjust="spacingAndGlyphs" textLength="78" x="344" y="168.7266">メッセージ4</text><rect fill="#EEEEEE" filter="url(#fawz0skeodafo)" height="38.3203" rx="12.5" ry="12.5" style="stroke: #999999; stroke-width: 1.5;" width="98" x="452" y="166.4648"/><text fill="#555555" font-family="sans-serif" font-size="14" lengthAdjust="spacingAndGlyphs" textLength="78" x="462" y="191.0664">メッセージ5</text><ellipse cx="275" cy="290.4453" fill="#FFFFFF" filter="url(#fawz0skeodafo)" rx="11" ry="11" style="stroke: #000000; stroke-width: 1.0;"/><ellipse cx="275" cy="290.4453" fill="#000000" rx="6" ry="6" style="stroke: #7F7F7F; stroke-width: 1.0;"/><line style="stroke: #000000; stroke-width: 1.5;" x1="167" x2="167" y1="182.4453" y2="217.4453"/><polygon fill="#000000" points="163,207.4453,167,217.4453,171,207.4453,167,211.4453" style="stroke: #000000; stroke-width: 1.0;"/><line style="stroke: #000000; stroke-width: 1.5;" x1="59" x2="59" y1="108.0234" y2="144.125"/><polygon fill="#000000" points="55,134.125,59,144.125,63,134.125,59,138.125" style="stroke: #000000; stroke-width: 1.0;"/><line style="stroke: #000000; stroke-width: 1.5;" x1="59" x2="59" y1="182.4453" y2="259.4453"/><polygon fill="#000000" points="55,249.4453,59,259.4453,63,249.4453,59,253.4453" style="stroke: #000000; stroke-width: 1.0;"/><line style="stroke: #000000; stroke-width: 1.5;" x1="167" x2="167" y1="108.0234" y2="144.125"/><polygon fill="#000000" points="163,134.125,167,144.125,171,134.125,167,138.125" style="stroke: #000000; stroke-width: 1.0;"/><line style="stroke: #000000; stroke-width: 1.5;" x1="275" x2="275" y1="108.0234" y2="144.125"/><polygon fill="#000000" points="271,134.125,275,144.125,279,134.125,275,138.125" style="stroke: #000000; stroke-width: 1.0;"/><line style="stroke: #000000; stroke-width: 1.5;" x1="275" x2="275" y1="182.4453" y2="279.4453"/><polygon fill="#000000" points="271,269.4453,275,279.4453,279,269.4453,275,273.4453" style="stroke: #000000; stroke-width: 1.0;"/><line style="stroke: #000000; stroke-width: 1.5;" x1="383" x2="383" y1="108.0234" y2="144.125"/><polygon fill="#000000" points="379,134.125,383,144.125,387,134.125,383,138.125" style="stroke: #000000; stroke-width: 1.0;"/><line style="stroke: #000000; stroke-width: 1.5;" x1="383" x2="383" y1="182.4453" y2="259.4453"/><polygon fill="#000000" points="379,249.4453,383,259.4453,387,249.4453,383,253.4453" style="stroke: #000000; stroke-width: 1.0;"/><line style="stroke: #000000; stroke-width: 1.5;" x1="93" x2="137" y1="96.0234" y2="96.0234"/><polygon fill="#000000" points="127,92.0234,137,96.0234,127,100.0234,131,96.0234" style="stroke: #000000; stroke-width: 1.0;"/><line style="stroke: #000000; stroke-width: 1.5;" x1="197" x2="245" y1="96.0234" y2="96.0234"/><polygon fill="#000000" points="235,92.0234,245,96.0234,235,100.0234,239,96.0234" style="stroke: #000000; stroke-width: 1.0;"/><line style="stroke: #000000; stroke-width: 1.5;" x1="305" x2="353" y1="96.0234" y2="96.0234"/><polygon fill="#000000" points="343,92.0234,353,96.0234,343,100.0234,347,96.0234" style="stroke: #000000; stroke-width: 1.0;"/><line style="stroke: #000000; stroke-width: 1.5;" x1="275" x2="275" y1="64.0234" y2="69.0234"/><line style="stroke: #000000; stroke-width: 1.5;" x1="275" x2="59" y1="69.0234" y2="69.0234"/><line style="stroke: #000000; stroke-width: 1.5;" x1="59" x2="59" y1="69.0234" y2="84.0234"/><polygon fill="#000000" points="55,74.0234,59,84.0234,63,74.0234,59,78.0234" style="stroke: #000000; stroke-width: 1.0;"/><line style="stroke: #000000; stroke-width: 1.5;" x1="413" x2="501" y1="96.0234" y2="96.0234"/><line style="stroke: #000000; stroke-width: 1.5;" x1="501" x2="501" y1="96.0234" y2="166.4648"/><polygon fill="#000000" points="497,156.4648,501,166.4648,505,156.4648,501,160.4648" style="stroke: #000000; stroke-width: 1.0;"/><line style="stroke: #000000; stroke-width: 1.5;" x1="501" x2="501" y1="204.7852" y2="259.4453"/><polygon fill="#000000" points="497,249.4453,501,259.4453,505,249.4453,501,253.4453" style="stroke: #000000; stroke-width: 1.0;"/><line style="stroke: #000000; stroke-width: 1.5;" x1="59" x2="501" y1="259.4453" y2="259.4453"/><text fill="#999999" font-family="sans-serif" font-size="10" lengthAdjust="spacingAndGlyphs" textLength="41" x="508" y="310.875">mawatari</text><text fill="#999999" font-family="sans-serif" font-size="10" lengthAdjust="spacingAndGlyphs" textLength="185" x="364" y="323.9609">Last modified: 2020/02/24 07:24:57 JST</text><!--MD5=[6ba3a9b89d239f86ac0985ff820c4e7e]
@startuml
skinparam {
  BoxPadding 5
  ParticipantPadding 10
}
skinparam default {
  FontColor #555555
  FontSize 14
}
skinparam Header {
  FontColor #D7A72D
  FontSize 10
}
skinparam Footer {
  FontColor #999999
  FontSize 10
}
skinparam Title {
  FontSize 16
}

skinparam Actor {
  BackgroundColor #eeeeee
  BorderColor #999999
}

skinparam note {
  FontStyle bold
  FontColor #ffffff
  BackgroundColor #7f8c8d
  BorderColor #7f8c8d
}

skinparam activity {
  ArrowColor #000000
  BackgroundColor #eeeeee
  BorderColor #999999
  StartColor #000000
  EndColor #000000
  BarColor #000000

  DiamondBackgroundColor #eeeeee
  DiamondBorderColor #999999
}
right header confidential
right footer mawatari\nLast modified: 2020/02/24 07:24:57 JST
title example project 日本語ファイル

start
if (条件10) then (はい)
  :メッセージ1;
elseif (条件2) then (はい)
  :メッセージ2;
  stop
elseif (条件3) then (はい)
  :メッセージ3;
elseif (条件4) then (はい)
  :メッセージ4;
else (該当なし)
  :メッセージ5;
endif
stop

@enduml

PlantUML version 1.2020.01(Mon Feb 17 02:40:32 JST 2020)
(GPL source distribution)
Java Runtime: OpenJDK Runtime Environment
JVM: OpenJDK 64-Bit Server VM
Java Version: 11.0.5+10-alpine-r0
Operating System: Linux
Default Encoding: UTF-8
Language: ja
Country: JP
--></g></svg>