<?xml version="1.0" encoding="UTF-8" standalone="no"?><svg xmlns="http://www.w3.org/2000/svg" xmlns:xlink="http://www.w3.org/1999/xlink" contentScriptType="application/ecmascript" contentStyleType="text/css" height="291px" preserveAspectRatio="none" style="width:577px;height:291px;" version="1.1" viewBox="0 0 577 291" width="577px" zoomAndPan="magnify"><defs><filter height="300%" id="f13gmhsb9eddyp" width="300%" x="-1" y="-1"><feGaussianBlur result="blurOut" stdDeviation="2.0"/><feColorMatrix in="blurOut" result="blurOut2" type="matrix" values="0 0 0 0 0 0 0 0 0 0 0 0 0 0 0 0 0 0 .4 0"/><feOffset dx="4.0" dy="4.0" in="blurOut2" result="blurOut3"/><feBlend in="SourceGraphic" in2="blurOut3" mode="normal"/></filter></defs><g><text fill="#555555" font-family="sans-serif" font-size="14" lengthAdjust="spacingAndGlyphs" textLength="388" x="177" y="22.9951">&lt;small&gt;LastModified: Sat Feb 22 01:55:27 UTC 2020&lt;/small&gt;</text><ellipse cx="293" cy="36.2969" fill="#000000" filter="url(#f13gmhsb9eddyp)" rx="10" ry="10" style="stroke: none; stroke-width: 1.0;"/><polygon fill="#EEEEEE" filter="url(#f13gmhsb9eddyp)" points="32,66.2969,105,66.2969,117,78.2969,105,90.2969,32,90.2969,20,78.2969,32,66.2969" style="stroke: #999999; stroke-width: 1.5;"/><text fill="#555555" font-family="sans-serif" font-size="14" lengthAdjust="spacingAndGlyphs" textLength="22" x="72.5" y="103.292">yes</text><text fill="#555555" font-family="sans-serif" font-size="14" lengthAdjust="spacingAndGlyphs" textLength="73" x="32" y="83.1436">condition A</text><rect fill="#EEEEEE" filter="url(#f13gmhsb9eddyp)" height="36.2969" rx="12.5" ry="12.5" style="stroke: #999999; stroke-width: 1.5;" width="59" x="39" y="124.792"/><text fill="#555555" font-family="sans-serif" font-size="14" lengthAdjust="spacingAndGlyphs" textLength="39" x="49" y="147.7871">Text 1</text><polygon fill="#EEEEEE" filter="url(#f13gmhsb9eddyp)" points="149,66.2969,222,66.2969,234,78.2969,222,90.2969,149,90.2969,137,78.2969,149,66.2969" style="stroke: #999999; stroke-width: 1.5;"/><text fill="#555555" font-family="sans-serif" font-size="14" lengthAdjust="spacingAndGlyphs" textLength="22" x="189.5" y="103.292">yes</text><text fill="#555555" font-family="sans-serif" font-size="14" lengthAdjust="spacingAndGlyphs" textLength="73" x="149" y="83.1436">condition B</text><rect fill="#EEEEEE" filter="url(#f13gmhsb9eddyp)" height="36.2969" rx="12.5" ry="12.5" style="stroke: #999999; stroke-width: 1.5;" width="59" x="156" y="124.792"/><text fill="#555555" font-family="sans-serif" font-size="14" lengthAdjust="spacingAndGlyphs" textLength="39" x="166" y="147.7871">Text 2</text><ellipse cx="185.5" cy="207.0889" fill="#FFFFFF" filter="url(#f13gmhsb9eddyp)" rx="11" ry="11" style="stroke: #000000; stroke-width: 1.0;"/><ellipse cx="185.5" cy="207.0889" fill="#000000" rx="6" ry="6" style="stroke: #7F7F7F; stroke-width: 1.0;"/><polygon fill="#EEEEEE" filter="url(#f13gmhsb9eddyp)" points="266,66.2969,338,66.2969,350,78.2969,338,90.2969,266,90.2969,254,78.2969,266,66.2969" style="stroke: #999999; stroke-width: 1.5;"/><text fill="#555555" font-family="sans-serif" font-size="14" lengthAdjust="spacingAndGlyphs" textLength="22" x="306" y="103.292">yes</text><text fill="#555555" font-family="sans-serif" font-size="14" lengthAdjust="spacingAndGlyphs" textLength="72" x="266" y="83.1436">condition C</text><rect fill="#EEEEEE" filter="url(#f13gmhsb9eddyp)" height="36.2969" rx="12.5" ry="12.5" style="stroke: #999999; stroke-width: 1.5;" width="59" x="272.5" y="124.792"/><text fill="#555555" font-family="sans-serif" font-size="14" lengthAdjust="spacingAndGlyphs" textLength="39" x="282.5" y="147.7871">Text 3</text><polygon fill="#EEEEEE" filter="url(#f13gmhsb9eddyp)" points="382,66.2969,456,66.2969,468,78.2969,456,90.2969,382,90.2969,370,78.2969,382,66.2969" style="stroke: #999999; stroke-width: 1.5;"/><text fill="#555555" font-family="sans-serif" font-size="14" lengthAdjust="spacingAndGlyphs" textLength="22" x="423" y="103.292">yes</text><text fill="#555555" font-family="sans-serif" font-size="14" lengthAdjust="spacingAndGlyphs" textLength="74" x="382" y="83.1436">condition D</text><text fill="#555555" font-family="sans-serif" font-size="14" lengthAdjust="spacingAndGlyphs" textLength="48" x="468" y="74.9951">nothing</text><rect fill="#EEEEEE" filter="url(#f13gmhsb9eddyp)" height="36.2969" rx="12.5" ry="12.5" style="stroke: #999999; stroke-width: 1.5;" width="59" x="389.5" y="124.792"/><text fill="#555555" font-family="sans-serif" font-size="14" lengthAdjust="spacingAndGlyphs" textLength="39" x="399.5" y="147.7871">Text 4</text><rect fill="#EEEEEE" filter="url(#f13gmhsb9eddyp)" height="36.2969" rx="12.5" ry="12.5" style="stroke: #999999; stroke-width: 1.5;" width="78" x="488" y="148.1436"/><text fill="#555555" font-family="sans-serif" font-size="14" lengthAdjust="spacingAndGlyphs" textLength="58" x="498" y="171.1387">Text else</text><ellipse cx="293" cy="269.0889" fill="#FFFFFF" filter="url(#f13gmhsb9eddyp)" rx="11" ry="11" style="stroke: #000000; stroke-width: 1.0;"/><ellipse cx="293" cy="269.0889" fill="#000000" rx="6" ry="6" style="stroke: #7F7F7F; stroke-width: 1.0;"/><line style="stroke: #000000; stroke-width: 1.5;" x1="185.5" x2="185.5" y1="161.0889" y2="196.0889"/><polygon fill="#000000" points="181.5,186.0889,185.5,196.0889,189.5,186.0889,185.5,190.0889" style="stroke: #000000; stroke-width: 1.0;"/><line style="stroke: #000000; stroke-width: 1.5;" x1="68.5" x2="68.5" y1="90.2969" y2="124.792"/><polygon fill="#000000" points="64.5,114.792,68.5,124.792,72.5,114.792,68.5,118.792" style="stroke: #000000; stroke-width: 1.0;"/><line style="stroke: #000000; stroke-width: 1.5;" x1="68.5" x2="68.5" y1="161.0889" y2="238.0889"/><polygon fill="#000000" points="64.5,228.0889,68.5,238.0889,72.5,228.0889,68.5,232.0889" style="stroke: #000000; stroke-width: 1.0;"/><line style="stroke: #000000; stroke-width: 1.5;" x1="185.5" x2="185.5" y1="90.2969" y2="124.792"/><polygon fill="#000000" points="181.5,114.792,185.5,124.792,189.5,114.792,185.5,118.792" style="stroke: #000000; stroke-width: 1.0;"/><line style="stroke: #000000; stroke-width: 1.5;" x1="302" x2="302" y1="90.2969" y2="124.792"/><polygon fill="#000000" points="298,114.792,302,124.792,306,114.792,302,118.792" style="stroke: #000000; stroke-width: 1.0;"/><line style="stroke: #000000; stroke-width: 1.5;" x1="302" x2="302" y1="161.0889" y2="238.0889"/><polygon fill="#000000" points="298,228.0889,302,238.0889,306,228.0889,302,232.0889" style="stroke: #000000; stroke-width: 1.0;"/><line style="stroke: #000000; stroke-width: 1.5;" x1="419" x2="419" y1="90.2969" y2="124.792"/><polygon fill="#000000" points="415,114.792,419,124.792,423,114.792,419,118.792" style="stroke: #000000; stroke-width: 1.0;"/><line style="stroke: #000000; stroke-width: 1.5;" x1="419" x2="419" y1="161.0889" y2="238.0889"/><polygon fill="#000000" points="415,228.0889,419,238.0889,423,228.0889,419,232.0889" style="stroke: #000000; stroke-width: 1.0;"/><line style="stroke: #000000; stroke-width: 1.5;" x1="117" x2="137" y1="78.2969" y2="78.2969"/><polygon fill="#000000" points="127,74.2969,137,78.2969,127,82.2969,131,78.2969" style="stroke: #000000; stroke-width: 1.0;"/><line style="stroke: #000000; stroke-width: 1.5;" x1="234" x2="254" y1="78.2969" y2="78.2969"/><polygon fill="#000000" points="244,74.2969,254,78.2969,244,82.2969,248,78.2969" style="stroke: #000000; stroke-width: 1.0;"/><line style="stroke: #000000; stroke-width: 1.5;" x1="350" x2="370" y1="78.2969" y2="78.2969"/><polygon fill="#000000" points="360,74.2969,370,78.2969,360,82.2969,364,78.2969" style="stroke: #000000; stroke-width: 1.0;"/><line style="stroke: #000000; stroke-width: 1.5;" x1="293" x2="293" y1="46.2969" y2="51.2969"/><line style="stroke: #000000; stroke-width: 1.5;" x1="293" x2="68.5" y1="51.2969" y2="51.2969"/><line style="stroke: #000000; stroke-width: 1.5;" x1="68.5" x2="68.5" y1="51.2969" y2="66.2969"/><polygon fill="#000000" points="64.5,56.2969,68.5,66.2969,72.5,56.2969,68.5,60.2969" style="stroke: #000000; stroke-width: 1.0;"/><line style="stroke: #000000; stroke-width: 1.5;" x1="468" x2="527" y1="78.2969" y2="78.2969"/><line style="stroke: #000000; stroke-width: 1.5;" x1="527" x2="527" y1="78.2969" y2="148.1436"/><polygon fill="#000000" points="523,138.1436,527,148.1436,531,138.1436,527,142.1436" style="stroke: #000000; stroke-width: 1.0;"/><line style="stroke: #000000; stroke-width: 1.5;" x1="527" x2="527" y1="184.4404" y2="238.0889"/><polygon fill="#000000" points="523,228.0889,527,238.0889,531,228.0889,527,232.0889" style="stroke: #000000; stroke-width: 1.0;"/><line style="stroke: #000000; stroke-width: 1.5;" x1="68.5" x2="527" y1="238.0889" y2="238.0889"/><line style="stroke: #000000; stroke-width: 1.5;" x1="293" x2="293" y1="238.0889" y2="258.0889"/><polygon fill="#000000" points="289,248.0889,293,258.0889,297,248.0889,293,252.0889" style="stroke: #000000; stroke-width: 1.0;"/><!--MD5=[0614a5957ab68ba1ad50863b2b2ac7bc]
@startuml
skinparam {
  BoxPadding 5
  ParticipantPadding 10
}
skinparam default {
  FontColor #555555
  FontSize 14
}

skinparam note {
	FontStyle bold
	FontColor #ffffff
	BackgroundColor #7f8c8d
	BorderColor #7f8c8d
}

skinparam activity {
	ArrowColor #000000
	BackgroundColor #eeeeee
	BorderColor #999999
	StartColor #000000
	EndColor #000000
	BarColor #000000

  DiamondBackgroundColor #eeeeee
  DiamondBorderColor #999999
}
right header <small>LastModified: Sat Feb 22 01:55:27 UTC 2020</small>

start
if (condition A) then (yes)
  :Text 1;
elseif (condition B) then (yes)
  :Text 2;
  stop
elseif (condition C) then (yes)
  :Text 3;
elseif (condition D) then (yes)
  :Text 4;
else (nothing)
  :Text else;
endif
stop
@enduml

PlantUML version 1.2020.01(Sun Feb 16 17:40:32 GMT 2020)
(GPL source distribution)
Java Runtime: OpenJDK Runtime Environment
JVM: OpenJDK 64-Bit Server VM
Java Version: 11.0.5+10-alpine-r0
Operating System: Linux
Default Encoding: UTF-8
Language: en
Country: US
--></g></svg>