<?xml version="1.0" encoding="UTF-8" standalone="no"?><svg xmlns="http://www.w3.org/2000/svg" xmlns:xlink="http://www.w3.org/1999/xlink" contentScriptType="application/ecmascript" contentStyleType="text/css" height="291px" preserveAspectRatio="none" style="width:593px;height:291px;" version="1.1" viewBox="0 0 593 291" width="593px" zoomAndPan="magnify"><defs><filter height="300%" id="f1tssws3r7jdo8" width="300%" x="-1" y="-1"><feGaussianBlur result="blurOut" stdDeviation="2.0"/><feColorMatrix in="blurOut" result="blurOut2" type="matrix" values="0 0 0 0 0 0 0 0 0 0 0 0 0 0 0 0 0 0 .4 0"/><feOffset dx="4.0" dy="4.0" in="blurOut2" result="blurOut3"/><feBlend in="SourceGraphic" in2="blurOut3" mode="normal"/></filter></defs><g><text fill="#555555" font-family="sans-serif" font-size="14" lengthAdjust="spacingAndGlyphs" textLength="86" x="293" y="22.9951">LastModified:</text><text fill="#555555" font-family="sans-serif" font-size="14" font-weight="bold" lengthAdjust="spacingAndGlyphs" textLength="198" x="383" y="22.9951">Sat Feb 22 01:35:22 UTC 2020</text><ellipse cx="301" cy="36.2969" fill="#000000" filter="url(#f1tssws3r7jdo8)" rx="10" ry="10" style="stroke: none; stroke-width: 1.0;"/><polygon fill="#EEEEEE" filter="url(#f1tssws3r7jdo8)" points="32,66.2969,121,66.2969,133,78.2969,121,90.2969,32,90.2969,20,78.2969,32,66.2969" style="stroke: #999999; stroke-width: 1.5;"/><text fill="#555555" font-family="sans-serif" font-size="14" lengthAdjust="spacingAndGlyphs" textLength="22" x="80.5" y="103.292">yes</text><text fill="#555555" font-family="sans-serif" font-size="14" lengthAdjust="spacingAndGlyphs" textLength="89" x="32" y="83.1436">condition AaA</text><rect fill="#EEEEEE" filter="url(#f1tssws3r7jdo8)" height="36.2969" rx="12.5" ry="12.5" style="stroke: #999999; stroke-width: 1.5;" width="59" x="47" y="124.792"/><text fill="#555555" font-family="sans-serif" font-size="14" lengthAdjust="spacingAndGlyphs" textLength="39" x="57" y="147.7871">Text 1</text><polygon fill="#EEEEEE" filter="url(#f1tssws3r7jdo8)" points="165,66.2969,238,66.2969,250,78.2969,238,90.2969,165,90.2969,153,78.2969,165,66.2969" style="stroke: #999999; stroke-width: 1.5;"/><text fill="#555555" font-family="sans-serif" font-size="14" lengthAdjust="spacingAndGlyphs" textLength="22" x="205.5" y="103.292">yes</text><text fill="#555555" font-family="sans-serif" font-size="14" lengthAdjust="spacingAndGlyphs" textLength="73" x="165" y="83.1436">condition B</text><rect fill="#EEEEEE" filter="url(#f1tssws3r7jdo8)" height="36.2969" rx="12.5" ry="12.5" style="stroke: #999999; stroke-width: 1.5;" width="59" x="172" y="124.792"/><text fill="#555555" font-family="sans-serif" font-size="14" lengthAdjust="spacingAndGlyphs" textLength="39" x="182" y="147.7871">Text 2</text><ellipse cx="201.5" cy="207.0889" fill="#FFFFFF" filter="url(#f1tssws3r7jdo8)" rx="11" ry="11" style="stroke: #000000; stroke-width: 1.0;"/><ellipse cx="201.5" cy="207.0889" fill="#000000" rx="6" ry="6" style="stroke: #7F7F7F; stroke-width: 1.0;"/><polygon fill="#EEEEEE" filter="url(#f1tssws3r7jdo8)" points="282,66.2969,354,66.2969,366,78.2969,354,90.2969,282,90.2969,270,78.2969,282,66.2969" style="stroke: #999999; stroke-width: 1.5;"/><text fill="#555555" font-family="sans-serif" font-size="14" lengthAdjust="spacingAndGlyphs" textLength="22" x="322" y="103.292">yes</text><text fill="#555555" font-family="sans-serif" font-size="14" lengthAdjust="spacingAndGlyphs" textLength="72" x="282" y="83.1436">condition C</text><rect fill="#EEEEEE" filter="url(#f1tssws3r7jdo8)" height="36.2969" rx="12.5" ry="12.5" style="stroke: #999999; stroke-width: 1.5;" width="59" x="288.5" y="124.792"/><text fill="#555555" font-family="sans-serif" font-size="14" lengthAdjust="spacingAndGlyphs" textLength="39" x="298.5" y="147.7871">Text 3</text><polygon fill="#EEEEEE" filter="url(#f1tssws3r7jdo8)" points="398,66.2969,472,66.2969,484,78.2969,472,90.2969,398,90.2969,386,78.2969,398,66.2969" style="stroke: #999999; stroke-width: 1.5;"/><text fill="#555555" font-family="sans-serif" font-size="14" lengthAdjust="spacingAndGlyphs" textLength="22" x="439" y="103.292">yes</text><text fill="#555555" font-family="sans-serif" font-size="14" lengthAdjust="spacingAndGlyphs" textLength="74" x="398" y="83.1436">condition D</text><text fill="#555555" font-family="sans-serif" font-size="14" lengthAdjust="spacingAndGlyphs" textLength="48" x="484" y="74.9951">nothing</text><rect fill="#EEEEEE" filter="url(#f1tssws3r7jdo8)" height="36.2969" rx="12.5" ry="12.5" style="stroke: #999999; stroke-width: 1.5;" width="59" x="405.5" y="124.792"/><text fill="#555555" font-family="sans-serif" font-size="14" lengthAdjust="spacingAndGlyphs" textLength="39" x="415.5" y="147.7871">Text 4</text><rect fill="#EEEEEE" filter="url(#f1tssws3r7jdo8)" height="36.2969" rx="12.5" ry="12.5" style="stroke: #999999; stroke-width: 1.5;" width="78" x="504" y="148.1436"/><text fill="#555555" font-family="sans-serif" font-size="14" lengthAdjust="spacingAndGlyphs" textLength="58" x="514" y="171.1387">Text else</text><ellipse cx="301" cy="269.0889" fill="#FFFFFF" filter="url(#f1tssws3r7jdo8)" rx="11" ry="11" style="stroke: #000000; stroke-width: 1.0;"/><ellipse cx="301" cy="269.0889" fill="#000000" rx="6" ry="6" style="stroke: #7F7F7F; stroke-width: 1.0;"/><line style="stroke: #000000; stroke-width: 1.5;" x1="201.5" x2="201.5" y1="161.0889" y2="196.0889"/><polygon fill="#000000" points="197.5,186.0889,201.5,196.0889,205.5,186.0889,201.5,190.0889" style="stroke: #000000; stroke-width: 1.0;"/><line style="stroke: #000000; stroke-width: 1.5;" x1="76.5" x2="76.5" y1="90.2969" y2="124.792"/><polygon fill="#000000" points="72.5,114.792,76.5,124.792,80.5,114.792,76.5,118.792" style="stroke: #000000; stroke-width: 1.0;"/><line style="stroke: #000000; stroke-width: 1.5;" x1="76.5" x2="76.5" y1="161.0889" y2="238.0889"/><polygon fill="#000000" points="72.5,228.0889,76.5,238.0889,80.5,228.0889,76.5,232.0889" style="stroke: #000000; stroke-width: 1.0;"/><line style="stroke: #000000; stroke-width: 1.5;" x1="201.5" x2="201.5" y1="90.2969" y2="124.792"/><polygon fill="#000000" points="197.5,114.792,201.5,124.792,205.5,114.792,201.5,118.792" style="stroke: #000000; stroke-width: 1.0;"/><line style="stroke: #000000; stroke-width: 1.5;" x1="318" x2="318" y1="90.2969" y2="124.792"/><polygon fill="#000000" points="314,114.792,318,124.792,322,114.792,318,118.792" style="stroke: #000000; stroke-width: 1.0;"/><line style="stroke: #000000; stroke-width: 1.5;" x1="318" x2="318" y1="161.0889" y2="238.0889"/><polygon fill="#000000" points="314,228.0889,318,238.0889,322,228.0889,318,232.0889" style="stroke: #000000; stroke-width: 1.0;"/><line style="stroke: #000000; stroke-width: 1.5;" x1="435" x2="435" y1="90.2969" y2="124.792"/><polygon fill="#000000" points="431,114.792,435,124.792,439,114.792,435,118.792" style="stroke: #000000; stroke-width: 1.0;"/><line style="stroke: #000000; stroke-width: 1.5;" x1="435" x2="435" y1="161.0889" y2="238.0889"/><polygon fill="#000000" points="431,228.0889,435,238.0889,439,228.0889,435,232.0889" style="stroke: #000000; stroke-width: 1.0;"/><line style="stroke: #000000; stroke-width: 1.5;" x1="133" x2="153" y1="78.2969" y2="78.2969"/><polygon fill="#000000" points="143,74.2969,153,78.2969,143,82.2969,147,78.2969" style="stroke: #000000; stroke-width: 1.0;"/><line style="stroke: #000000; stroke-width: 1.5;" x1="250" x2="270" y1="78.2969" y2="78.2969"/><polygon fill="#000000" points="260,74.2969,270,78.2969,260,82.2969,264,78.2969" style="stroke: #000000; stroke-width: 1.0;"/><line style="stroke: #000000; stroke-width: 1.5;" x1="366" x2="386" y1="78.2969" y2="78.2969"/><polygon fill="#000000" points="376,74.2969,386,78.2969,376,82.2969,380,78.2969" style="stroke: #000000; stroke-width: 1.0;"/><line style="stroke: #000000; stroke-width: 1.5;" x1="301" x2="301" y1="46.2969" y2="51.2969"/><line style="stroke: #000000; stroke-width: 1.5;" x1="301" x2="76.5" y1="51.2969" y2="51.2969"/><line style="stroke: #000000; stroke-width: 1.5;" x1="76.5" x2="76.5" y1="51.2969" y2="66.2969"/><polygon fill="#000000" points="72.5,56.2969,76.5,66.2969,80.5,56.2969,76.5,60.2969" style="stroke: #000000; stroke-width: 1.0;"/><line style="stroke: #000000; stroke-width: 1.5;" x1="484" x2="543" y1="78.2969" y2="78.2969"/><line style="stroke: #000000; stroke-width: 1.5;" x1="543" x2="543" y1="78.2969" y2="148.1436"/><polygon fill="#000000" points="539,138.1436,543,148.1436,547,138.1436,543,142.1436" style="stroke: #000000; stroke-width: 1.0;"/><line style="stroke: #000000; stroke-width: 1.5;" x1="543" x2="543" y1="184.4404" y2="238.0889"/><polygon fill="#000000" points="539,228.0889,543,238.0889,547,228.0889,543,232.0889" style="stroke: #000000; stroke-width: 1.0;"/><line style="stroke: #000000; stroke-width: 1.5;" x1="76.5" x2="543" y1="238.0889" y2="238.0889"/><line style="stroke: #000000; stroke-width: 1.5;" x1="301" x2="301" y1="238.0889" y2="258.0889"/><polygon fill="#000000" points="297,248.0889,301,258.0889,305,248.0889,301,252.0889" style="stroke: #000000; stroke-width: 1.0;"/><!--MD5=[10b9e8c85f6775d3df855e7ac906507a]
@startuml
skinparam {
  BoxPadding 5
  ParticipantPadding 10
}
skinparam default {
  FontColor #555555
  FontSize 14
}

skinparam note {
	FontStyle bold
	FontColor #ffffff
	BackgroundColor #7f8c8d
	BorderColor #7f8c8d
}

skinparam activity {
	ArrowColor #000000
	BackgroundColor #eeeeee
	BorderColor #999999
	StartColor #000000
	EndColor #000000
	BarColor #000000

  DiamondBackgroundColor #eeeeee
  DiamondBorderColor #999999
}
right header LastModified: <b>Sat Feb 22 01:35:22 UTC 2020</b>

start
if (condition AaA) then (yes)
  :Text 1;
elseif (condition B) then (yes)
  :Text 2;
  stop
elseif (condition C) then (yes)
  :Text 3;
elseif (condition D) then (yes)
  :Text 4;
else (nothing)
  :Text else;
endif
stop
@enduml

PlantUML version 1.2020.01(Sun Feb 16 17:40:32 GMT 2020)
(GPL source distribution)
Java Runtime: OpenJDK Runtime Environment
JVM: OpenJDK 64-Bit Server VM
Java Version: 11.0.5+10-alpine-r0
Operating System: Linux
Default Encoding: UTF-8
Language: en
Country: US
--></g></svg>