<?xml version="1.0" encoding="UTF-8" standalone="no"?><svg xmlns="http://www.w3.org/2000/svg" xmlns:xlink="http://www.w3.org/1999/xlink" contentScriptType="application/ecmascript" contentStyleType="text/css" height="269px" preserveAspectRatio="none" style="width:516px;height:269px;" version="1.1" viewBox="0 0 516 269" width="516px" zoomAndPan="magnify"><defs><filter height="300%" id="f1x1yz570qb5n4" width="300%" x="-1" y="-1"><feGaussianBlur result="blurOut" stdDeviation="2.0"/><feColorMatrix in="blurOut" result="blurOut2" type="matrix" values="0 0 0 0 0 0 0 0 0 0 0 0 0 0 0 0 0 0 .4 0"/><feOffset dx="4.0" dy="4.0" in="blurOut2" result="blurOut3"/><feBlend in="SourceGraphic" in2="blurOut3" mode="normal"/></filter></defs><g><ellipse cx="262.5" cy="20" fill="#000000" filter="url(#f1x1yz570qb5n4)" rx="10" ry="10" style="stroke: none; stroke-width: 1.0;"/><polygon fill="#FEFECE" filter="url(#f1x1yz570qb5n4)" points="32,50,111,50,123,62,111,74,32,74,20,62,32,50" style="stroke: #A80036; stroke-width: 1.5;"/><text fill="#000000" font-family="sans-serif" font-size="11" lengthAdjust="spacingAndGlyphs" textLength="17" x="75.5" y="84.2104">yes</text><text fill="#000000" font-family="sans-serif" font-size="11" lengthAdjust="spacingAndGlyphs" textLength="79" x="32" y="65.8081">condition AaAaA</text><rect fill="#FEFECE" filter="url(#f1x1yz570qb5n4)" height="33.9688" rx="12.5" ry="12.5" style="stroke: #A80036; stroke-width: 1.5;" width="54" x="44.5" y="105.7104"/><text fill="#000000" font-family="sans-serif" font-size="12" lengthAdjust="spacingAndGlyphs" textLength="34" x="54.5" y="126.8491">Text 1</text><polygon fill="#FEFECE" filter="url(#f1x1yz570qb5n4)" points="155,50,208,50,220,62,208,74,155,74,143,62,155,50" style="stroke: #A80036; stroke-width: 1.5;"/><text fill="#000000" font-family="sans-serif" font-size="11" lengthAdjust="spacingAndGlyphs" textLength="17" x="185.5" y="84.2104">yes</text><text fill="#000000" font-family="sans-serif" font-size="11" lengthAdjust="spacingAndGlyphs" textLength="53" x="155" y="65.8081">condition B</text><rect fill="#FEFECE" filter="url(#f1x1yz570qb5n4)" height="33.9688" rx="12.5" ry="12.5" style="stroke: #A80036; stroke-width: 1.5;" width="54" x="154.5" y="105.7104"/><text fill="#000000" font-family="sans-serif" font-size="12" lengthAdjust="spacingAndGlyphs" textLength="34" x="164.5" y="126.8491">Text 2</text><ellipse cx="181.5" cy="185.6792" fill="#FFFFFF" filter="url(#f1x1yz570qb5n4)" rx="11" ry="11" style="stroke: #000000; stroke-width: 1.0;"/><ellipse cx="181.5" cy="185.6792" fill="#000000" rx="6" ry="6" style="stroke: #7F7F7F; stroke-width: 1.0;"/><polygon fill="#FEFECE" filter="url(#f1x1yz570qb5n4)" points="252,50,305,50,317,62,305,74,252,74,240,62,252,50" style="stroke: #A80036; stroke-width: 1.5;"/><text fill="#000000" font-family="sans-serif" font-size="11" lengthAdjust="spacingAndGlyphs" textLength="17" x="282.5" y="84.2104">yes</text><text fill="#000000" font-family="sans-serif" font-size="11" lengthAdjust="spacingAndGlyphs" textLength="53" x="252" y="65.8081">condition C</text><rect fill="#FEFECE" filter="url(#f1x1yz570qb5n4)" height="33.9688" rx="12.5" ry="12.5" style="stroke: #A80036; stroke-width: 1.5;" width="54" x="251.5" y="105.7104"/><text fill="#000000" font-family="sans-serif" font-size="12" lengthAdjust="spacingAndGlyphs" textLength="34" x="261.5" y="126.8491">Text 3</text><polygon fill="#FEFECE" filter="url(#f1x1yz570qb5n4)" points="349,50,403,50,415,62,403,74,349,74,337,62,349,50" style="stroke: #A80036; stroke-width: 1.5;"/><text fill="#000000" font-family="sans-serif" font-size="11" lengthAdjust="spacingAndGlyphs" textLength="17" x="380" y="84.2104">yes</text><text fill="#000000" font-family="sans-serif" font-size="11" lengthAdjust="spacingAndGlyphs" textLength="54" x="349" y="65.8081">condition D</text><text fill="#000000" font-family="sans-serif" font-size="11" lengthAdjust="spacingAndGlyphs" textLength="36" x="415" y="59.4058">nothing</text><rect fill="#FEFECE" filter="url(#f1x1yz570qb5n4)" height="33.9688" rx="12.5" ry="12.5" style="stroke: #A80036; stroke-width: 1.5;" width="54" x="349" y="105.7104"/><text fill="#000000" font-family="sans-serif" font-size="12" lengthAdjust="spacingAndGlyphs" textLength="34" x="359" y="126.8491">Text 4</text><rect fill="#FEFECE" filter="url(#f1x1yz570qb5n4)" height="33.9688" rx="12.5" ry="12.5" style="stroke: #A80036; stroke-width: 1.5;" width="70" x="435" y="130.8081"/><text fill="#000000" font-family="sans-serif" font-size="12" lengthAdjust="spacingAndGlyphs" textLength="50" x="445" y="151.9468">Text else</text><ellipse cx="262.5" cy="247.6792" fill="#FFFFFF" filter="url(#f1x1yz570qb5n4)" rx="11" ry="11" style="stroke: #000000; stroke-width: 1.0;"/><ellipse cx="262.5" cy="247.6792" fill="#000000" rx="6" ry="6" style="stroke: #7F7F7F; stroke-width: 1.0;"/><line style="stroke: #A80036; stroke-width: 1.5;" x1="181.5" x2="181.5" y1="139.6792" y2="174.6792"/><polygon fill="#A80036" points="177.5,164.6792,181.5,174.6792,185.5,164.6792,181.5,168.6792" style="stroke: #A80036; stroke-width: 1.0;"/><line style="stroke: #A80036; stroke-width: 1.5;" x1="71.5" x2="71.5" y1="74" y2="105.7104"/><polygon fill="#A80036" points="67.5,95.7104,71.5,105.7104,75.5,95.7104,71.5,99.7104" style="stroke: #A80036; stroke-width: 1.0;"/><line style="stroke: #A80036; stroke-width: 1.5;" x1="71.5" x2="71.5" y1="139.6792" y2="216.6792"/><polygon fill="#A80036" points="67.5,206.6792,71.5,216.6792,75.5,206.6792,71.5,210.6792" style="stroke: #A80036; stroke-width: 1.0;"/><line style="stroke: #A80036; stroke-width: 1.5;" x1="181.5" x2="181.5" y1="74" y2="105.7104"/><polygon fill="#A80036" points="177.5,95.7104,181.5,105.7104,185.5,95.7104,181.5,99.7104" style="stroke: #A80036; stroke-width: 1.0;"/><line style="stroke: #A80036; stroke-width: 1.5;" x1="278.5" x2="278.5" y1="74" y2="105.7104"/><polygon fill="#A80036" points="274.5,95.7104,278.5,105.7104,282.5,95.7104,278.5,99.7104" style="stroke: #A80036; stroke-width: 1.0;"/><line style="stroke: #A80036; stroke-width: 1.5;" x1="278.5" x2="278.5" y1="139.6792" y2="216.6792"/><polygon fill="#A80036" points="274.5,206.6792,278.5,216.6792,282.5,206.6792,278.5,210.6792" style="stroke: #A80036; stroke-width: 1.0;"/><line style="stroke: #A80036; stroke-width: 1.5;" x1="376" x2="376" y1="74" y2="105.7104"/><polygon fill="#A80036" points="372,95.7104,376,105.7104,380,95.7104,376,99.7104" style="stroke: #A80036; stroke-width: 1.0;"/><line style="stroke: #A80036; stroke-width: 1.5;" x1="376" x2="376" y1="139.6792" y2="216.6792"/><polygon fill="#A80036" points="372,206.6792,376,216.6792,380,206.6792,376,210.6792" style="stroke: #A80036; stroke-width: 1.0;"/><line style="stroke: #A80036; stroke-width: 1.5;" x1="123" x2="143" y1="62" y2="62"/><polygon fill="#A80036" points="133,58,143,62,133,66,137,62" style="stroke: #A80036; stroke-width: 1.0;"/><line style="stroke: #A80036; stroke-width: 1.5;" x1="220" x2="240" y1="62" y2="62"/><polygon fill="#A80036" points="230,58,240,62,230,66,234,62" style="stroke: #A80036; stroke-width: 1.0;"/><line style="stroke: #A80036; stroke-width: 1.5;" x1="317" x2="337" y1="62" y2="62"/><polygon fill="#A80036" points="327,58,337,62,327,66,331,62" style="stroke: #A80036; stroke-width: 1.0;"/><line style="stroke: #A80036; stroke-width: 1.5;" x1="262.5" x2="262.5" y1="30" y2="35"/><line style="stroke: #A80036; stroke-width: 1.5;" x1="262.5" x2="71.5" y1="35" y2="35"/><line style="stroke: #A80036; stroke-width: 1.5;" x1="71.5" x2="71.5" y1="35" y2="50"/><polygon fill="#A80036" points="67.5,40,71.5,50,75.5,40,71.5,44" style="stroke: #A80036; stroke-width: 1.0;"/><line style="stroke: #A80036; stroke-width: 1.5;" x1="415" x2="470" y1="62" y2="62"/><line style="stroke: #A80036; stroke-width: 1.5;" x1="470" x2="470" y1="62" y2="130.8081"/><polygon fill="#A80036" points="466,120.8081,470,130.8081,474,120.8081,470,124.8081" style="stroke: #A80036; stroke-width: 1.0;"/><line style="stroke: #A80036; stroke-width: 1.5;" x1="470" x2="470" y1="164.7769" y2="216.6792"/><polygon fill="#A80036" points="466,206.6792,470,216.6792,474,206.6792,470,210.6792" style="stroke: #A80036; stroke-width: 1.0;"/><line style="stroke: #A80036; stroke-width: 1.5;" x1="71.5" x2="470" y1="216.6792" y2="216.6792"/><line style="stroke: #A80036; stroke-width: 1.5;" x1="262.5" x2="262.5" y1="216.6792" y2="236.6792"/><polygon fill="#A80036" points="258.5,226.6792,262.5,236.6792,266.5,226.6792,262.5,230.6792" style="stroke: #A80036; stroke-width: 1.0;"/><!--MD5=[7e73fd80d095e77b0b100d2c4da488d7]
@startuml

start
if (condition AaAaA) then (yes)
  :Text 1;
elseif (condition B) then (yes)
  :Text 2;
  stop
elseif (condition C) then (yes)
  :Text 3;
elseif (condition D) then (yes)
  :Text 4;
else (nothing)
  :Text else;
endif
stop
@enduml

PlantUML version 1.2020.01(Sun Feb 16 17:40:32 GMT 2020)
(GPL source distribution)
Java Runtime: OpenJDK Runtime Environment
JVM: OpenJDK 64-Bit Server VM
Java Version: 11.0.5+10-alpine-r0
Operating System: Linux
Default Encoding: UTF-8
Language: en
Country: US
--></g></svg>