<?xml version="1.0" encoding="UTF-8" standalone="no"?><svg xmlns="http://www.w3.org/2000/svg" xmlns:xlink="http://www.w3.org/1999/xlink" contentScriptType="application/ecmascript" contentStyleType="text/css" height="317px" preserveAspectRatio="none" style="width:577px;height:317px;" version="1.1" viewBox="0 0 577 317" width="577px" zoomAndPan="magnify"><defs><filter height="300%" id="f19vrdjfiyq9yt" width="300%" x="-1" y="-1"><feGaussianBlur result="blurOut" stdDeviation="2.0"/><feColorMatrix in="blurOut" result="blurOut2" type="matrix" values="0 0 0 0 0 0 0 0 0 0 0 0 0 0 0 0 0 0 .4 0"/><feOffset dx="4.0" dy="4.0" in="blurOut2" result="blurOut3"/><feBlend in="SourceGraphic" in2="blurOut3" mode="normal"/></filter></defs><g><text fill="#999999" font-family="sans-serif" font-size="10" lengthAdjust="spacingAndGlyphs" textLength="182" x="383" y="19.2822">LastModified: Sat Feb 22 02:18:05 UTC 2020</text><text fill="#555555" font-family="sans-serif" font-size="14" lengthAdjust="spacingAndGlyphs" textLength="192" x="191.5" y="34.6357">_PROJECT_NAME_ %filename%</text><ellipse cx="293" cy="47.9375" fill="#000000" filter="url(#f19vrdjfiyq9yt)" rx="10" ry="10" style="stroke: none; stroke-width: 1.0;"/><polygon fill="#EEEEEE" filter="url(#f19vrdjfiyq9yt)" points="32,77.9375,105,77.9375,117,89.9375,105,101.9375,32,101.9375,20,89.9375,32,77.9375" style="stroke: #999999; stroke-width: 1.5;"/><text fill="#555555" font-family="sans-serif" font-size="14" lengthAdjust="spacingAndGlyphs" textLength="22" x="72.5" y="114.9326">yes</text><text fill="#555555" font-family="sans-serif" font-size="14" lengthAdjust="spacingAndGlyphs" textLength="73" x="32" y="94.7842">condition A</text><rect fill="#EEEEEE" filter="url(#f19vrdjfiyq9yt)" height="36.2969" rx="12.5" ry="12.5" style="stroke: #999999; stroke-width: 1.5;" width="59" x="39" y="136.4326"/><text fill="#555555" font-family="sans-serif" font-size="14" lengthAdjust="spacingAndGlyphs" textLength="39" x="49" y="159.4277">Text 1</text><polygon fill="#EEEEEE" filter="url(#f19vrdjfiyq9yt)" points="149,77.9375,222,77.9375,234,89.9375,222,101.9375,149,101.9375,137,89.9375,149,77.9375" style="stroke: #999999; stroke-width: 1.5;"/><text fill="#555555" font-family="sans-serif" font-size="14" lengthAdjust="spacingAndGlyphs" textLength="22" x="189.5" y="114.9326">yes</text><text fill="#555555" font-family="sans-serif" font-size="14" lengthAdjust="spacingAndGlyphs" textLength="73" x="149" y="94.7842">condition B</text><rect fill="#EEEEEE" filter="url(#f19vrdjfiyq9yt)" height="36.2969" rx="12.5" ry="12.5" style="stroke: #999999; stroke-width: 1.5;" width="59" x="156" y="136.4326"/><text fill="#555555" font-family="sans-serif" font-size="14" lengthAdjust="spacingAndGlyphs" textLength="39" x="166" y="159.4277">Text 2</text><ellipse cx="185.5" cy="218.7295" fill="#FFFFFF" filter="url(#f19vrdjfiyq9yt)" rx="11" ry="11" style="stroke: #000000; stroke-width: 1.0;"/><ellipse cx="185.5" cy="218.7295" fill="#000000" rx="6" ry="6" style="stroke: #7F7F7F; stroke-width: 1.0;"/><polygon fill="#EEEEEE" filter="url(#f19vrdjfiyq9yt)" points="266,77.9375,338,77.9375,350,89.9375,338,101.9375,266,101.9375,254,89.9375,266,77.9375" style="stroke: #999999; stroke-width: 1.5;"/><text fill="#555555" font-family="sans-serif" font-size="14" lengthAdjust="spacingAndGlyphs" textLength="22" x="306" y="114.9326">yes</text><text fill="#555555" font-family="sans-serif" font-size="14" lengthAdjust="spacingAndGlyphs" textLength="72" x="266" y="94.7842">condition C</text><rect fill="#EEEEEE" filter="url(#f19vrdjfiyq9yt)" height="36.2969" rx="12.5" ry="12.5" style="stroke: #999999; stroke-width: 1.5;" width="59" x="272.5" y="136.4326"/><text fill="#555555" font-family="sans-serif" font-size="14" lengthAdjust="spacingAndGlyphs" textLength="39" x="282.5" y="159.4277">Text 3</text><polygon fill="#EEEEEE" filter="url(#f19vrdjfiyq9yt)" points="382,77.9375,456,77.9375,468,89.9375,456,101.9375,382,101.9375,370,89.9375,382,77.9375" style="stroke: #999999; stroke-width: 1.5;"/><text fill="#555555" font-family="sans-serif" font-size="14" lengthAdjust="spacingAndGlyphs" textLength="22" x="423" y="114.9326">yes</text><text fill="#555555" font-family="sans-serif" font-size="14" lengthAdjust="spacingAndGlyphs" textLength="74" x="382" y="94.7842">condition D</text><text fill="#555555" font-family="sans-serif" font-size="14" lengthAdjust="spacingAndGlyphs" textLength="48" x="468" y="86.6357">nothing</text><rect fill="#EEEEEE" filter="url(#f19vrdjfiyq9yt)" height="36.2969" rx="12.5" ry="12.5" style="stroke: #999999; stroke-width: 1.5;" width="59" x="389.5" y="136.4326"/><text fill="#555555" font-family="sans-serif" font-size="14" lengthAdjust="spacingAndGlyphs" textLength="39" x="399.5" y="159.4277">Text 4</text><rect fill="#EEEEEE" filter="url(#f19vrdjfiyq9yt)" height="36.2969" rx="12.5" ry="12.5" style="stroke: #999999; stroke-width: 1.5;" width="78" x="488" y="159.7842"/><text fill="#555555" font-family="sans-serif" font-size="14" lengthAdjust="spacingAndGlyphs" textLength="58" x="498" y="182.7793">Text else</text><ellipse cx="293" cy="280.7295" fill="#FFFFFF" filter="url(#f19vrdjfiyq9yt)" rx="11" ry="11" style="stroke: #000000; stroke-width: 1.0;"/><ellipse cx="293" cy="280.7295" fill="#000000" rx="6" ry="6" style="stroke: #7F7F7F; stroke-width: 1.0;"/><line style="stroke: #000000; stroke-width: 1.5;" x1="185.5" x2="185.5" y1="172.7295" y2="207.7295"/><polygon fill="#000000" points="181.5,197.7295,185.5,207.7295,189.5,197.7295,185.5,201.7295" style="stroke: #000000; stroke-width: 1.0;"/><line style="stroke: #000000; stroke-width: 1.5;" x1="68.5" x2="68.5" y1="101.9375" y2="136.4326"/><polygon fill="#000000" points="64.5,126.4326,68.5,136.4326,72.5,126.4326,68.5,130.4326" style="stroke: #000000; stroke-width: 1.0;"/><line style="stroke: #000000; stroke-width: 1.5;" x1="68.5" x2="68.5" y1="172.7295" y2="249.7295"/><polygon fill="#000000" points="64.5,239.7295,68.5,249.7295,72.5,239.7295,68.5,243.7295" style="stroke: #000000; stroke-width: 1.0;"/><line style="stroke: #000000; stroke-width: 1.5;" x1="185.5" x2="185.5" y1="101.9375" y2="136.4326"/><polygon fill="#000000" points="181.5,126.4326,185.5,136.4326,189.5,126.4326,185.5,130.4326" style="stroke: #000000; stroke-width: 1.0;"/><line style="stroke: #000000; stroke-width: 1.5;" x1="302" x2="302" y1="101.9375" y2="136.4326"/><polygon fill="#000000" points="298,126.4326,302,136.4326,306,126.4326,302,130.4326" style="stroke: #000000; stroke-width: 1.0;"/><line style="stroke: #000000; stroke-width: 1.5;" x1="302" x2="302" y1="172.7295" y2="249.7295"/><polygon fill="#000000" points="298,239.7295,302,249.7295,306,239.7295,302,243.7295" style="stroke: #000000; stroke-width: 1.0;"/><line style="stroke: #000000; stroke-width: 1.5;" x1="419" x2="419" y1="101.9375" y2="136.4326"/><polygon fill="#000000" points="415,126.4326,419,136.4326,423,126.4326,419,130.4326" style="stroke: #000000; stroke-width: 1.0;"/><line style="stroke: #000000; stroke-width: 1.5;" x1="419" x2="419" y1="172.7295" y2="249.7295"/><polygon fill="#000000" points="415,239.7295,419,249.7295,423,239.7295,419,243.7295" style="stroke: #000000; stroke-width: 1.0;"/><line style="stroke: #000000; stroke-width: 1.5;" x1="117" x2="137" y1="89.9375" y2="89.9375"/><polygon fill="#000000" points="127,85.9375,137,89.9375,127,93.9375,131,89.9375" style="stroke: #000000; stroke-width: 1.0;"/><line style="stroke: #000000; stroke-width: 1.5;" x1="234" x2="254" y1="89.9375" y2="89.9375"/><polygon fill="#000000" points="244,85.9375,254,89.9375,244,93.9375,248,89.9375" style="stroke: #000000; stroke-width: 1.0;"/><line style="stroke: #000000; stroke-width: 1.5;" x1="350" x2="370" y1="89.9375" y2="89.9375"/><polygon fill="#000000" points="360,85.9375,370,89.9375,360,93.9375,364,89.9375" style="stroke: #000000; stroke-width: 1.0;"/><line style="stroke: #000000; stroke-width: 1.5;" x1="293" x2="293" y1="57.9375" y2="62.9375"/><line style="stroke: #000000; stroke-width: 1.5;" x1="293" x2="68.5" y1="62.9375" y2="62.9375"/><line style="stroke: #000000; stroke-width: 1.5;" x1="68.5" x2="68.5" y1="62.9375" y2="77.9375"/><polygon fill="#000000" points="64.5,67.9375,68.5,77.9375,72.5,67.9375,68.5,71.9375" style="stroke: #000000; stroke-width: 1.0;"/><line style="stroke: #000000; stroke-width: 1.5;" x1="468" x2="527" y1="89.9375" y2="89.9375"/><line style="stroke: #000000; stroke-width: 1.5;" x1="527" x2="527" y1="89.9375" y2="159.7842"/><polygon fill="#000000" points="523,149.7842,527,159.7842,531,149.7842,527,153.7842" style="stroke: #000000; stroke-width: 1.0;"/><line style="stroke: #000000; stroke-width: 1.5;" x1="527" x2="527" y1="196.0811" y2="249.7295"/><polygon fill="#000000" points="523,239.7295,527,249.7295,531,239.7295,527,243.7295" style="stroke: #000000; stroke-width: 1.0;"/><line style="stroke: #000000; stroke-width: 1.5;" x1="68.5" x2="527" y1="249.7295" y2="249.7295"/><line style="stroke: #000000; stroke-width: 1.5;" x1="293" x2="293" y1="249.7295" y2="269.7295"/><polygon fill="#000000" points="289,259.7295,293,269.7295,297,259.7295,293,263.7295" style="stroke: #000000; stroke-width: 1.0;"/><text fill="#555555" font-family="sans-serif" font-size="14" lengthAdjust="spacingAndGlyphs" textLength="119" x="446" y="303.7246">_PROJECT_OWNER_</text><!--MD5=[1522cb1fdc411c235ad78e2f67f256b2]
@startuml
skinparam {
  BoxPadding 5
  ParticipantPadding 10
}
skinparam default {
  FontColor #555555
  FontSize 14
}
skinparam Header {
  FontColor #999999
  FontSize 10
}

skinparam note {
	FontStyle bold
	FontColor #ffffff
	BackgroundColor #7f8c8d
	BorderColor #7f8c8d
}

skinparam activity {
	ArrowColor #000000
	BackgroundColor #eeeeee
	BorderColor #999999
	StartColor #000000
	EndColor #000000
	BarColor #000000

  DiamondBackgroundColor #eeeeee
  DiamondBorderColor #999999
}
right header LastModified: Sat Feb 22 02:18:05 UTC 2020
right footer _PROJECT_OWNER_
title _PROJECT_NAME_ %filename%

start
if (condition A) then (yes)
  :Text 1;
elseif (condition B) then (yes)
  :Text 2;
  stop
elseif (condition C) then (yes)
  :Text 3;
elseif (condition D) then (yes)
  :Text 4;
else (nothing)
  :Text else;
endif
stop
@enduml

PlantUML version 1.2020.01(Sun Feb 16 17:40:32 GMT 2020)
(GPL source distribution)
Java Runtime: OpenJDK Runtime Environment
JVM: OpenJDK 64-Bit Server VM
Java Version: 11.0.5+10-alpine-r0
Operating System: Linux
Default Encoding: UTF-8
Language: en
Country: US
--></g></svg>