<?xml version="1.0" encoding="UTF-8" standalone="no"?><svg xmlns="http://www.w3.org/2000/svg" xmlns:xlink="http://www.w3.org/1999/xlink" contentScriptType="application/ecmascript" contentStyleType="text/css" height="327px" preserveAspectRatio="none" style="width:593px;height:327px;" version="1.1" viewBox="0 0 593 327" width="593px" zoomAndPan="magnify"><defs><filter height="300%" id="firtlyohu564s" width="300%" x="-1" y="-1"><feGaussianBlur result="blurOut" stdDeviation="2.0"/><feColorMatrix in="blurOut" result="blurOut2" type="matrix" values="0 0 0 0 0 0 0 0 0 0 0 0 0 0 0 0 0 0 .4 0"/><feOffset dx="4.0" dy="4.0" in="blurOut2" result="blurOut3"/><feBlend in="SourceGraphic" in2="blurOut3" mode="normal"/></filter></defs><g><text fill="#D7A72D" font-family="sans-serif" font-size="10" lengthAdjust="spacingAndGlyphs" textLength="48" x="533" y="19.2822">confidential</text><text fill="#555555" font-family="sans-serif" font-size="16" lengthAdjust="spacingAndGlyphs" textLength="275" x="158" y="36.4922">example project activity-diagram.puml</text><ellipse cx="301" cy="50.2656" fill="#000000" filter="url(#firtlyohu564s)" rx="10" ry="10" style="stroke: none; stroke-width: 1.0;"/><polygon fill="#EEEEEE" filter="url(#firtlyohu564s)" points="32,80.2656,121,80.2656,133,92.2656,121,104.2656,32,104.2656,20,92.2656,32,80.2656" style="stroke: #999999; stroke-width: 1.5;"/><text fill="#555555" font-family="sans-serif" font-size="14" lengthAdjust="spacingAndGlyphs" textLength="22" x="80.5" y="117.2607">yes</text><text fill="#555555" font-family="sans-serif" font-size="14" lengthAdjust="spacingAndGlyphs" textLength="89" x="32" y="97.1123">condition AaA</text><rect fill="#EEEEEE" filter="url(#firtlyohu564s)" height="36.2969" rx="12.5" ry="12.5" style="stroke: #999999; stroke-width: 1.5;" width="59" x="47" y="138.7607"/><text fill="#555555" font-family="sans-serif" font-size="14" lengthAdjust="spacingAndGlyphs" textLength="39" x="57" y="161.7559">Text 1</text><polygon fill="#EEEEEE" filter="url(#firtlyohu564s)" points="165,80.2656,238,80.2656,250,92.2656,238,104.2656,165,104.2656,153,92.2656,165,80.2656" style="stroke: #999999; stroke-width: 1.5;"/><text fill="#555555" font-family="sans-serif" font-size="14" lengthAdjust="spacingAndGlyphs" textLength="22" x="205.5" y="117.2607">yes</text><text fill="#555555" font-family="sans-serif" font-size="14" lengthAdjust="spacingAndGlyphs" textLength="73" x="165" y="97.1123">condition B</text><rect fill="#EEEEEE" filter="url(#firtlyohu564s)" height="36.2969" rx="12.5" ry="12.5" style="stroke: #999999; stroke-width: 1.5;" width="59" x="172" y="138.7607"/><text fill="#555555" font-family="sans-serif" font-size="14" lengthAdjust="spacingAndGlyphs" textLength="39" x="182" y="161.7559">Text 2</text><ellipse cx="201.5" cy="221.0576" fill="#FFFFFF" filter="url(#firtlyohu564s)" rx="11" ry="11" style="stroke: #000000; stroke-width: 1.0;"/><ellipse cx="201.5" cy="221.0576" fill="#000000" rx="6" ry="6" style="stroke: #7F7F7F; stroke-width: 1.0;"/><polygon fill="#EEEEEE" filter="url(#firtlyohu564s)" points="282,80.2656,354,80.2656,366,92.2656,354,104.2656,282,104.2656,270,92.2656,282,80.2656" style="stroke: #999999; stroke-width: 1.5;"/><text fill="#555555" font-family="sans-serif" font-size="14" lengthAdjust="spacingAndGlyphs" textLength="22" x="322" y="117.2607">yes</text><text fill="#555555" font-family="sans-serif" font-size="14" lengthAdjust="spacingAndGlyphs" textLength="72" x="282" y="97.1123">condition C</text><rect fill="#EEEEEE" filter="url(#firtlyohu564s)" height="36.2969" rx="12.5" ry="12.5" style="stroke: #999999; stroke-width: 1.5;" width="59" x="288.5" y="138.7607"/><text fill="#555555" font-family="sans-serif" font-size="14" lengthAdjust="spacingAndGlyphs" textLength="39" x="298.5" y="161.7559">Text 3</text><polygon fill="#EEEEEE" filter="url(#firtlyohu564s)" points="398,80.2656,472,80.2656,484,92.2656,472,104.2656,398,104.2656,386,92.2656,398,80.2656" style="stroke: #999999; stroke-width: 1.5;"/><text fill="#555555" font-family="sans-serif" font-size="14" lengthAdjust="spacingAndGlyphs" textLength="22" x="439" y="117.2607">yes</text><text fill="#555555" font-family="sans-serif" font-size="14" lengthAdjust="spacingAndGlyphs" textLength="74" x="398" y="97.1123">condition D</text><text fill="#555555" font-family="sans-serif" font-size="14" lengthAdjust="spacingAndGlyphs" textLength="48" x="484" y="88.9639">nothing</text><rect fill="#EEEEEE" filter="url(#firtlyohu564s)" height="36.2969" rx="12.5" ry="12.5" style="stroke: #999999; stroke-width: 1.5;" width="59" x="405.5" y="138.7607"/><text fill="#555555" font-family="sans-serif" font-size="14" lengthAdjust="spacingAndGlyphs" textLength="39" x="415.5" y="161.7559">Text 4</text><rect fill="#EEEEEE" filter="url(#firtlyohu564s)" height="36.2969" rx="12.5" ry="12.5" style="stroke: #999999; stroke-width: 1.5;" width="78" x="504" y="162.1123"/><text fill="#555555" font-family="sans-serif" font-size="14" lengthAdjust="spacingAndGlyphs" textLength="58" x="514" y="185.1074">Text else</text><ellipse cx="301" cy="283.0576" fill="#FFFFFF" filter="url(#firtlyohu564s)" rx="11" ry="11" style="stroke: #000000; stroke-width: 1.0;"/><ellipse cx="301" cy="283.0576" fill="#000000" rx="6" ry="6" style="stroke: #7F7F7F; stroke-width: 1.0;"/><line style="stroke: #000000; stroke-width: 1.5;" x1="201.5" x2="201.5" y1="175.0576" y2="210.0576"/><polygon fill="#000000" points="197.5,200.0576,201.5,210.0576,205.5,200.0576,201.5,204.0576" style="stroke: #000000; stroke-width: 1.0;"/><line style="stroke: #000000; stroke-width: 1.5;" x1="76.5" x2="76.5" y1="104.2656" y2="138.7607"/><polygon fill="#000000" points="72.5,128.7607,76.5,138.7607,80.5,128.7607,76.5,132.7607" style="stroke: #000000; stroke-width: 1.0;"/><line style="stroke: #000000; stroke-width: 1.5;" x1="76.5" x2="76.5" y1="175.0576" y2="252.0576"/><polygon fill="#000000" points="72.5,242.0576,76.5,252.0576,80.5,242.0576,76.5,246.0576" style="stroke: #000000; stroke-width: 1.0;"/><line style="stroke: #000000; stroke-width: 1.5;" x1="201.5" x2="201.5" y1="104.2656" y2="138.7607"/><polygon fill="#000000" points="197.5,128.7607,201.5,138.7607,205.5,128.7607,201.5,132.7607" style="stroke: #000000; stroke-width: 1.0;"/><line style="stroke: #000000; stroke-width: 1.5;" x1="318" x2="318" y1="104.2656" y2="138.7607"/><polygon fill="#000000" points="314,128.7607,318,138.7607,322,128.7607,318,132.7607" style="stroke: #000000; stroke-width: 1.0;"/><line style="stroke: #000000; stroke-width: 1.5;" x1="318" x2="318" y1="175.0576" y2="252.0576"/><polygon fill="#000000" points="314,242.0576,318,252.0576,322,242.0576,318,246.0576" style="stroke: #000000; stroke-width: 1.0;"/><line style="stroke: #000000; stroke-width: 1.5;" x1="435" x2="435" y1="104.2656" y2="138.7607"/><polygon fill="#000000" points="431,128.7607,435,138.7607,439,128.7607,435,132.7607" style="stroke: #000000; stroke-width: 1.0;"/><line style="stroke: #000000; stroke-width: 1.5;" x1="435" x2="435" y1="175.0576" y2="252.0576"/><polygon fill="#000000" points="431,242.0576,435,252.0576,439,242.0576,435,246.0576" style="stroke: #000000; stroke-width: 1.0;"/><line style="stroke: #000000; stroke-width: 1.5;" x1="133" x2="153" y1="92.2656" y2="92.2656"/><polygon fill="#000000" points="143,88.2656,153,92.2656,143,96.2656,147,92.2656" style="stroke: #000000; stroke-width: 1.0;"/><line style="stroke: #000000; stroke-width: 1.5;" x1="250" x2="270" y1="92.2656" y2="92.2656"/><polygon fill="#000000" points="260,88.2656,270,92.2656,260,96.2656,264,92.2656" style="stroke: #000000; stroke-width: 1.0;"/><line style="stroke: #000000; stroke-width: 1.5;" x1="366" x2="386" y1="92.2656" y2="92.2656"/><polygon fill="#000000" points="376,88.2656,386,92.2656,376,96.2656,380,92.2656" style="stroke: #000000; stroke-width: 1.0;"/><line style="stroke: #000000; stroke-width: 1.5;" x1="301" x2="301" y1="60.2656" y2="65.2656"/><line style="stroke: #000000; stroke-width: 1.5;" x1="301" x2="76.5" y1="65.2656" y2="65.2656"/><line style="stroke: #000000; stroke-width: 1.5;" x1="76.5" x2="76.5" y1="65.2656" y2="80.2656"/><polygon fill="#000000" points="72.5,70.2656,76.5,80.2656,80.5,70.2656,76.5,74.2656" style="stroke: #000000; stroke-width: 1.0;"/><line style="stroke: #000000; stroke-width: 1.5;" x1="484" x2="543" y1="92.2656" y2="92.2656"/><line style="stroke: #000000; stroke-width: 1.5;" x1="543" x2="543" y1="92.2656" y2="162.1123"/><polygon fill="#000000" points="539,152.1123,543,162.1123,547,152.1123,543,156.1123" style="stroke: #000000; stroke-width: 1.0;"/><line style="stroke: #000000; stroke-width: 1.5;" x1="543" x2="543" y1="198.4092" y2="252.0576"/><polygon fill="#000000" points="539,242.0576,543,252.0576,547,242.0576,543,246.0576" style="stroke: #000000; stroke-width: 1.0;"/><line style="stroke: #000000; stroke-width: 1.5;" x1="76.5" x2="543" y1="252.0576" y2="252.0576"/><line style="stroke: #000000; stroke-width: 1.5;" x1="301" x2="301" y1="252.0576" y2="272.0576"/><polygon fill="#000000" points="297,262.0576,301,272.0576,305,262.0576,301,266.0576" style="stroke: #000000; stroke-width: 1.0;"/><text fill="#999999" font-family="sans-serif" font-size="10" lengthAdjust="spacingAndGlyphs" textLength="39" x="542" y="302.3398">mawatari</text><text fill="#999999" font-family="sans-serif" font-size="10" lengthAdjust="spacingAndGlyphs" textLength="167" x="414" y="313.9805">Last modified: 2020/02/22 22:57:16 GMT</text><!--MD5=[f17c462399b7261c3cbd522e25f2d093]
@startuml
skinparam {
  BoxPadding 5
  ParticipantPadding 10
}
skinparam default {
  FontColor #555555
  FontSize 14
}
skinparam Header {
  FontColor #D7A72D
  FontSize 10
}
skinparam Footer {
  FontColor #999999
  FontSize 10
}
skinparam Title {
  FontSize 16
}

skinparam note {
  FontStyle bold
  FontColor #ffffff
  BackgroundColor #7f8c8d
  BorderColor #7f8c8d
}

skinparam activity {
  ArrowColor #000000
  BackgroundColor #eeeeee
  BorderColor #999999
  StartColor #000000
  EndColor #000000
  BarColor #000000

  DiamondBackgroundColor #eeeeee
  DiamondBorderColor #999999
}
right header confidential
right footer mawatari\nLast modified: 2020/02/22 22:57:16 GMT
title example project activity-diagram.puml

start
if (condition AaA) then (yes)
  :Text 1;
elseif (condition B) then (yes)
  :Text 2;
  stop
elseif (condition C) then (yes)
  :Text 3;
elseif (condition D) then (yes)
  :Text 4;
else (nothing)
  :Text else;
endif
stop
@enduml

PlantUML version 1.2020.01(Sun Feb 16 17:40:32 GMT 2020)
(GPL source distribution)
Java Runtime: OpenJDK Runtime Environment
JVM: OpenJDK 64-Bit Server VM
Java Version: 11.0.5+10-alpine-r0
Operating System: Linux
Default Encoding: UTF-8
Language: en
Country: US
--></g></svg>