<?xml version="1.0" encoding="UTF-8" standalone="no"?><svg xmlns="http://www.w3.org/2000/svg" xmlns:xlink="http://www.w3.org/1999/xlink" contentScriptType="application/ecmascript" contentStyleType="text/css" height="327px" preserveAspectRatio="none" style="width:598px;height:327px;" version="1.1" viewBox="0 0 598 327" width="598px" zoomAndPan="magnify"><defs><filter height="300%" id="f1ngr3twkxbsgy" width="300%" x="-1" y="-1"><feGaussianBlur result="blurOut" stdDeviation="2.0"/><feColorMatrix in="blurOut" result="blurOut2" type="matrix" values="0 0 0 0 0 0 0 0 0 0 0 0 0 0 0 0 0 0 .4 0"/><feOffset dx="4.0" dy="4.0" in="blurOut2" result="blurOut3"/><feBlend in="SourceGraphic" in2="blurOut3" mode="normal"/></filter></defs><g><text fill="#D7A72D" font-family="sans-serif" font-size="10" lengthAdjust="spacingAndGlyphs" textLength="48" x="538" y="19.2822">confidential</text><text fill="#555555" font-family="sans-serif" font-size="16" lengthAdjust="spacingAndGlyphs" textLength="284" x="156" y="36.4922">example project1 activity-diagram.puml</text><ellipse cx="303.5" cy="50.2656" fill="#000000" filter="url(#f1ngr3twkxbsgy)" rx="10" ry="10" style="stroke: none; stroke-width: 1.0;"/><polygon fill="#EEEEEE" filter="url(#f1ngr3twkxbsgy)" points="32,80.2656,126,80.2656,138,92.2656,126,104.2656,32,104.2656,20,92.2656,32,80.2656" style="stroke: #999999; stroke-width: 1.5;"/><text fill="#555555" font-family="sans-serif" font-size="14" lengthAdjust="spacingAndGlyphs" textLength="22" x="83" y="117.2607">yes</text><text fill="#555555" font-family="sans-serif" font-size="14" lengthAdjust="spacingAndGlyphs" textLength="94" x="32" y="97.1123">condition Aaaa</text><rect fill="#EEEEEE" filter="url(#f1ngr3twkxbsgy)" height="36.2969" rx="12.5" ry="12.5" style="stroke: #999999; stroke-width: 1.5;" width="59" x="49.5" y="138.7607"/><text fill="#555555" font-family="sans-serif" font-size="14" lengthAdjust="spacingAndGlyphs" textLength="39" x="59.5" y="161.7559">Text 1</text><polygon fill="#EEEEEE" filter="url(#f1ngr3twkxbsgy)" points="170,80.2656,243,80.2656,255,92.2656,243,104.2656,170,104.2656,158,92.2656,170,80.2656" style="stroke: #999999; stroke-width: 1.5;"/><text fill="#555555" font-family="sans-serif" font-size="14" lengthAdjust="spacingAndGlyphs" textLength="22" x="210.5" y="117.2607">yes</text><text fill="#555555" font-family="sans-serif" font-size="14" lengthAdjust="spacingAndGlyphs" textLength="73" x="170" y="97.1123">condition B</text><rect fill="#EEEEEE" filter="url(#f1ngr3twkxbsgy)" height="36.2969" rx="12.5" ry="12.5" style="stroke: #999999; stroke-width: 1.5;" width="59" x="177" y="138.7607"/><text fill="#555555" font-family="sans-serif" font-size="14" lengthAdjust="spacingAndGlyphs" textLength="39" x="187" y="161.7559">Text 2</text><ellipse cx="206.5" cy="221.0576" fill="#FFFFFF" filter="url(#f1ngr3twkxbsgy)" rx="11" ry="11" style="stroke: #000000; stroke-width: 1.0;"/><ellipse cx="206.5" cy="221.0576" fill="#000000" rx="6" ry="6" style="stroke: #7F7F7F; stroke-width: 1.0;"/><polygon fill="#EEEEEE" filter="url(#f1ngr3twkxbsgy)" points="287,80.2656,359,80.2656,371,92.2656,359,104.2656,287,104.2656,275,92.2656,287,80.2656" style="stroke: #999999; stroke-width: 1.5;"/><text fill="#555555" font-family="sans-serif" font-size="14" lengthAdjust="spacingAndGlyphs" textLength="22" x="327" y="117.2607">yes</text><text fill="#555555" font-family="sans-serif" font-size="14" lengthAdjust="spacingAndGlyphs" textLength="72" x="287" y="97.1123">condition C</text><rect fill="#EEEEEE" filter="url(#f1ngr3twkxbsgy)" height="36.2969" rx="12.5" ry="12.5" style="stroke: #999999; stroke-width: 1.5;" width="59" x="293.5" y="138.7607"/><text fill="#555555" font-family="sans-serif" font-size="14" lengthAdjust="spacingAndGlyphs" textLength="39" x="303.5" y="161.7559">Text 3</text><polygon fill="#EEEEEE" filter="url(#f1ngr3twkxbsgy)" points="403,80.2656,477,80.2656,489,92.2656,477,104.2656,403,104.2656,391,92.2656,403,80.2656" style="stroke: #999999; stroke-width: 1.5;"/><text fill="#555555" font-family="sans-serif" font-size="14" lengthAdjust="spacingAndGlyphs" textLength="22" x="444" y="117.2607">yes</text><text fill="#555555" font-family="sans-serif" font-size="14" lengthAdjust="spacingAndGlyphs" textLength="74" x="403" y="97.1123">condition D</text><text fill="#555555" font-family="sans-serif" font-size="14" lengthAdjust="spacingAndGlyphs" textLength="48" x="489" y="88.9639">nothing</text><rect fill="#EEEEEE" filter="url(#f1ngr3twkxbsgy)" height="36.2969" rx="12.5" ry="12.5" style="stroke: #999999; stroke-width: 1.5;" width="59" x="410.5" y="138.7607"/><text fill="#555555" font-family="sans-serif" font-size="14" lengthAdjust="spacingAndGlyphs" textLength="39" x="420.5" y="161.7559">Text 4</text><rect fill="#EEEEEE" filter="url(#f1ngr3twkxbsgy)" height="36.2969" rx="12.5" ry="12.5" style="stroke: #999999; stroke-width: 1.5;" width="78" x="509" y="162.1123"/><text fill="#555555" font-family="sans-serif" font-size="14" lengthAdjust="spacingAndGlyphs" textLength="58" x="519" y="185.1074">Text else</text><ellipse cx="303.5" cy="283.0576" fill="#FFFFFF" filter="url(#f1ngr3twkxbsgy)" rx="11" ry="11" style="stroke: #000000; stroke-width: 1.0;"/><ellipse cx="303.5" cy="283.0576" fill="#000000" rx="6" ry="6" style="stroke: #7F7F7F; stroke-width: 1.0;"/><line style="stroke: #000000; stroke-width: 1.5;" x1="206.5" x2="206.5" y1="175.0576" y2="210.0576"/><polygon fill="#000000" points="202.5,200.0576,206.5,210.0576,210.5,200.0576,206.5,204.0576" style="stroke: #000000; stroke-width: 1.0;"/><line style="stroke: #000000; stroke-width: 1.5;" x1="79" x2="79" y1="104.2656" y2="138.7607"/><polygon fill="#000000" points="75,128.7607,79,138.7607,83,128.7607,79,132.7607" style="stroke: #000000; stroke-width: 1.0;"/><line style="stroke: #000000; stroke-width: 1.5;" x1="79" x2="79" y1="175.0576" y2="252.0576"/><polygon fill="#000000" points="75,242.0576,79,252.0576,83,242.0576,79,246.0576" style="stroke: #000000; stroke-width: 1.0;"/><line style="stroke: #000000; stroke-width: 1.5;" x1="206.5" x2="206.5" y1="104.2656" y2="138.7607"/><polygon fill="#000000" points="202.5,128.7607,206.5,138.7607,210.5,128.7607,206.5,132.7607" style="stroke: #000000; stroke-width: 1.0;"/><line style="stroke: #000000; stroke-width: 1.5;" x1="323" x2="323" y1="104.2656" y2="138.7607"/><polygon fill="#000000" points="319,128.7607,323,138.7607,327,128.7607,323,132.7607" style="stroke: #000000; stroke-width: 1.0;"/><line style="stroke: #000000; stroke-width: 1.5;" x1="323" x2="323" y1="175.0576" y2="252.0576"/><polygon fill="#000000" points="319,242.0576,323,252.0576,327,242.0576,323,246.0576" style="stroke: #000000; stroke-width: 1.0;"/><line style="stroke: #000000; stroke-width: 1.5;" x1="440" x2="440" y1="104.2656" y2="138.7607"/><polygon fill="#000000" points="436,128.7607,440,138.7607,444,128.7607,440,132.7607" style="stroke: #000000; stroke-width: 1.0;"/><line style="stroke: #000000; stroke-width: 1.5;" x1="440" x2="440" y1="175.0576" y2="252.0576"/><polygon fill="#000000" points="436,242.0576,440,252.0576,444,242.0576,440,246.0576" style="stroke: #000000; stroke-width: 1.0;"/><line style="stroke: #000000; stroke-width: 1.5;" x1="138" x2="158" y1="92.2656" y2="92.2656"/><polygon fill="#000000" points="148,88.2656,158,92.2656,148,96.2656,152,92.2656" style="stroke: #000000; stroke-width: 1.0;"/><line style="stroke: #000000; stroke-width: 1.5;" x1="255" x2="275" y1="92.2656" y2="92.2656"/><polygon fill="#000000" points="265,88.2656,275,92.2656,265,96.2656,269,92.2656" style="stroke: #000000; stroke-width: 1.0;"/><line style="stroke: #000000; stroke-width: 1.5;" x1="371" x2="391" y1="92.2656" y2="92.2656"/><polygon fill="#000000" points="381,88.2656,391,92.2656,381,96.2656,385,92.2656" style="stroke: #000000; stroke-width: 1.0;"/><line style="stroke: #000000; stroke-width: 1.5;" x1="303.5" x2="303.5" y1="60.2656" y2="65.2656"/><line style="stroke: #000000; stroke-width: 1.5;" x1="303.5" x2="79" y1="65.2656" y2="65.2656"/><line style="stroke: #000000; stroke-width: 1.5;" x1="79" x2="79" y1="65.2656" y2="80.2656"/><polygon fill="#000000" points="75,70.2656,79,80.2656,83,70.2656,79,74.2656" style="stroke: #000000; stroke-width: 1.0;"/><line style="stroke: #000000; stroke-width: 1.5;" x1="489" x2="548" y1="92.2656" y2="92.2656"/><line style="stroke: #000000; stroke-width: 1.5;" x1="548" x2="548" y1="92.2656" y2="162.1123"/><polygon fill="#000000" points="544,152.1123,548,162.1123,552,152.1123,548,156.1123" style="stroke: #000000; stroke-width: 1.0;"/><line style="stroke: #000000; stroke-width: 1.5;" x1="548" x2="548" y1="198.4092" y2="252.0576"/><polygon fill="#000000" points="544,242.0576,548,252.0576,552,242.0576,548,246.0576" style="stroke: #000000; stroke-width: 1.0;"/><line style="stroke: #000000; stroke-width: 1.5;" x1="79" x2="548" y1="252.0576" y2="252.0576"/><line style="stroke: #000000; stroke-width: 1.5;" x1="303.5" x2="303.5" y1="252.0576" y2="272.0576"/><polygon fill="#000000" points="299.5,262.0576,303.5,272.0576,307.5,262.0576,303.5,266.0576" style="stroke: #000000; stroke-width: 1.0;"/><text fill="#999999" font-family="sans-serif" font-size="10" lengthAdjust="spacingAndGlyphs" textLength="39" x="547" y="302.3398">mawatari</text><text fill="#999999" font-family="sans-serif" font-size="10" lengthAdjust="spacingAndGlyphs" textLength="167" x="419" y="313.9805">Last modified: 2020/02/23 08:38:23 GMT</text><!--MD5=[13701f9e73979fc714fc892d4f8162cf]
@startuml
skinparam {
  BoxPadding 5
  ParticipantPadding 10
}
skinparam default {
  FontColor #555555
  FontSize 14
}
skinparam Header {
  FontColor #D7A72D
  FontSize 10
}
skinparam Footer {
  FontColor #999999
  FontSize 10
}
skinparam Title {
  FontSize 16
}

skinparam Actor {
  BackgroundColor #eeeeee
  BorderColor #999999
}

skinparam note {
  FontStyle bold
  FontColor #ffffff
  BackgroundColor #7f8c8d
  BorderColor #7f8c8d
}

skinparam activity {
  ArrowColor #000000
  BackgroundColor #eeeeee
  BorderColor #999999
  StartColor #000000
  EndColor #000000
  BarColor #000000

  DiamondBackgroundColor #eeeeee
  DiamondBorderColor #999999
}
right header confidential
right footer mawatari\nLast modified: 2020/02/23 08:38:23 GMT
title example project1 activity-diagram.puml

start
if (condition Aaaa) then (yes)
  :Text 1;
elseif (condition B) then (yes)
  :Text 2;
  stop
elseif (condition C) then (yes)
  :Text 3;
elseif (condition D) then (yes)
  :Text 4;
else (nothing)
  :Text else;
endif
stop
@enduml

PlantUML version 1.2020.01(Sun Feb 16 17:40:32 GMT 2020)
(GPL source distribution)
Java Runtime: OpenJDK Runtime Environment
JVM: OpenJDK 64-Bit Server VM
Java Version: 11.0.5+10-alpine-r0
Operating System: Linux
Default Encoding: UTF-8
Language: en
Country: US
--></g></svg>