<?xml version="1.0" encoding="UTF-8" standalone="no"?><svg xmlns="http://www.w3.org/2000/svg" xmlns:xlink="http://www.w3.org/1999/xlink" contentScriptType="application/ecmascript" contentStyleType="text/css" height="286px" preserveAspectRatio="none" style="width:577px;height:286px;" version="1.1" viewBox="0 0 577 286" width="577px" zoomAndPan="magnify"><defs><filter height="300%" id="ftcus3umlgidv" width="300%" x="-1" y="-1"><feGaussianBlur result="blurOut" stdDeviation="2.0"/><feColorMatrix in="blurOut" result="blurOut2" type="matrix" values="0 0 0 0 0 0 0 0 0 0 0 0 0 0 0 0 0 0 .4 0"/><feOffset dx="4.0" dy="4.0" in="blurOut2" result="blurOut3"/><feBlend in="SourceGraphic" in2="blurOut3" mode="normal"/></filter></defs><g><text fill="#999999" font-family="sans-serif" font-size="10" lengthAdjust="spacingAndGlyphs" textLength="182" x="383" y="19.2822">LastModified: Sat Feb 22 02:00:43 UTC 2020</text><ellipse cx="293" cy="31.6406" fill="#000000" filter="url(#ftcus3umlgidv)" rx="10" ry="10" style="stroke: none; stroke-width: 1.0;"/><polygon fill="#EEEEEE" filter="url(#ftcus3umlgidv)" points="32,61.6406,105,61.6406,117,73.6406,105,85.6406,32,85.6406,20,73.6406,32,61.6406" style="stroke: #999999; stroke-width: 1.5;"/><text fill="#555555" font-family="sans-serif" font-size="14" lengthAdjust="spacingAndGlyphs" textLength="22" x="72.5" y="98.6357">yes</text><text fill="#555555" font-family="sans-serif" font-size="14" lengthAdjust="spacingAndGlyphs" textLength="73" x="32" y="78.4873">condition A</text><rect fill="#EEEEEE" filter="url(#ftcus3umlgidv)" height="36.2969" rx="12.5" ry="12.5" style="stroke: #999999; stroke-width: 1.5;" width="59" x="39" y="120.1357"/><text fill="#555555" font-family="sans-serif" font-size="14" lengthAdjust="spacingAndGlyphs" textLength="39" x="49" y="143.1309">Text 1</text><polygon fill="#EEEEEE" filter="url(#ftcus3umlgidv)" points="149,61.6406,222,61.6406,234,73.6406,222,85.6406,149,85.6406,137,73.6406,149,61.6406" style="stroke: #999999; stroke-width: 1.5;"/><text fill="#555555" font-family="sans-serif" font-size="14" lengthAdjust="spacingAndGlyphs" textLength="22" x="189.5" y="98.6357">yes</text><text fill="#555555" font-family="sans-serif" font-size="14" lengthAdjust="spacingAndGlyphs" textLength="73" x="149" y="78.4873">condition B</text><rect fill="#EEEEEE" filter="url(#ftcus3umlgidv)" height="36.2969" rx="12.5" ry="12.5" style="stroke: #999999; stroke-width: 1.5;" width="59" x="156" y="120.1357"/><text fill="#555555" font-family="sans-serif" font-size="14" lengthAdjust="spacingAndGlyphs" textLength="39" x="166" y="143.1309">Text 2</text><ellipse cx="185.5" cy="202.4326" fill="#FFFFFF" filter="url(#ftcus3umlgidv)" rx="11" ry="11" style="stroke: #000000; stroke-width: 1.0;"/><ellipse cx="185.5" cy="202.4326" fill="#000000" rx="6" ry="6" style="stroke: #7F7F7F; stroke-width: 1.0;"/><polygon fill="#EEEEEE" filter="url(#ftcus3umlgidv)" points="266,61.6406,338,61.6406,350,73.6406,338,85.6406,266,85.6406,254,73.6406,266,61.6406" style="stroke: #999999; stroke-width: 1.5;"/><text fill="#555555" font-family="sans-serif" font-size="14" lengthAdjust="spacingAndGlyphs" textLength="22" x="306" y="98.6357">yes</text><text fill="#555555" font-family="sans-serif" font-size="14" lengthAdjust="spacingAndGlyphs" textLength="72" x="266" y="78.4873">condition C</text><rect fill="#EEEEEE" filter="url(#ftcus3umlgidv)" height="36.2969" rx="12.5" ry="12.5" style="stroke: #999999; stroke-width: 1.5;" width="59" x="272.5" y="120.1357"/><text fill="#555555" font-family="sans-serif" font-size="14" lengthAdjust="spacingAndGlyphs" textLength="39" x="282.5" y="143.1309">Text 3</text><polygon fill="#EEEEEE" filter="url(#ftcus3umlgidv)" points="382,61.6406,456,61.6406,468,73.6406,456,85.6406,382,85.6406,370,73.6406,382,61.6406" style="stroke: #999999; stroke-width: 1.5;"/><text fill="#555555" font-family="sans-serif" font-size="14" lengthAdjust="spacingAndGlyphs" textLength="22" x="423" y="98.6357">yes</text><text fill="#555555" font-family="sans-serif" font-size="14" lengthAdjust="spacingAndGlyphs" textLength="74" x="382" y="78.4873">condition D</text><text fill="#555555" font-family="sans-serif" font-size="14" lengthAdjust="spacingAndGlyphs" textLength="48" x="468" y="70.3389">nothing</text><rect fill="#EEEEEE" filter="url(#ftcus3umlgidv)" height="36.2969" rx="12.5" ry="12.5" style="stroke: #999999; stroke-width: 1.5;" width="59" x="389.5" y="120.1357"/><text fill="#555555" font-family="sans-serif" font-size="14" lengthAdjust="spacingAndGlyphs" textLength="39" x="399.5" y="143.1309">Text 4</text><rect fill="#EEEEEE" filter="url(#ftcus3umlgidv)" height="36.2969" rx="12.5" ry="12.5" style="stroke: #999999; stroke-width: 1.5;" width="78" x="488" y="143.4873"/><text fill="#555555" font-family="sans-serif" font-size="14" lengthAdjust="spacingAndGlyphs" textLength="58" x="498" y="166.4824">Text else</text><ellipse cx="293" cy="264.4326" fill="#FFFFFF" filter="url(#ftcus3umlgidv)" rx="11" ry="11" style="stroke: #000000; stroke-width: 1.0;"/><ellipse cx="293" cy="264.4326" fill="#000000" rx="6" ry="6" style="stroke: #7F7F7F; stroke-width: 1.0;"/><line style="stroke: #000000; stroke-width: 1.5;" x1="185.5" x2="185.5" y1="156.4326" y2="191.4326"/><polygon fill="#000000" points="181.5,181.4326,185.5,191.4326,189.5,181.4326,185.5,185.4326" style="stroke: #000000; stroke-width: 1.0;"/><line style="stroke: #000000; stroke-width: 1.5;" x1="68.5" x2="68.5" y1="85.6406" y2="120.1357"/><polygon fill="#000000" points="64.5,110.1357,68.5,120.1357,72.5,110.1357,68.5,114.1357" style="stroke: #000000; stroke-width: 1.0;"/><line style="stroke: #000000; stroke-width: 1.5;" x1="68.5" x2="68.5" y1="156.4326" y2="233.4326"/><polygon fill="#000000" points="64.5,223.4326,68.5,233.4326,72.5,223.4326,68.5,227.4326" style="stroke: #000000; stroke-width: 1.0;"/><line style="stroke: #000000; stroke-width: 1.5;" x1="185.5" x2="185.5" y1="85.6406" y2="120.1357"/><polygon fill="#000000" points="181.5,110.1357,185.5,120.1357,189.5,110.1357,185.5,114.1357" style="stroke: #000000; stroke-width: 1.0;"/><line style="stroke: #000000; stroke-width: 1.5;" x1="302" x2="302" y1="85.6406" y2="120.1357"/><polygon fill="#000000" points="298,110.1357,302,120.1357,306,110.1357,302,114.1357" style="stroke: #000000; stroke-width: 1.0;"/><line style="stroke: #000000; stroke-width: 1.5;" x1="302" x2="302" y1="156.4326" y2="233.4326"/><polygon fill="#000000" points="298,223.4326,302,233.4326,306,223.4326,302,227.4326" style="stroke: #000000; stroke-width: 1.0;"/><line style="stroke: #000000; stroke-width: 1.5;" x1="419" x2="419" y1="85.6406" y2="120.1357"/><polygon fill="#000000" points="415,110.1357,419,120.1357,423,110.1357,419,114.1357" style="stroke: #000000; stroke-width: 1.0;"/><line style="stroke: #000000; stroke-width: 1.5;" x1="419" x2="419" y1="156.4326" y2="233.4326"/><polygon fill="#000000" points="415,223.4326,419,233.4326,423,223.4326,419,227.4326" style="stroke: #000000; stroke-width: 1.0;"/><line style="stroke: #000000; stroke-width: 1.5;" x1="117" x2="137" y1="73.6406" y2="73.6406"/><polygon fill="#000000" points="127,69.6406,137,73.6406,127,77.6406,131,73.6406" style="stroke: #000000; stroke-width: 1.0;"/><line style="stroke: #000000; stroke-width: 1.5;" x1="234" x2="254" y1="73.6406" y2="73.6406"/><polygon fill="#000000" points="244,69.6406,254,73.6406,244,77.6406,248,73.6406" style="stroke: #000000; stroke-width: 1.0;"/><line style="stroke: #000000; stroke-width: 1.5;" x1="350" x2="370" y1="73.6406" y2="73.6406"/><polygon fill="#000000" points="360,69.6406,370,73.6406,360,77.6406,364,73.6406" style="stroke: #000000; stroke-width: 1.0;"/><line style="stroke: #000000; stroke-width: 1.5;" x1="293" x2="293" y1="41.6406" y2="46.6406"/><line style="stroke: #000000; stroke-width: 1.5;" x1="293" x2="68.5" y1="46.6406" y2="46.6406"/><line style="stroke: #000000; stroke-width: 1.5;" x1="68.5" x2="68.5" y1="46.6406" y2="61.6406"/><polygon fill="#000000" points="64.5,51.6406,68.5,61.6406,72.5,51.6406,68.5,55.6406" style="stroke: #000000; stroke-width: 1.0;"/><line style="stroke: #000000; stroke-width: 1.5;" x1="468" x2="527" y1="73.6406" y2="73.6406"/><line style="stroke: #000000; stroke-width: 1.5;" x1="527" x2="527" y1="73.6406" y2="143.4873"/><polygon fill="#000000" points="523,133.4873,527,143.4873,531,133.4873,527,137.4873" style="stroke: #000000; stroke-width: 1.0;"/><line style="stroke: #000000; stroke-width: 1.5;" x1="527" x2="527" y1="179.7842" y2="233.4326"/><polygon fill="#000000" points="523,223.4326,527,233.4326,531,223.4326,527,227.4326" style="stroke: #000000; stroke-width: 1.0;"/><line style="stroke: #000000; stroke-width: 1.5;" x1="68.5" x2="527" y1="233.4326" y2="233.4326"/><line style="stroke: #000000; stroke-width: 1.5;" x1="293" x2="293" y1="233.4326" y2="253.4326"/><polygon fill="#000000" points="289,243.4326,293,253.4326,297,243.4326,293,247.4326" style="stroke: #000000; stroke-width: 1.0;"/><!--MD5=[649f0892fc8fed1a1b420f2afc39af89]
@startuml
skinparam {
  BoxPadding 5
  ParticipantPadding 10
}
skinparam default {
  FontColor #555555
  FontSize 14
}

skinparam note {
	FontStyle bold
	FontColor #ffffff
	BackgroundColor #7f8c8d
	BorderColor #7f8c8d
}

skinparam activity {
	ArrowColor #000000
	BackgroundColor #eeeeee
	BorderColor #999999
	StartColor #000000
	EndColor #000000
	BarColor #000000

  DiamondBackgroundColor #eeeeee
  DiamondBorderColor #999999
}
right header <size:10><color:#999999> LastModified: Sat Feb 22 02:00:43 UTC 2020

start
if (condition A) then (yes)
  :Text 1;
elseif (condition B) then (yes)
  :Text 2;
  stop
elseif (condition C) then (yes)
  :Text 3;
elseif (condition D) then (yes)
  :Text 4;
else (nothing)
  :Text else;
endif
stop
@enduml

PlantUML version 1.2020.01(Sun Feb 16 17:40:32 GMT 2020)
(GPL source distribution)
Java Runtime: OpenJDK Runtime Environment
JVM: OpenJDK 64-Bit Server VM
Java Version: 11.0.5+10-alpine-r0
Operating System: Linux
Default Encoding: UTF-8
Language: en
Country: US
--></g></svg>