<?xml version="1.0" encoding="UTF-8" standalone="no"?><svg xmlns="http://www.w3.org/2000/svg" xmlns:xlink="http://www.w3.org/1999/xlink" contentScriptType="application/ecmascript" contentStyleType="text/css" height="269px" preserveAspectRatio="none" style="width:496px;height:269px;" version="1.1" viewBox="0 0 496 269" width="496px" zoomAndPan="magnify"><defs><filter height="300%" id="fturk7cpfltcn" width="300%" x="-1" y="-1"><feGaussianBlur result="blurOut" stdDeviation="2.0"/><feColorMatrix in="blurOut" result="blurOut2" type="matrix" values="0 0 0 0 0 0 0 0 0 0 0 0 0 0 0 0 0 0 .4 0"/><feOffset dx="4.0" dy="4.0" in="blurOut2" result="blurOut3"/><feBlend in="SourceGraphic" in2="blurOut3" mode="normal"/></filter></defs><g><ellipse cx="252.5" cy="20" fill="#000000" filter="url(#fturk7cpfltcn)" rx="10" ry="10" style="stroke: none; stroke-width: 1.0;"/><polygon fill="#F8F8F8" filter="url(#fturk7cpfltcn)" points="32,50,91,50,103,62,91,74,32,74,20,62,32,50" style="stroke: #383838; stroke-width: 1.5;"/><text fill="#000000" font-family="sans-serif" font-size="11" lengthAdjust="spacingAndGlyphs" textLength="17" x="65.5" y="84.2104">yes</text><text fill="#000000" font-family="sans-serif" font-size="11" lengthAdjust="spacingAndGlyphs" textLength="59" x="32" y="65.8081">condition Aa</text><rect fill="#F8F8F8" filter="url(#fturk7cpfltcn)" height="33.9688" rx="12.5" ry="12.5" style="stroke: #383838; stroke-width: 1.5;" width="54" x="34.5" y="105.7104"/><text fill="#000000" font-family="sans-serif" font-size="12" lengthAdjust="spacingAndGlyphs" textLength="34" x="44.5" y="126.8491">Text 1</text><polygon fill="#F8F8F8" filter="url(#fturk7cpfltcn)" points="135,50,188,50,200,62,188,74,135,74,123,62,135,50" style="stroke: #383838; stroke-width: 1.5;"/><text fill="#000000" font-family="sans-serif" font-size="11" lengthAdjust="spacingAndGlyphs" textLength="17" x="165.5" y="84.2104">yes</text><text fill="#000000" font-family="sans-serif" font-size="11" lengthAdjust="spacingAndGlyphs" textLength="53" x="135" y="65.8081">condition B</text><rect fill="#F8F8F8" filter="url(#fturk7cpfltcn)" height="33.9688" rx="12.5" ry="12.5" style="stroke: #383838; stroke-width: 1.5;" width="54" x="134.5" y="105.7104"/><text fill="#000000" font-family="sans-serif" font-size="12" lengthAdjust="spacingAndGlyphs" textLength="34" x="144.5" y="126.8491">Text 2</text><ellipse cx="161.5" cy="185.6792" fill="#FFFFFF" filter="url(#fturk7cpfltcn)" rx="11" ry="11" style="stroke: #000000; stroke-width: 1.0;"/><ellipse cx="161.5" cy="185.6792" fill="#000000" rx="6" ry="6" style="stroke: #7F7F7F; stroke-width: 1.0;"/><polygon fill="#F8F8F8" filter="url(#fturk7cpfltcn)" points="232,50,285,50,297,62,285,74,232,74,220,62,232,50" style="stroke: #383838; stroke-width: 1.5;"/><text fill="#000000" font-family="sans-serif" font-size="11" lengthAdjust="spacingAndGlyphs" textLength="17" x="262.5" y="84.2104">yes</text><text fill="#000000" font-family="sans-serif" font-size="11" lengthAdjust="spacingAndGlyphs" textLength="53" x="232" y="65.8081">condition C</text><rect fill="#F8F8F8" filter="url(#fturk7cpfltcn)" height="33.9688" rx="12.5" ry="12.5" style="stroke: #383838; stroke-width: 1.5;" width="54" x="231.5" y="105.7104"/><text fill="#000000" font-family="sans-serif" font-size="12" lengthAdjust="spacingAndGlyphs" textLength="34" x="241.5" y="126.8491">Text 3</text><polygon fill="#F8F8F8" filter="url(#fturk7cpfltcn)" points="329,50,383,50,395,62,383,74,329,74,317,62,329,50" style="stroke: #383838; stroke-width: 1.5;"/><text fill="#000000" font-family="sans-serif" font-size="11" lengthAdjust="spacingAndGlyphs" textLength="17" x="360" y="84.2104">yes</text><text fill="#000000" font-family="sans-serif" font-size="11" lengthAdjust="spacingAndGlyphs" textLength="54" x="329" y="65.8081">condition D</text><text fill="#000000" font-family="sans-serif" font-size="11" lengthAdjust="spacingAndGlyphs" textLength="36" x="395" y="59.4058">nothing</text><rect fill="#F8F8F8" filter="url(#fturk7cpfltcn)" height="33.9688" rx="12.5" ry="12.5" style="stroke: #383838; stroke-width: 1.5;" width="54" x="329" y="105.7104"/><text fill="#000000" font-family="sans-serif" font-size="12" lengthAdjust="spacingAndGlyphs" textLength="34" x="339" y="126.8491">Text 4</text><rect fill="#F8F8F8" filter="url(#fturk7cpfltcn)" height="33.9688" rx="12.5" ry="12.5" style="stroke: #383838; stroke-width: 1.5;" width="70" x="415" y="130.8081"/><text fill="#000000" font-family="sans-serif" font-size="12" lengthAdjust="spacingAndGlyphs" textLength="50" x="425" y="151.9468">Text else</text><ellipse cx="252.5" cy="247.6792" fill="#FFFFFF" filter="url(#fturk7cpfltcn)" rx="11" ry="11" style="stroke: #000000; stroke-width: 1.0;"/><ellipse cx="252.5" cy="247.6792" fill="#000000" rx="6" ry="6" style="stroke: #7F7F7F; stroke-width: 1.0;"/><line style="stroke: #383838; stroke-width: 1.5;" x1="161.5" x2="161.5" y1="139.6792" y2="174.6792"/><polygon fill="#383838" points="157.5,164.6792,161.5,174.6792,165.5,164.6792,161.5,168.6792" style="stroke: #383838; stroke-width: 1.0;"/><line style="stroke: #383838; stroke-width: 1.5;" x1="61.5" x2="61.5" y1="74" y2="105.7104"/><polygon fill="#383838" points="57.5,95.7104,61.5,105.7104,65.5,95.7104,61.5,99.7104" style="stroke: #383838; stroke-width: 1.0;"/><line style="stroke: #383838; stroke-width: 1.5;" x1="61.5" x2="61.5" y1="139.6792" y2="216.6792"/><polygon fill="#383838" points="57.5,206.6792,61.5,216.6792,65.5,206.6792,61.5,210.6792" style="stroke: #383838; stroke-width: 1.0;"/><line style="stroke: #383838; stroke-width: 1.5;" x1="161.5" x2="161.5" y1="74" y2="105.7104"/><polygon fill="#383838" points="157.5,95.7104,161.5,105.7104,165.5,95.7104,161.5,99.7104" style="stroke: #383838; stroke-width: 1.0;"/><line style="stroke: #383838; stroke-width: 1.5;" x1="258.5" x2="258.5" y1="74" y2="105.7104"/><polygon fill="#383838" points="254.5,95.7104,258.5,105.7104,262.5,95.7104,258.5,99.7104" style="stroke: #383838; stroke-width: 1.0;"/><line style="stroke: #383838; stroke-width: 1.5;" x1="258.5" x2="258.5" y1="139.6792" y2="216.6792"/><polygon fill="#383838" points="254.5,206.6792,258.5,216.6792,262.5,206.6792,258.5,210.6792" style="stroke: #383838; stroke-width: 1.0;"/><line style="stroke: #383838; stroke-width: 1.5;" x1="356" x2="356" y1="74" y2="105.7104"/><polygon fill="#383838" points="352,95.7104,356,105.7104,360,95.7104,356,99.7104" style="stroke: #383838; stroke-width: 1.0;"/><line style="stroke: #383838; stroke-width: 1.5;" x1="356" x2="356" y1="139.6792" y2="216.6792"/><polygon fill="#383838" points="352,206.6792,356,216.6792,360,206.6792,356,210.6792" style="stroke: #383838; stroke-width: 1.0;"/><line style="stroke: #383838; stroke-width: 1.5;" x1="103" x2="123" y1="62" y2="62"/><polygon fill="#383838" points="113,58,123,62,113,66,117,62" style="stroke: #383838; stroke-width: 1.0;"/><line style="stroke: #383838; stroke-width: 1.5;" x1="200" x2="220" y1="62" y2="62"/><polygon fill="#383838" points="210,58,220,62,210,66,214,62" style="stroke: #383838; stroke-width: 1.0;"/><line style="stroke: #383838; stroke-width: 1.5;" x1="297" x2="317" y1="62" y2="62"/><polygon fill="#383838" points="307,58,317,62,307,66,311,62" style="stroke: #383838; stroke-width: 1.0;"/><line style="stroke: #383838; stroke-width: 1.5;" x1="252.5" x2="252.5" y1="30" y2="35"/><line style="stroke: #383838; stroke-width: 1.5;" x1="252.5" x2="61.5" y1="35" y2="35"/><line style="stroke: #383838; stroke-width: 1.5;" x1="61.5" x2="61.5" y1="35" y2="50"/><polygon fill="#383838" points="57.5,40,61.5,50,65.5,40,61.5,44" style="stroke: #383838; stroke-width: 1.0;"/><line style="stroke: #383838; stroke-width: 1.5;" x1="395" x2="450" y1="62" y2="62"/><line style="stroke: #383838; stroke-width: 1.5;" x1="450" x2="450" y1="62" y2="130.8081"/><polygon fill="#383838" points="446,120.8081,450,130.8081,454,120.8081,450,124.8081" style="stroke: #383838; stroke-width: 1.0;"/><line style="stroke: #383838; stroke-width: 1.5;" x1="450" x2="450" y1="164.7769" y2="216.6792"/><polygon fill="#383838" points="446,206.6792,450,216.6792,454,206.6792,450,210.6792" style="stroke: #383838; stroke-width: 1.0;"/><line style="stroke: #383838; stroke-width: 1.5;" x1="61.5" x2="450" y1="216.6792" y2="216.6792"/><line style="stroke: #383838; stroke-width: 1.5;" x1="252.5" x2="252.5" y1="216.6792" y2="236.6792"/><polygon fill="#383838" points="248.5,226.6792,252.5,236.6792,256.5,226.6792,252.5,230.6792" style="stroke: #383838; stroke-width: 1.0;"/><!--MD5=[276969bb9f4b48832f8c97f8a2ace374]
@startuml
skinparam monochrome true

start
if (condition Aa) then (yes)
  :Text 1;
elseif (condition B) then (yes)
  :Text 2;
  stop
elseif (condition C) then (yes)
  :Text 3;
elseif (condition D) then (yes)
  :Text 4;
else (nothing)
  :Text else;
endif
stop
@enduml

PlantUML version 1.2020.01(Sun Feb 16 17:40:32 GMT 2020)
(GPL source distribution)
Java Runtime: OpenJDK Runtime Environment
JVM: OpenJDK 64-Bit Server VM
Java Version: 11.0.5+10-alpine-r0
Operating System: Linux
Default Encoding: UTF-8
Language: en
Country: US
--></g></svg>