<?xml version="1.0" encoding="UTF-8" standalone="no"?><svg xmlns="http://www.w3.org/2000/svg" xmlns:xlink="http://www.w3.org/1999/xlink" contentScriptType="application/ecmascript" contentStyleType="text/css" height="274px" preserveAspectRatio="none" style="width:593px;height:274px;" version="1.1" viewBox="0 0 593 274" width="593px" zoomAndPan="magnify"><defs><filter height="300%" id="f1o9we0n4lkjko" width="300%" x="-1" y="-1"><feGaussianBlur result="blurOut" stdDeviation="2.0"/><feColorMatrix in="blurOut" result="blurOut2" type="matrix" values="0 0 0 0 0 0 0 0 0 0 0 0 0 0 0 0 0 0 .4 0"/><feOffset dx="4.0" dy="4.0" in="blurOut2" result="blurOut3"/><feBlend in="SourceGraphic" in2="blurOut3" mode="normal"/></filter></defs><g><ellipse cx="301" cy="20" fill="#000000" filter="url(#f1o9we0n4lkjko)" rx="10" ry="10" style="stroke: none; stroke-width: 1.0;"/><polygon fill="#EEEEEE" filter="url(#f1o9we0n4lkjko)" points="32,50,121,50,133,62,121,74,32,74,20,62,32,50" style="stroke: #999999; stroke-width: 1.5;"/><text fill="#555555" font-family="sans-serif" font-size="14" lengthAdjust="spacingAndGlyphs" textLength="22" x="80.5" y="86.9951">yes</text><text fill="#555555" font-family="sans-serif" font-size="14" lengthAdjust="spacingAndGlyphs" textLength="89" x="32" y="66.8467">condition AaA</text><rect fill="#EEEEEE" filter="url(#f1o9we0n4lkjko)" height="36.2969" rx="12.5" ry="12.5" style="stroke: #999999; stroke-width: 1.5;" width="59" x="47" y="108.4951"/><text fill="#555555" font-family="sans-serif" font-size="14" lengthAdjust="spacingAndGlyphs" textLength="39" x="57" y="131.4902">Text 1</text><polygon fill="#EEEEEE" filter="url(#f1o9we0n4lkjko)" points="165,50,238,50,250,62,238,74,165,74,153,62,165,50" style="stroke: #999999; stroke-width: 1.5;"/><text fill="#555555" font-family="sans-serif" font-size="14" lengthAdjust="spacingAndGlyphs" textLength="22" x="205.5" y="86.9951">yes</text><text fill="#555555" font-family="sans-serif" font-size="14" lengthAdjust="spacingAndGlyphs" textLength="73" x="165" y="66.8467">condition B</text><rect fill="#EEEEEE" filter="url(#f1o9we0n4lkjko)" height="36.2969" rx="12.5" ry="12.5" style="stroke: #999999; stroke-width: 1.5;" width="59" x="172" y="108.4951"/><text fill="#555555" font-family="sans-serif" font-size="14" lengthAdjust="spacingAndGlyphs" textLength="39" x="182" y="131.4902">Text 2</text><ellipse cx="201.5" cy="190.792" fill="#FFFFFF" filter="url(#f1o9we0n4lkjko)" rx="11" ry="11" style="stroke: #000000; stroke-width: 1.0;"/><ellipse cx="201.5" cy="190.792" fill="#000000" rx="6" ry="6" style="stroke: #7F7F7F; stroke-width: 1.0;"/><polygon fill="#EEEEEE" filter="url(#f1o9we0n4lkjko)" points="282,50,354,50,366,62,354,74,282,74,270,62,282,50" style="stroke: #999999; stroke-width: 1.5;"/><text fill="#555555" font-family="sans-serif" font-size="14" lengthAdjust="spacingAndGlyphs" textLength="22" x="322" y="86.9951">yes</text><text fill="#555555" font-family="sans-serif" font-size="14" lengthAdjust="spacingAndGlyphs" textLength="72" x="282" y="66.8467">condition C</text><rect fill="#EEEEEE" filter="url(#f1o9we0n4lkjko)" height="36.2969" rx="12.5" ry="12.5" style="stroke: #999999; stroke-width: 1.5;" width="59" x="288.5" y="108.4951"/><text fill="#555555" font-family="sans-serif" font-size="14" lengthAdjust="spacingAndGlyphs" textLength="39" x="298.5" y="131.4902">Text 3</text><polygon fill="#EEEEEE" filter="url(#f1o9we0n4lkjko)" points="398,50,472,50,484,62,472,74,398,74,386,62,398,50" style="stroke: #999999; stroke-width: 1.5;"/><text fill="#555555" font-family="sans-serif" font-size="14" lengthAdjust="spacingAndGlyphs" textLength="22" x="439" y="86.9951">yes</text><text fill="#555555" font-family="sans-serif" font-size="14" lengthAdjust="spacingAndGlyphs" textLength="74" x="398" y="66.8467">condition D</text><text fill="#555555" font-family="sans-serif" font-size="14" lengthAdjust="spacingAndGlyphs" textLength="48" x="484" y="58.6982">nothing</text><rect fill="#EEEEEE" filter="url(#f1o9we0n4lkjko)" height="36.2969" rx="12.5" ry="12.5" style="stroke: #999999; stroke-width: 1.5;" width="59" x="405.5" y="108.4951"/><text fill="#555555" font-family="sans-serif" font-size="14" lengthAdjust="spacingAndGlyphs" textLength="39" x="415.5" y="131.4902">Text 4</text><rect fill="#EEEEEE" filter="url(#f1o9we0n4lkjko)" height="36.2969" rx="12.5" ry="12.5" style="stroke: #999999; stroke-width: 1.5;" width="78" x="504" y="131.8467"/><text fill="#555555" font-family="sans-serif" font-size="14" lengthAdjust="spacingAndGlyphs" textLength="58" x="514" y="154.8418">Text else</text><ellipse cx="301" cy="252.792" fill="#FFFFFF" filter="url(#f1o9we0n4lkjko)" rx="11" ry="11" style="stroke: #000000; stroke-width: 1.0;"/><ellipse cx="301" cy="252.792" fill="#000000" rx="6" ry="6" style="stroke: #7F7F7F; stroke-width: 1.0;"/><line style="stroke: #000000; stroke-width: 1.5;" x1="201.5" x2="201.5" y1="144.792" y2="179.792"/><polygon fill="#000000" points="197.5,169.792,201.5,179.792,205.5,169.792,201.5,173.792" style="stroke: #000000; stroke-width: 1.0;"/><line style="stroke: #000000; stroke-width: 1.5;" x1="76.5" x2="76.5" y1="74" y2="108.4951"/><polygon fill="#000000" points="72.5,98.4951,76.5,108.4951,80.5,98.4951,76.5,102.4951" style="stroke: #000000; stroke-width: 1.0;"/><line style="stroke: #000000; stroke-width: 1.5;" x1="76.5" x2="76.5" y1="144.792" y2="221.792"/><polygon fill="#000000" points="72.5,211.792,76.5,221.792,80.5,211.792,76.5,215.792" style="stroke: #000000; stroke-width: 1.0;"/><line style="stroke: #000000; stroke-width: 1.5;" x1="201.5" x2="201.5" y1="74" y2="108.4951"/><polygon fill="#000000" points="197.5,98.4951,201.5,108.4951,205.5,98.4951,201.5,102.4951" style="stroke: #000000; stroke-width: 1.0;"/><line style="stroke: #000000; stroke-width: 1.5;" x1="318" x2="318" y1="74" y2="108.4951"/><polygon fill="#000000" points="314,98.4951,318,108.4951,322,98.4951,318,102.4951" style="stroke: #000000; stroke-width: 1.0;"/><line style="stroke: #000000; stroke-width: 1.5;" x1="318" x2="318" y1="144.792" y2="221.792"/><polygon fill="#000000" points="314,211.792,318,221.792,322,211.792,318,215.792" style="stroke: #000000; stroke-width: 1.0;"/><line style="stroke: #000000; stroke-width: 1.5;" x1="435" x2="435" y1="74" y2="108.4951"/><polygon fill="#000000" points="431,98.4951,435,108.4951,439,98.4951,435,102.4951" style="stroke: #000000; stroke-width: 1.0;"/><line style="stroke: #000000; stroke-width: 1.5;" x1="435" x2="435" y1="144.792" y2="221.792"/><polygon fill="#000000" points="431,211.792,435,221.792,439,211.792,435,215.792" style="stroke: #000000; stroke-width: 1.0;"/><line style="stroke: #000000; stroke-width: 1.5;" x1="133" x2="153" y1="62" y2="62"/><polygon fill="#000000" points="143,58,153,62,143,66,147,62" style="stroke: #000000; stroke-width: 1.0;"/><line style="stroke: #000000; stroke-width: 1.5;" x1="250" x2="270" y1="62" y2="62"/><polygon fill="#000000" points="260,58,270,62,260,66,264,62" style="stroke: #000000; stroke-width: 1.0;"/><line style="stroke: #000000; stroke-width: 1.5;" x1="366" x2="386" y1="62" y2="62"/><polygon fill="#000000" points="376,58,386,62,376,66,380,62" style="stroke: #000000; stroke-width: 1.0;"/><line style="stroke: #000000; stroke-width: 1.5;" x1="301" x2="301" y1="30" y2="35"/><line style="stroke: #000000; stroke-width: 1.5;" x1="301" x2="76.5" y1="35" y2="35"/><line style="stroke: #000000; stroke-width: 1.5;" x1="76.5" x2="76.5" y1="35" y2="50"/><polygon fill="#000000" points="72.5,40,76.5,50,80.5,40,76.5,44" style="stroke: #000000; stroke-width: 1.0;"/><line style="stroke: #000000; stroke-width: 1.5;" x1="484" x2="543" y1="62" y2="62"/><line style="stroke: #000000; stroke-width: 1.5;" x1="543" x2="543" y1="62" y2="131.8467"/><polygon fill="#000000" points="539,121.8467,543,131.8467,547,121.8467,543,125.8467" style="stroke: #000000; stroke-width: 1.0;"/><line style="stroke: #000000; stroke-width: 1.5;" x1="543" x2="543" y1="168.1436" y2="221.792"/><polygon fill="#000000" points="539,211.792,543,221.792,547,211.792,543,215.792" style="stroke: #000000; stroke-width: 1.0;"/><line style="stroke: #000000; stroke-width: 1.5;" x1="76.5" x2="543" y1="221.792" y2="221.792"/><line style="stroke: #000000; stroke-width: 1.5;" x1="301" x2="301" y1="221.792" y2="241.792"/><polygon fill="#000000" points="297,231.792,301,241.792,305,231.792,301,235.792" style="stroke: #000000; stroke-width: 1.0;"/><!--MD5=[d94a36b990b1caa4c9bae2cc8ea9ed9f]
@startuml
skinparam {
  BoxPadding 5
  ParticipantPadding 10
}
skinparam default {
  FontColor #555555
  FontSize 14
}

skinparam note {
	FontStyle bold
	FontColor #ffffff
	BackgroundColor #7f8c8d
	BorderColor #7f8c8d
}

skinparam activity {
	ArrowColor #000000
	BackgroundColor #eeeeee
	BorderColor #999999
	StartColor #000000
	EndColor #000000
	BarColor #000000

  DiamondBackgroundColor #eeeeee
  DiamondBorderColor #999999
}

start
if (condition AaA) then (yes)
  :Text 1;
elseif (condition B) then (yes)
  :Text 2;
  stop
elseif (condition C) then (yes)
  :Text 3;
elseif (condition D) then (yes)
  :Text 4;
else (nothing)
  :Text else;
endif
stop
@enduml

PlantUML version 1.2020.01(Sun Feb 16 17:40:32 GMT 2020)
(GPL source distribution)
Java Runtime: OpenJDK Runtime Environment
JVM: OpenJDK 64-Bit Server VM
Java Version: 11.0.5+10-alpine-r0
Operating System: Linux
Default Encoding: UTF-8
Language: en
Country: US
--></g></svg>