<?xml version="1.0" encoding="UTF-8" standalone="no"?><svg xmlns="http://www.w3.org/2000/svg" xmlns:xlink="http://www.w3.org/1999/xlink" contentScriptType="application/ecmascript" contentStyleType="text/css" height="327px" preserveAspectRatio="none" style="width:584px;height:327px;" version="1.1" viewBox="0 0 584 327" width="584px" zoomAndPan="magnify"><defs><filter height="300%" id="fluz7g0ao6zo2" width="300%" x="-1" y="-1"><feGaussianBlur result="blurOut" stdDeviation="2.0"/><feColorMatrix in="blurOut" result="blurOut2" type="matrix" values="0 0 0 0 0 0 0 0 0 0 0 0 0 0 0 0 0 0 .4 0"/><feOffset dx="4.0" dy="4.0" in="blurOut2" result="blurOut3"/><feBlend in="SourceGraphic" in2="blurOut3" mode="normal"/></filter></defs><g><text fill="#D7A72D" font-family="sans-serif" font-size="10" lengthAdjust="spacingAndGlyphs" textLength="48" x="524" y="19.2822">confidential</text><text fill="#555555" font-family="sans-serif" font-size="16" lengthAdjust="spacingAndGlyphs" textLength="275" x="153.5" y="36.4922">example project activity-diagram.puml</text><ellipse cx="296.5" cy="50.2656" fill="#000000" filter="url(#fluz7g0ao6zo2)" rx="10" ry="10" style="stroke: none; stroke-width: 1.0;"/><polygon fill="#EEEEEE" filter="url(#fluz7g0ao6zo2)" points="32,80.2656,112,80.2656,124,92.2656,112,104.2656,32,104.2656,20,92.2656,32,80.2656" style="stroke: #999999; stroke-width: 1.5;"/><text fill="#555555" font-family="sans-serif" font-size="14" lengthAdjust="spacingAndGlyphs" textLength="22" x="76" y="117.2607">yes</text><text fill="#555555" font-family="sans-serif" font-size="14" lengthAdjust="spacingAndGlyphs" textLength="80" x="32" y="97.1123">condition Aa</text><rect fill="#EEEEEE" filter="url(#fluz7g0ao6zo2)" height="36.2969" rx="12.5" ry="12.5" style="stroke: #999999; stroke-width: 1.5;" width="59" x="42.5" y="138.7607"/><text fill="#555555" font-family="sans-serif" font-size="14" lengthAdjust="spacingAndGlyphs" textLength="39" x="52.5" y="161.7559">Text 1</text><polygon fill="#EEEEEE" filter="url(#fluz7g0ao6zo2)" points="156,80.2656,229,80.2656,241,92.2656,229,104.2656,156,104.2656,144,92.2656,156,80.2656" style="stroke: #999999; stroke-width: 1.5;"/><text fill="#555555" font-family="sans-serif" font-size="14" lengthAdjust="spacingAndGlyphs" textLength="22" x="196.5" y="117.2607">yes</text><text fill="#555555" font-family="sans-serif" font-size="14" lengthAdjust="spacingAndGlyphs" textLength="73" x="156" y="97.1123">condition B</text><rect fill="#EEEEEE" filter="url(#fluz7g0ao6zo2)" height="36.2969" rx="12.5" ry="12.5" style="stroke: #999999; stroke-width: 1.5;" width="59" x="163" y="138.7607"/><text fill="#555555" font-family="sans-serif" font-size="14" lengthAdjust="spacingAndGlyphs" textLength="39" x="173" y="161.7559">Text 2</text><ellipse cx="192.5" cy="221.0576" fill="#FFFFFF" filter="url(#fluz7g0ao6zo2)" rx="11" ry="11" style="stroke: #000000; stroke-width: 1.0;"/><ellipse cx="192.5" cy="221.0576" fill="#000000" rx="6" ry="6" style="stroke: #7F7F7F; stroke-width: 1.0;"/><polygon fill="#EEEEEE" filter="url(#fluz7g0ao6zo2)" points="273,80.2656,345,80.2656,357,92.2656,345,104.2656,273,104.2656,261,92.2656,273,80.2656" style="stroke: #999999; stroke-width: 1.5;"/><text fill="#555555" font-family="sans-serif" font-size="14" lengthAdjust="spacingAndGlyphs" textLength="22" x="313" y="117.2607">yes</text><text fill="#555555" font-family="sans-serif" font-size="14" lengthAdjust="spacingAndGlyphs" textLength="72" x="273" y="97.1123">condition C</text><rect fill="#EEEEEE" filter="url(#fluz7g0ao6zo2)" height="36.2969" rx="12.5" ry="12.5" style="stroke: #999999; stroke-width: 1.5;" width="59" x="279.5" y="138.7607"/><text fill="#555555" font-family="sans-serif" font-size="14" lengthAdjust="spacingAndGlyphs" textLength="39" x="289.5" y="161.7559">Text 3</text><polygon fill="#EEEEEE" filter="url(#fluz7g0ao6zo2)" points="389,80.2656,463,80.2656,475,92.2656,463,104.2656,389,104.2656,377,92.2656,389,80.2656" style="stroke: #999999; stroke-width: 1.5;"/><text fill="#555555" font-family="sans-serif" font-size="14" lengthAdjust="spacingAndGlyphs" textLength="22" x="430" y="117.2607">yes</text><text fill="#555555" font-family="sans-serif" font-size="14" lengthAdjust="spacingAndGlyphs" textLength="74" x="389" y="97.1123">condition D</text><text fill="#555555" font-family="sans-serif" font-size="14" lengthAdjust="spacingAndGlyphs" textLength="48" x="475" y="88.9639">nothing</text><rect fill="#EEEEEE" filter="url(#fluz7g0ao6zo2)" height="36.2969" rx="12.5" ry="12.5" style="stroke: #999999; stroke-width: 1.5;" width="59" x="396.5" y="138.7607"/><text fill="#555555" font-family="sans-serif" font-size="14" lengthAdjust="spacingAndGlyphs" textLength="39" x="406.5" y="161.7559">Text 4</text><rect fill="#EEEEEE" filter="url(#fluz7g0ao6zo2)" height="36.2969" rx="12.5" ry="12.5" style="stroke: #999999; stroke-width: 1.5;" width="78" x="495" y="162.1123"/><text fill="#555555" font-family="sans-serif" font-size="14" lengthAdjust="spacingAndGlyphs" textLength="58" x="505" y="185.1074">Text else</text><ellipse cx="296.5" cy="283.0576" fill="#FFFFFF" filter="url(#fluz7g0ao6zo2)" rx="11" ry="11" style="stroke: #000000; stroke-width: 1.0;"/><ellipse cx="296.5" cy="283.0576" fill="#000000" rx="6" ry="6" style="stroke: #7F7F7F; stroke-width: 1.0;"/><line style="stroke: #000000; stroke-width: 1.5;" x1="192.5" x2="192.5" y1="175.0576" y2="210.0576"/><polygon fill="#000000" points="188.5,200.0576,192.5,210.0576,196.5,200.0576,192.5,204.0576" style="stroke: #000000; stroke-width: 1.0;"/><line style="stroke: #000000; stroke-width: 1.5;" x1="72" x2="72" y1="104.2656" y2="138.7607"/><polygon fill="#000000" points="68,128.7607,72,138.7607,76,128.7607,72,132.7607" style="stroke: #000000; stroke-width: 1.0;"/><line style="stroke: #000000; stroke-width: 1.5;" x1="72" x2="72" y1="175.0576" y2="252.0576"/><polygon fill="#000000" points="68,242.0576,72,252.0576,76,242.0576,72,246.0576" style="stroke: #000000; stroke-width: 1.0;"/><line style="stroke: #000000; stroke-width: 1.5;" x1="192.5" x2="192.5" y1="104.2656" y2="138.7607"/><polygon fill="#000000" points="188.5,128.7607,192.5,138.7607,196.5,128.7607,192.5,132.7607" style="stroke: #000000; stroke-width: 1.0;"/><line style="stroke: #000000; stroke-width: 1.5;" x1="309" x2="309" y1="104.2656" y2="138.7607"/><polygon fill="#000000" points="305,128.7607,309,138.7607,313,128.7607,309,132.7607" style="stroke: #000000; stroke-width: 1.0;"/><line style="stroke: #000000; stroke-width: 1.5;" x1="309" x2="309" y1="175.0576" y2="252.0576"/><polygon fill="#000000" points="305,242.0576,309,252.0576,313,242.0576,309,246.0576" style="stroke: #000000; stroke-width: 1.0;"/><line style="stroke: #000000; stroke-width: 1.5;" x1="426" x2="426" y1="104.2656" y2="138.7607"/><polygon fill="#000000" points="422,128.7607,426,138.7607,430,128.7607,426,132.7607" style="stroke: #000000; stroke-width: 1.0;"/><line style="stroke: #000000; stroke-width: 1.5;" x1="426" x2="426" y1="175.0576" y2="252.0576"/><polygon fill="#000000" points="422,242.0576,426,252.0576,430,242.0576,426,246.0576" style="stroke: #000000; stroke-width: 1.0;"/><line style="stroke: #000000; stroke-width: 1.5;" x1="124" x2="144" y1="92.2656" y2="92.2656"/><polygon fill="#000000" points="134,88.2656,144,92.2656,134,96.2656,138,92.2656" style="stroke: #000000; stroke-width: 1.0;"/><line style="stroke: #000000; stroke-width: 1.5;" x1="241" x2="261" y1="92.2656" y2="92.2656"/><polygon fill="#000000" points="251,88.2656,261,92.2656,251,96.2656,255,92.2656" style="stroke: #000000; stroke-width: 1.0;"/><line style="stroke: #000000; stroke-width: 1.5;" x1="357" x2="377" y1="92.2656" y2="92.2656"/><polygon fill="#000000" points="367,88.2656,377,92.2656,367,96.2656,371,92.2656" style="stroke: #000000; stroke-width: 1.0;"/><line style="stroke: #000000; stroke-width: 1.5;" x1="296.5" x2="296.5" y1="60.2656" y2="65.2656"/><line style="stroke: #000000; stroke-width: 1.5;" x1="296.5" x2="72" y1="65.2656" y2="65.2656"/><line style="stroke: #000000; stroke-width: 1.5;" x1="72" x2="72" y1="65.2656" y2="80.2656"/><polygon fill="#000000" points="68,70.2656,72,80.2656,76,70.2656,72,74.2656" style="stroke: #000000; stroke-width: 1.0;"/><line style="stroke: #000000; stroke-width: 1.5;" x1="475" x2="534" y1="92.2656" y2="92.2656"/><line style="stroke: #000000; stroke-width: 1.5;" x1="534" x2="534" y1="92.2656" y2="162.1123"/><polygon fill="#000000" points="530,152.1123,534,162.1123,538,152.1123,534,156.1123" style="stroke: #000000; stroke-width: 1.0;"/><line style="stroke: #000000; stroke-width: 1.5;" x1="534" x2="534" y1="198.4092" y2="252.0576"/><polygon fill="#000000" points="530,242.0576,534,252.0576,538,242.0576,534,246.0576" style="stroke: #000000; stroke-width: 1.0;"/><line style="stroke: #000000; stroke-width: 1.5;" x1="72" x2="534" y1="252.0576" y2="252.0576"/><line style="stroke: #000000; stroke-width: 1.5;" x1="296.5" x2="296.5" y1="252.0576" y2="272.0576"/><polygon fill="#000000" points="292.5,262.0576,296.5,272.0576,300.5,262.0576,296.5,266.0576" style="stroke: #000000; stroke-width: 1.0;"/><text fill="#999999" font-family="sans-serif" font-size="10" lengthAdjust="spacingAndGlyphs" textLength="39" x="533" y="302.3398">mawatari</text><text fill="#999999" font-family="sans-serif" font-size="10" lengthAdjust="spacingAndGlyphs" textLength="167" x="405" y="313.9805">Last modified: 2020/02/22 13:11:22 GMT</text><!--MD5=[f4fe3fe7c60133b9965222875f0a377f]
@startuml
skinparam {
  BoxPadding 5
  ParticipantPadding 10
}
skinparam default {
  FontColor #555555
  FontSize 14
}
skinparam Header {
  FontColor #D7A72D
  FontSize 10
}
skinparam Footer {
  FontColor #999999
  FontSize 10
}
skinparam Title {
  FontSize 16
}

skinparam note {
  FontStyle bold
  FontColor #ffffff
  BackgroundColor #7f8c8d
  BorderColor #7f8c8d
}

skinparam activity {
  ArrowColor #000000
  BackgroundColor #eeeeee
  BorderColor #999999
  StartColor #000000
  EndColor #000000
  BarColor #000000

  DiamondBackgroundColor #eeeeee
  DiamondBorderColor #999999
}
right header confidential
right footer mawatari\nLast modified: 2020/02/22 13:11:22 GMT
title example project activity-diagram.puml

start
if (condition Aa) then (yes)
  :Text 1;
elseif (condition B) then (yes)
  :Text 2;
  stop
elseif (condition C) then (yes)
  :Text 3;
elseif (condition D) then (yes)
  :Text 4;
else (nothing)
  :Text else;
endif
stop
@enduml

PlantUML version 1.2020.01(Sun Feb 16 17:40:32 GMT 2020)
(GPL source distribution)
Java Runtime: OpenJDK Runtime Environment
JVM: OpenJDK 64-Bit Server VM
Java Version: 11.0.5+10-alpine-r0
Operating System: Linux
Default Encoding: UTF-8
Language: en
Country: US
--></g></svg>