<?xml version="1.0" encoding="UTF-8" standalone="no"?><svg xmlns="http://www.w3.org/2000/svg" xmlns:xlink="http://www.w3.org/1999/xlink" contentScriptType="application/ecmascript" contentStyleType="text/css" height="269px" preserveAspectRatio="none" style="width:490px;height:269px;" version="1.1" viewBox="0 0 490 269" width="490px" zoomAndPan="magnify"><defs><filter height="300%" id="f1608lzm8nmidi" width="300%" x="-1" y="-1"><feGaussianBlur result="blurOut" stdDeviation="2.0"/><feColorMatrix in="blurOut" result="blurOut2" type="matrix" values="0 0 0 0 0 0 0 0 0 0 0 0 0 0 0 0 0 0 .4 0"/><feOffset dx="4.0" dy="4.0" in="blurOut2" result="blurOut3"/><feBlend in="SourceGraphic" in2="blurOut3" mode="normal"/></filter></defs><g><ellipse cx="249.5" cy="20" fill="#000000" filter="url(#f1608lzm8nmidi)" rx="10" ry="10" style="stroke: none; stroke-width: 1.0;"/><polygon fill="#F8F8F8" filter="url(#f1608lzm8nmidi)" points="32,50,85,50,97,62,85,74,32,74,20,62,32,50" style="stroke: #383838; stroke-width: 1.5;"/><text fill="#000000" font-family="sans-serif" font-size="11" lengthAdjust="spacingAndGlyphs" textLength="17" x="62.5" y="84.2104">yes</text><text fill="#000000" font-family="sans-serif" font-size="11" lengthAdjust="spacingAndGlyphs" textLength="53" x="32" y="65.8081">condition A</text><rect fill="#F8F8F8" filter="url(#f1608lzm8nmidi)" height="33.9688" rx="12.5" ry="12.5" style="stroke: #383838; stroke-width: 1.5;" width="54" x="31.5" y="105.7104"/><text fill="#000000" font-family="sans-serif" font-size="12" lengthAdjust="spacingAndGlyphs" textLength="34" x="41.5" y="126.8491">Text 1</text><polygon fill="#F8F8F8" filter="url(#f1608lzm8nmidi)" points="129,50,182,50,194,62,182,74,129,74,117,62,129,50" style="stroke: #383838; stroke-width: 1.5;"/><text fill="#000000" font-family="sans-serif" font-size="11" lengthAdjust="spacingAndGlyphs" textLength="17" x="159.5" y="84.2104">yes</text><text fill="#000000" font-family="sans-serif" font-size="11" lengthAdjust="spacingAndGlyphs" textLength="53" x="129" y="65.8081">condition B</text><rect fill="#F8F8F8" filter="url(#f1608lzm8nmidi)" height="33.9688" rx="12.5" ry="12.5" style="stroke: #383838; stroke-width: 1.5;" width="54" x="128.5" y="105.7104"/><text fill="#000000" font-family="sans-serif" font-size="12" lengthAdjust="spacingAndGlyphs" textLength="34" x="138.5" y="126.8491">Text 2</text><ellipse cx="155.5" cy="185.6792" fill="#FFFFFF" filter="url(#f1608lzm8nmidi)" rx="11" ry="11" style="stroke: #000000; stroke-width: 1.0;"/><ellipse cx="155.5" cy="185.6792" fill="#000000" rx="6" ry="6" style="stroke: #7F7F7F; stroke-width: 1.0;"/><polygon fill="#F8F8F8" filter="url(#f1608lzm8nmidi)" points="226,50,279,50,291,62,279,74,226,74,214,62,226,50" style="stroke: #383838; stroke-width: 1.5;"/><text fill="#000000" font-family="sans-serif" font-size="11" lengthAdjust="spacingAndGlyphs" textLength="17" x="256.5" y="84.2104">yes</text><text fill="#000000" font-family="sans-serif" font-size="11" lengthAdjust="spacingAndGlyphs" textLength="53" x="226" y="65.8081">condition C</text><rect fill="#F8F8F8" filter="url(#f1608lzm8nmidi)" height="33.9688" rx="12.5" ry="12.5" style="stroke: #383838; stroke-width: 1.5;" width="54" x="225.5" y="105.7104"/><text fill="#000000" font-family="sans-serif" font-size="12" lengthAdjust="spacingAndGlyphs" textLength="34" x="235.5" y="126.8491">Text 3</text><polygon fill="#F8F8F8" filter="url(#f1608lzm8nmidi)" points="323,50,377,50,389,62,377,74,323,74,311,62,323,50" style="stroke: #383838; stroke-width: 1.5;"/><text fill="#000000" font-family="sans-serif" font-size="11" lengthAdjust="spacingAndGlyphs" textLength="17" x="354" y="84.2104">yes</text><text fill="#000000" font-family="sans-serif" font-size="11" lengthAdjust="spacingAndGlyphs" textLength="54" x="323" y="65.8081">condition D</text><text fill="#000000" font-family="sans-serif" font-size="11" lengthAdjust="spacingAndGlyphs" textLength="36" x="389" y="59.4058">nothing</text><rect fill="#F8F8F8" filter="url(#f1608lzm8nmidi)" height="33.9688" rx="12.5" ry="12.5" style="stroke: #383838; stroke-width: 1.5;" width="54" x="323" y="105.7104"/><text fill="#000000" font-family="sans-serif" font-size="12" lengthAdjust="spacingAndGlyphs" textLength="34" x="333" y="126.8491">Text 4</text><rect fill="#F8F8F8" filter="url(#f1608lzm8nmidi)" height="33.9688" rx="12.5" ry="12.5" style="stroke: #383838; stroke-width: 1.5;" width="70" x="409" y="130.8081"/><text fill="#000000" font-family="sans-serif" font-size="12" lengthAdjust="spacingAndGlyphs" textLength="50" x="419" y="151.9468">Text else</text><ellipse cx="249.5" cy="247.6792" fill="#FFFFFF" filter="url(#f1608lzm8nmidi)" rx="11" ry="11" style="stroke: #000000; stroke-width: 1.0;"/><ellipse cx="249.5" cy="247.6792" fill="#000000" rx="6" ry="6" style="stroke: #7F7F7F; stroke-width: 1.0;"/><line style="stroke: #383838; stroke-width: 1.5;" x1="155.5" x2="155.5" y1="139.6792" y2="174.6792"/><polygon fill="#383838" points="151.5,164.6792,155.5,174.6792,159.5,164.6792,155.5,168.6792" style="stroke: #383838; stroke-width: 1.0;"/><line style="stroke: #383838; stroke-width: 1.5;" x1="58.5" x2="58.5" y1="74" y2="105.7104"/><polygon fill="#383838" points="54.5,95.7104,58.5,105.7104,62.5,95.7104,58.5,99.7104" style="stroke: #383838; stroke-width: 1.0;"/><line style="stroke: #383838; stroke-width: 1.5;" x1="58.5" x2="58.5" y1="139.6792" y2="216.6792"/><polygon fill="#383838" points="54.5,206.6792,58.5,216.6792,62.5,206.6792,58.5,210.6792" style="stroke: #383838; stroke-width: 1.0;"/><line style="stroke: #383838; stroke-width: 1.5;" x1="155.5" x2="155.5" y1="74" y2="105.7104"/><polygon fill="#383838" points="151.5,95.7104,155.5,105.7104,159.5,95.7104,155.5,99.7104" style="stroke: #383838; stroke-width: 1.0;"/><line style="stroke: #383838; stroke-width: 1.5;" x1="252.5" x2="252.5" y1="74" y2="105.7104"/><polygon fill="#383838" points="248.5,95.7104,252.5,105.7104,256.5,95.7104,252.5,99.7104" style="stroke: #383838; stroke-width: 1.0;"/><line style="stroke: #383838; stroke-width: 1.5;" x1="252.5" x2="252.5" y1="139.6792" y2="216.6792"/><polygon fill="#383838" points="248.5,206.6792,252.5,216.6792,256.5,206.6792,252.5,210.6792" style="stroke: #383838; stroke-width: 1.0;"/><line style="stroke: #383838; stroke-width: 1.5;" x1="350" x2="350" y1="74" y2="105.7104"/><polygon fill="#383838" points="346,95.7104,350,105.7104,354,95.7104,350,99.7104" style="stroke: #383838; stroke-width: 1.0;"/><line style="stroke: #383838; stroke-width: 1.5;" x1="350" x2="350" y1="139.6792" y2="216.6792"/><polygon fill="#383838" points="346,206.6792,350,216.6792,354,206.6792,350,210.6792" style="stroke: #383838; stroke-width: 1.0;"/><line style="stroke: #383838; stroke-width: 1.5;" x1="97" x2="117" y1="62" y2="62"/><polygon fill="#383838" points="107,58,117,62,107,66,111,62" style="stroke: #383838; stroke-width: 1.0;"/><line style="stroke: #383838; stroke-width: 1.5;" x1="194" x2="214" y1="62" y2="62"/><polygon fill="#383838" points="204,58,214,62,204,66,208,62" style="stroke: #383838; stroke-width: 1.0;"/><line style="stroke: #383838; stroke-width: 1.5;" x1="291" x2="311" y1="62" y2="62"/><polygon fill="#383838" points="301,58,311,62,301,66,305,62" style="stroke: #383838; stroke-width: 1.0;"/><line style="stroke: #383838; stroke-width: 1.5;" x1="249.5" x2="249.5" y1="30" y2="35"/><line style="stroke: #383838; stroke-width: 1.5;" x1="249.5" x2="58.5" y1="35" y2="35"/><line style="stroke: #383838; stroke-width: 1.5;" x1="58.5" x2="58.5" y1="35" y2="50"/><polygon fill="#383838" points="54.5,40,58.5,50,62.5,40,58.5,44" style="stroke: #383838; stroke-width: 1.0;"/><line style="stroke: #383838; stroke-width: 1.5;" x1="389" x2="444" y1="62" y2="62"/><line style="stroke: #383838; stroke-width: 1.5;" x1="444" x2="444" y1="62" y2="130.8081"/><polygon fill="#383838" points="440,120.8081,444,130.8081,448,120.8081,444,124.8081" style="stroke: #383838; stroke-width: 1.0;"/><line style="stroke: #383838; stroke-width: 1.5;" x1="444" x2="444" y1="164.7769" y2="216.6792"/><polygon fill="#383838" points="440,206.6792,444,216.6792,448,206.6792,444,210.6792" style="stroke: #383838; stroke-width: 1.0;"/><line style="stroke: #383838; stroke-width: 1.5;" x1="58.5" x2="444" y1="216.6792" y2="216.6792"/><line style="stroke: #383838; stroke-width: 1.5;" x1="249.5" x2="249.5" y1="216.6792" y2="236.6792"/><polygon fill="#383838" points="245.5,226.6792,249.5,236.6792,253.5,226.6792,249.5,230.6792" style="stroke: #383838; stroke-width: 1.0;"/><!--MD5=[1f7d9f887876c3f049ca2116b78fcc91]
@startuml
skinparam monochrome true

start
if (condition A) then (yes)
  :Text 1;
elseif (condition B) then (yes)
  :Text 2;
  stop
elseif (condition C) then (yes)
  :Text 3;
elseif (condition D) then (yes)
  :Text 4;
else (nothing)
  :Text else;
endif
stop
@enduml

PlantUML version 1.2020.01(Sun Feb 16 17:40:32 GMT 2020)
(GPL source distribution)
Java Runtime: OpenJDK Runtime Environment
JVM: OpenJDK 64-Bit Server VM
Java Version: 11.0.5+10-alpine-r0
Operating System: Linux
Default Encoding: UTF-8
Language: en
Country: US
--></g></svg>