<?xml version="1.0" encoding="UTF-8" standalone="no"?><svg xmlns="http://www.w3.org/2000/svg" xmlns:xlink="http://www.w3.org/1999/xlink" contentScriptType="application/ecmascript" contentStyleType="text/css" height="269px" preserveAspectRatio="none" style="width:562px;height:269px;" version="1.1" viewBox="0 0 562 269" width="562px" zoomAndPan="magnify"><defs><filter height="300%" id="fyfvj4tnkf6wj" width="300%" x="-1" y="-1"><feGaussianBlur result="blurOut" stdDeviation="2.0"/><feColorMatrix in="blurOut" result="blurOut2" type="matrix" values="0 0 0 0 0 0 0 0 0 0 0 0 0 0 0 0 0 0 .4 0"/><feOffset dx="4.0" dy="4.0" in="blurOut2" result="blurOut3"/><feBlend in="SourceGraphic" in2="blurOut3" mode="normal"/></filter></defs><g><ellipse cx="285.5" cy="20" fill="#000000" filter="url(#fyfvj4tnkf6wj)" rx="10" ry="10" style="stroke: none; stroke-width: 1.0;"/><polygon fill="#FEFECE" filter="url(#fyfvj4tnkf6wj)" points="32,50,122,50,134,62,122,74,32,74,20,62,32,50" style="stroke: #A80036; stroke-width: 1.5;"/><text fill="#000000" font-family="sans-serif" font-size="11" lengthAdjust="spacingAndGlyphs" textLength="20" x="81" y="84.2104">yes</text><text fill="#000000" font-family="sans-serif" font-size="11" lengthAdjust="spacingAndGlyphs" textLength="90" x="32" y="65.8081">condition AaaaA</text><rect fill="#FEFECE" filter="url(#fyfvj4tnkf6wj)" height="33.9688" rx="12.5" ry="12.5" style="stroke: #A80036; stroke-width: 1.5;" width="58" x="48" y="105.7104"/><text fill="#000000" font-family="sans-serif" font-size="12" lengthAdjust="spacingAndGlyphs" textLength="38" x="58" y="126.8491">Text 1</text><polygon fill="#FEFECE" filter="url(#fyfvj4tnkf6wj)" points="166,50,229,50,241,62,229,74,166,74,154,62,166,50" style="stroke: #A80036; stroke-width: 1.5;"/><text fill="#000000" font-family="sans-serif" font-size="11" lengthAdjust="spacingAndGlyphs" textLength="20" x="201.5" y="84.2104">yes</text><text fill="#000000" font-family="sans-serif" font-size="11" lengthAdjust="spacingAndGlyphs" textLength="63" x="166" y="65.8081">condition B</text><rect fill="#FEFECE" filter="url(#fyfvj4tnkf6wj)" height="33.9688" rx="12.5" ry="12.5" style="stroke: #A80036; stroke-width: 1.5;" width="58" x="168.5" y="105.7104"/><text fill="#000000" font-family="sans-serif" font-size="12" lengthAdjust="spacingAndGlyphs" textLength="38" x="178.5" y="126.8491">Text 2</text><ellipse cx="197.5" cy="185.6792" fill="#FFFFFF" filter="url(#fyfvj4tnkf6wj)" rx="11" ry="11" style="stroke: #000000; stroke-width: 1.0;"/><ellipse cx="197.5" cy="185.6792" fill="#000000" rx="6" ry="6" style="stroke: #7F7F7F; stroke-width: 1.0;"/><polygon fill="#FEFECE" filter="url(#fyfvj4tnkf6wj)" points="273,50,336,50,348,62,336,74,273,74,261,62,273,50" style="stroke: #A80036; stroke-width: 1.5;"/><text fill="#000000" font-family="sans-serif" font-size="11" lengthAdjust="spacingAndGlyphs" textLength="20" x="308.5" y="84.2104">yes</text><text fill="#000000" font-family="sans-serif" font-size="11" lengthAdjust="spacingAndGlyphs" textLength="63" x="273" y="65.8081">condition C</text><rect fill="#FEFECE" filter="url(#fyfvj4tnkf6wj)" height="33.9688" rx="12.5" ry="12.5" style="stroke: #A80036; stroke-width: 1.5;" width="58" x="275.5" y="105.7104"/><text fill="#000000" font-family="sans-serif" font-size="12" lengthAdjust="spacingAndGlyphs" textLength="38" x="285.5" y="126.8491">Text 3</text><polygon fill="#FEFECE" filter="url(#fyfvj4tnkf6wj)" points="380,50,443,50,455,62,443,74,380,74,368,62,380,50" style="stroke: #A80036; stroke-width: 1.5;"/><text fill="#000000" font-family="sans-serif" font-size="11" lengthAdjust="spacingAndGlyphs" textLength="20" x="415.5" y="84.2104">yes</text><text fill="#000000" font-family="sans-serif" font-size="11" lengthAdjust="spacingAndGlyphs" textLength="63" x="380" y="65.8081">condition D</text><text fill="#000000" font-family="sans-serif" font-size="11" lengthAdjust="spacingAndGlyphs" textLength="42" x="455" y="59.4058">nothing</text><rect fill="#FEFECE" filter="url(#fyfvj4tnkf6wj)" height="33.9688" rx="12.5" ry="12.5" style="stroke: #A80036; stroke-width: 1.5;" width="58" x="382.5" y="105.7104"/><text fill="#000000" font-family="sans-serif" font-size="12" lengthAdjust="spacingAndGlyphs" textLength="38" x="392.5" y="126.8491">Text 4</text><rect fill="#FEFECE" filter="url(#fyfvj4tnkf6wj)" height="33.9688" rx="12.5" ry="12.5" style="stroke: #A80036; stroke-width: 1.5;" width="76" x="475" y="130.8081"/><text fill="#000000" font-family="sans-serif" font-size="12" lengthAdjust="spacingAndGlyphs" textLength="56" x="485" y="151.9468">Text else</text><ellipse cx="285.5" cy="247.6792" fill="#FFFFFF" filter="url(#fyfvj4tnkf6wj)" rx="11" ry="11" style="stroke: #000000; stroke-width: 1.0;"/><ellipse cx="285.5" cy="247.6792" fill="#000000" rx="6" ry="6" style="stroke: #7F7F7F; stroke-width: 1.0;"/><line style="stroke: #A80036; stroke-width: 1.5;" x1="197.5" x2="197.5" y1="139.6792" y2="174.6792"/><polygon fill="#A80036" points="193.5,164.6792,197.5,174.6792,201.5,164.6792,197.5,168.6792" style="stroke: #A80036; stroke-width: 1.0;"/><line style="stroke: #A80036; stroke-width: 1.5;" x1="77" x2="77" y1="74" y2="105.7104"/><polygon fill="#A80036" points="73,95.7104,77,105.7104,81,95.7104,77,99.7104" style="stroke: #A80036; stroke-width: 1.0;"/><line style="stroke: #A80036; stroke-width: 1.5;" x1="77" x2="77" y1="139.6792" y2="216.6792"/><polygon fill="#A80036" points="73,206.6792,77,216.6792,81,206.6792,77,210.6792" style="stroke: #A80036; stroke-width: 1.0;"/><line style="stroke: #A80036; stroke-width: 1.5;" x1="197.5" x2="197.5" y1="74" y2="105.7104"/><polygon fill="#A80036" points="193.5,95.7104,197.5,105.7104,201.5,95.7104,197.5,99.7104" style="stroke: #A80036; stroke-width: 1.0;"/><line style="stroke: #A80036; stroke-width: 1.5;" x1="304.5" x2="304.5" y1="74" y2="105.7104"/><polygon fill="#A80036" points="300.5,95.7104,304.5,105.7104,308.5,95.7104,304.5,99.7104" style="stroke: #A80036; stroke-width: 1.0;"/><line style="stroke: #A80036; stroke-width: 1.5;" x1="304.5" x2="304.5" y1="139.6792" y2="216.6792"/><polygon fill="#A80036" points="300.5,206.6792,304.5,216.6792,308.5,206.6792,304.5,210.6792" style="stroke: #A80036; stroke-width: 1.0;"/><line style="stroke: #A80036; stroke-width: 1.5;" x1="411.5" x2="411.5" y1="74" y2="105.7104"/><polygon fill="#A80036" points="407.5,95.7104,411.5,105.7104,415.5,95.7104,411.5,99.7104" style="stroke: #A80036; stroke-width: 1.0;"/><line style="stroke: #A80036; stroke-width: 1.5;" x1="411.5" x2="411.5" y1="139.6792" y2="216.6792"/><polygon fill="#A80036" points="407.5,206.6792,411.5,216.6792,415.5,206.6792,411.5,210.6792" style="stroke: #A80036; stroke-width: 1.0;"/><line style="stroke: #A80036; stroke-width: 1.5;" x1="134" x2="154" y1="62" y2="62"/><polygon fill="#A80036" points="144,58,154,62,144,66,148,62" style="stroke: #A80036; stroke-width: 1.0;"/><line style="stroke: #A80036; stroke-width: 1.5;" x1="241" x2="261" y1="62" y2="62"/><polygon fill="#A80036" points="251,58,261,62,251,66,255,62" style="stroke: #A80036; stroke-width: 1.0;"/><line style="stroke: #A80036; stroke-width: 1.5;" x1="348" x2="368" y1="62" y2="62"/><polygon fill="#A80036" points="358,58,368,62,358,66,362,62" style="stroke: #A80036; stroke-width: 1.0;"/><line style="stroke: #A80036; stroke-width: 1.5;" x1="285.5" x2="285.5" y1="30" y2="35"/><line style="stroke: #A80036; stroke-width: 1.5;" x1="285.5" x2="77" y1="35" y2="35"/><line style="stroke: #A80036; stroke-width: 1.5;" x1="77" x2="77" y1="35" y2="50"/><polygon fill="#A80036" points="73,40,77,50,81,40,77,44" style="stroke: #A80036; stroke-width: 1.0;"/><line style="stroke: #A80036; stroke-width: 1.5;" x1="455" x2="513" y1="62" y2="62"/><line style="stroke: #A80036; stroke-width: 1.5;" x1="513" x2="513" y1="62" y2="130.8081"/><polygon fill="#A80036" points="509,120.8081,513,130.8081,517,120.8081,513,124.8081" style="stroke: #A80036; stroke-width: 1.0;"/><line style="stroke: #A80036; stroke-width: 1.5;" x1="513" x2="513" y1="164.7769" y2="216.6792"/><polygon fill="#A80036" points="509,206.6792,513,216.6792,517,206.6792,513,210.6792" style="stroke: #A80036; stroke-width: 1.0;"/><line style="stroke: #A80036; stroke-width: 1.5;" x1="77" x2="513" y1="216.6792" y2="216.6792"/><line style="stroke: #A80036; stroke-width: 1.5;" x1="285.5" x2="285.5" y1="216.6792" y2="236.6792"/><polygon fill="#A80036" points="281.5,226.6792,285.5,236.6792,289.5,226.6792,285.5,230.6792" style="stroke: #A80036; stroke-width: 1.0;"/><!--MD5=[08ebe9486723e312efa6b6cacb710092]
@startuml
start
if (condition AaaaA) then (yes)
  :Text 1;
elseif (condition B) then (yes)
  :Text 2;
  stop
elseif (condition C) then (yes)
  :Text 3;
elseif (condition D) then (yes)
  :Text 4;
else (nothing)
  :Text else;
endif
stop
@enduml

PlantUML version 1.2020.01beta16(Unknown compile time)
(GPL source distribution)
Java Runtime: Java(TM) SE Runtime Environment
JVM: Java HotSpot(TM) 64-Bit Server VM
Java Version: 1.7.0_25-b15
Operating System: Linux
Default Encoding: UTF-8
Language: en
Country: US
--></g></svg>