<?xml version="1.0" encoding="UTF-8" standalone="no"?><svg xmlns="http://www.w3.org/2000/svg" xmlns:xlink="http://www.w3.org/1999/xlink" contentScriptType="application/ecmascript" contentStyleType="text/css" height="269px" preserveAspectRatio="none" style="width:503px;height:269px;" version="1.1" viewBox="0 0 503 269" width="503px" zoomAndPan="magnify"><defs><filter height="300%" id="f144ghk8smbn7e" width="300%" x="-1" y="-1"><feGaussianBlur result="blurOut" stdDeviation="2.0"/><feColorMatrix in="blurOut" result="blurOut2" type="matrix" values="0 0 0 0 0 0 0 0 0 0 0 0 0 0 0 0 0 0 .4 0"/><feOffset dx="4.0" dy="4.0" in="blurOut2" result="blurOut3"/><feBlend in="SourceGraphic" in2="blurOut3" mode="normal"/></filter></defs><g><ellipse cx="256" cy="20" fill="#000000" filter="url(#f144ghk8smbn7e)" rx="10" ry="10" style="stroke: none; stroke-width: 1.0;"/><polygon fill="#F8F8F8" filter="url(#f144ghk8smbn7e)" points="32,50,98,50,110,62,98,74,32,74,20,62,32,50" style="stroke: #383838; stroke-width: 1.5;"/><text fill="#000000" font-family="sans-serif" font-size="11" lengthAdjust="spacingAndGlyphs" textLength="17" x="69" y="84.2104">yes</text><text fill="#000000" font-family="sans-serif" font-size="11" lengthAdjust="spacingAndGlyphs" textLength="66" x="32" y="65.8081">condition AaA</text><rect fill="#F8F8F8" filter="url(#f144ghk8smbn7e)" height="33.9688" rx="12.5" ry="12.5" style="stroke: #383838; stroke-width: 1.5;" width="54" x="38" y="105.7104"/><text fill="#000000" font-family="sans-serif" font-size="12" lengthAdjust="spacingAndGlyphs" textLength="34" x="48" y="126.8491">Text 1</text><polygon fill="#F8F8F8" filter="url(#f144ghk8smbn7e)" points="142,50,195,50,207,62,195,74,142,74,130,62,142,50" style="stroke: #383838; stroke-width: 1.5;"/><text fill="#000000" font-family="sans-serif" font-size="11" lengthAdjust="spacingAndGlyphs" textLength="17" x="172.5" y="84.2104">yes</text><text fill="#000000" font-family="sans-serif" font-size="11" lengthAdjust="spacingAndGlyphs" textLength="53" x="142" y="65.8081">condition B</text><rect fill="#F8F8F8" filter="url(#f144ghk8smbn7e)" height="33.9688" rx="12.5" ry="12.5" style="stroke: #383838; stroke-width: 1.5;" width="54" x="141.5" y="105.7104"/><text fill="#000000" font-family="sans-serif" font-size="12" lengthAdjust="spacingAndGlyphs" textLength="34" x="151.5" y="126.8491">Text 2</text><ellipse cx="168.5" cy="185.6792" fill="#FFFFFF" filter="url(#f144ghk8smbn7e)" rx="11" ry="11" style="stroke: #000000; stroke-width: 1.0;"/><ellipse cx="168.5" cy="185.6792" fill="#000000" rx="6" ry="6" style="stroke: #7F7F7F; stroke-width: 1.0;"/><polygon fill="#F8F8F8" filter="url(#f144ghk8smbn7e)" points="239,50,292,50,304,62,292,74,239,74,227,62,239,50" style="stroke: #383838; stroke-width: 1.5;"/><text fill="#000000" font-family="sans-serif" font-size="11" lengthAdjust="spacingAndGlyphs" textLength="17" x="269.5" y="84.2104">yes</text><text fill="#000000" font-family="sans-serif" font-size="11" lengthAdjust="spacingAndGlyphs" textLength="53" x="239" y="65.8081">condition C</text><rect fill="#F8F8F8" filter="url(#f144ghk8smbn7e)" height="33.9688" rx="12.5" ry="12.5" style="stroke: #383838; stroke-width: 1.5;" width="54" x="238.5" y="105.7104"/><text fill="#000000" font-family="sans-serif" font-size="12" lengthAdjust="spacingAndGlyphs" textLength="34" x="248.5" y="126.8491">Text 3</text><polygon fill="#F8F8F8" filter="url(#f144ghk8smbn7e)" points="336,50,390,50,402,62,390,74,336,74,324,62,336,50" style="stroke: #383838; stroke-width: 1.5;"/><text fill="#000000" font-family="sans-serif" font-size="11" lengthAdjust="spacingAndGlyphs" textLength="17" x="367" y="84.2104">yes</text><text fill="#000000" font-family="sans-serif" font-size="11" lengthAdjust="spacingAndGlyphs" textLength="54" x="336" y="65.8081">condition D</text><text fill="#000000" font-family="sans-serif" font-size="11" lengthAdjust="spacingAndGlyphs" textLength="36" x="402" y="59.4058">nothing</text><rect fill="#F8F8F8" filter="url(#f144ghk8smbn7e)" height="33.9688" rx="12.5" ry="12.5" style="stroke: #383838; stroke-width: 1.5;" width="54" x="336" y="105.7104"/><text fill="#000000" font-family="sans-serif" font-size="12" lengthAdjust="spacingAndGlyphs" textLength="34" x="346" y="126.8491">Text 4</text><rect fill="#F8F8F8" filter="url(#f144ghk8smbn7e)" height="33.9688" rx="12.5" ry="12.5" style="stroke: #383838; stroke-width: 1.5;" width="70" x="422" y="130.8081"/><text fill="#000000" font-family="sans-serif" font-size="12" lengthAdjust="spacingAndGlyphs" textLength="50" x="432" y="151.9468">Text else</text><ellipse cx="256" cy="247.6792" fill="#FFFFFF" filter="url(#f144ghk8smbn7e)" rx="11" ry="11" style="stroke: #000000; stroke-width: 1.0;"/><ellipse cx="256" cy="247.6792" fill="#000000" rx="6" ry="6" style="stroke: #7F7F7F; stroke-width: 1.0;"/><line style="stroke: #383838; stroke-width: 1.5;" x1="168.5" x2="168.5" y1="139.6792" y2="174.6792"/><polygon fill="#383838" points="164.5,164.6792,168.5,174.6792,172.5,164.6792,168.5,168.6792" style="stroke: #383838; stroke-width: 1.0;"/><line style="stroke: #383838; stroke-width: 1.5;" x1="65" x2="65" y1="74" y2="105.7104"/><polygon fill="#383838" points="61,95.7104,65,105.7104,69,95.7104,65,99.7104" style="stroke: #383838; stroke-width: 1.0;"/><line style="stroke: #383838; stroke-width: 1.5;" x1="65" x2="65" y1="139.6792" y2="216.6792"/><polygon fill="#383838" points="61,206.6792,65,216.6792,69,206.6792,65,210.6792" style="stroke: #383838; stroke-width: 1.0;"/><line style="stroke: #383838; stroke-width: 1.5;" x1="168.5" x2="168.5" y1="74" y2="105.7104"/><polygon fill="#383838" points="164.5,95.7104,168.5,105.7104,172.5,95.7104,168.5,99.7104" style="stroke: #383838; stroke-width: 1.0;"/><line style="stroke: #383838; stroke-width: 1.5;" x1="265.5" x2="265.5" y1="74" y2="105.7104"/><polygon fill="#383838" points="261.5,95.7104,265.5,105.7104,269.5,95.7104,265.5,99.7104" style="stroke: #383838; stroke-width: 1.0;"/><line style="stroke: #383838; stroke-width: 1.5;" x1="265.5" x2="265.5" y1="139.6792" y2="216.6792"/><polygon fill="#383838" points="261.5,206.6792,265.5,216.6792,269.5,206.6792,265.5,210.6792" style="stroke: #383838; stroke-width: 1.0;"/><line style="stroke: #383838; stroke-width: 1.5;" x1="363" x2="363" y1="74" y2="105.7104"/><polygon fill="#383838" points="359,95.7104,363,105.7104,367,95.7104,363,99.7104" style="stroke: #383838; stroke-width: 1.0;"/><line style="stroke: #383838; stroke-width: 1.5;" x1="363" x2="363" y1="139.6792" y2="216.6792"/><polygon fill="#383838" points="359,206.6792,363,216.6792,367,206.6792,363,210.6792" style="stroke: #383838; stroke-width: 1.0;"/><line style="stroke: #383838; stroke-width: 1.5;" x1="110" x2="130" y1="62" y2="62"/><polygon fill="#383838" points="120,58,130,62,120,66,124,62" style="stroke: #383838; stroke-width: 1.0;"/><line style="stroke: #383838; stroke-width: 1.5;" x1="207" x2="227" y1="62" y2="62"/><polygon fill="#383838" points="217,58,227,62,217,66,221,62" style="stroke: #383838; stroke-width: 1.0;"/><line style="stroke: #383838; stroke-width: 1.5;" x1="304" x2="324" y1="62" y2="62"/><polygon fill="#383838" points="314,58,324,62,314,66,318,62" style="stroke: #383838; stroke-width: 1.0;"/><line style="stroke: #383838; stroke-width: 1.5;" x1="256" x2="256" y1="30" y2="35"/><line style="stroke: #383838; stroke-width: 1.5;" x1="256" x2="65" y1="35" y2="35"/><line style="stroke: #383838; stroke-width: 1.5;" x1="65" x2="65" y1="35" y2="50"/><polygon fill="#383838" points="61,40,65,50,69,40,65,44" style="stroke: #383838; stroke-width: 1.0;"/><line style="stroke: #383838; stroke-width: 1.5;" x1="402" x2="457" y1="62" y2="62"/><line style="stroke: #383838; stroke-width: 1.5;" x1="457" x2="457" y1="62" y2="130.8081"/><polygon fill="#383838" points="453,120.8081,457,130.8081,461,120.8081,457,124.8081" style="stroke: #383838; stroke-width: 1.0;"/><line style="stroke: #383838; stroke-width: 1.5;" x1="457" x2="457" y1="164.7769" y2="216.6792"/><polygon fill="#383838" points="453,206.6792,457,216.6792,461,206.6792,457,210.6792" style="stroke: #383838; stroke-width: 1.0;"/><line style="stroke: #383838; stroke-width: 1.5;" x1="65" x2="457" y1="216.6792" y2="216.6792"/><line style="stroke: #383838; stroke-width: 1.5;" x1="256" x2="256" y1="216.6792" y2="236.6792"/><polygon fill="#383838" points="252,226.6792,256,236.6792,260,226.6792,256,230.6792" style="stroke: #383838; stroke-width: 1.0;"/><!--MD5=[d851db6067eae5f70d6d707a87c9e419]
@startuml
skinparam monochrome true

start
if (condition AaA) then (yes)
  :Text 1;
elseif (condition B) then (yes)
  :Text 2;
  stop
elseif (condition C) then (yes)
  :Text 3;
elseif (condition D) then (yes)
  :Text 4;
else (nothing)
  :Text else;
endif
stop
@enduml

PlantUML version 1.2020.01(Sun Feb 16 17:40:32 GMT 2020)
(GPL source distribution)
Java Runtime: OpenJDK Runtime Environment
JVM: OpenJDK 64-Bit Server VM
Java Version: 11.0.5+10-alpine-r0
Operating System: Linux
Default Encoding: UTF-8
Language: en
Country: US
--></g></svg>