<?xml version="1.0" encoding="UTF-8" standalone="no"?><svg xmlns="http://www.w3.org/2000/svg" xmlns:xlink="http://www.w3.org/1999/xlink" contentScriptType="application/ecmascript" contentStyleType="text/css" height="327px" preserveAspectRatio="none" style="width:610px;height:327px;" version="1.1" viewBox="0 0 610 327" width="610px" zoomAndPan="magnify"><defs><filter height="300%" id="f1hhtesflck1lh" width="300%" x="-1" y="-1"><feGaussianBlur result="blurOut" stdDeviation="2.0"/><feColorMatrix in="blurOut" result="blurOut2" type="matrix" values="0 0 0 0 0 0 0 0 0 0 0 0 0 0 0 0 0 0 .4 0"/><feOffset dx="4.0" dy="4.0" in="blurOut2" result="blurOut3"/><feBlend in="SourceGraphic" in2="blurOut3" mode="normal"/></filter></defs><g><text fill="#D7A72D" font-family="sans-serif" font-size="10" lengthAdjust="spacingAndGlyphs" textLength="48" x="550" y="19.2822">confidential</text><text fill="#555555" font-family="sans-serif" font-size="16" lengthAdjust="spacingAndGlyphs" textLength="284" x="162" y="36.4922">example project1 activity-diagram.puml</text><ellipse cx="309.5" cy="50.2656" fill="#000000" filter="url(#f1hhtesflck1lh)" rx="10" ry="10" style="stroke: none; stroke-width: 1.0;"/><polygon fill="#EEEEEE" filter="url(#f1hhtesflck1lh)" points="32,80.2656,121,80.2656,133,92.2656,121,104.2656,32,104.2656,20,92.2656,32,80.2656" style="stroke: #999999; stroke-width: 1.5;"/><text fill="#555555" font-family="sans-serif" font-size="14" lengthAdjust="spacingAndGlyphs" textLength="22" x="80.5" y="117.2607">yes</text><text fill="#555555" font-family="sans-serif" font-size="14" lengthAdjust="spacingAndGlyphs" textLength="89" x="32" y="97.1123">condition AaA</text><rect fill="#EEEEEE" filter="url(#f1hhtesflck1lh)" height="36.2969" rx="12.5" ry="12.5" style="stroke: #999999; stroke-width: 1.5;" width="59" x="47" y="138.7607"/><text fill="#555555" font-family="sans-serif" font-size="14" lengthAdjust="spacingAndGlyphs" textLength="39" x="57" y="161.7559">Text 1</text><polygon fill="#EEEEEE" filter="url(#f1hhtesflck1lh)" points="165,80.2656,255,80.2656,267,92.2656,255,104.2656,165,104.2656,153,92.2656,165,80.2656" style="stroke: #999999; stroke-width: 1.5;"/><text fill="#555555" font-family="sans-serif" font-size="14" lengthAdjust="spacingAndGlyphs" textLength="22" x="214" y="117.2607">yes</text><text fill="#555555" font-family="sans-serif" font-size="14" lengthAdjust="spacingAndGlyphs" textLength="90" x="165" y="97.1123">condition BbB</text><rect fill="#EEEEEE" filter="url(#f1hhtesflck1lh)" height="36.2969" rx="12.5" ry="12.5" style="stroke: #999999; stroke-width: 1.5;" width="59" x="180.5" y="138.7607"/><text fill="#555555" font-family="sans-serif" font-size="14" lengthAdjust="spacingAndGlyphs" textLength="39" x="190.5" y="161.7559">Text 2</text><ellipse cx="210" cy="221.0576" fill="#FFFFFF" filter="url(#f1hhtesflck1lh)" rx="11" ry="11" style="stroke: #000000; stroke-width: 1.0;"/><ellipse cx="210" cy="221.0576" fill="#000000" rx="6" ry="6" style="stroke: #7F7F7F; stroke-width: 1.0;"/><polygon fill="#EEEEEE" filter="url(#f1hhtesflck1lh)" points="299,80.2656,371,80.2656,383,92.2656,371,104.2656,299,104.2656,287,92.2656,299,80.2656" style="stroke: #999999; stroke-width: 1.5;"/><text fill="#555555" font-family="sans-serif" font-size="14" lengthAdjust="spacingAndGlyphs" textLength="22" x="339" y="117.2607">yes</text><text fill="#555555" font-family="sans-serif" font-size="14" lengthAdjust="spacingAndGlyphs" textLength="72" x="299" y="97.1123">condition C</text><rect fill="#EEEEEE" filter="url(#f1hhtesflck1lh)" height="36.2969" rx="12.5" ry="12.5" style="stroke: #999999; stroke-width: 1.5;" width="59" x="305.5" y="138.7607"/><text fill="#555555" font-family="sans-serif" font-size="14" lengthAdjust="spacingAndGlyphs" textLength="39" x="315.5" y="161.7559">Text 3</text><polygon fill="#EEEEEE" filter="url(#f1hhtesflck1lh)" points="415,80.2656,489,80.2656,501,92.2656,489,104.2656,415,104.2656,403,92.2656,415,80.2656" style="stroke: #999999; stroke-width: 1.5;"/><text fill="#555555" font-family="sans-serif" font-size="14" lengthAdjust="spacingAndGlyphs" textLength="22" x="456" y="117.2607">yes</text><text fill="#555555" font-family="sans-serif" font-size="14" lengthAdjust="spacingAndGlyphs" textLength="74" x="415" y="97.1123">condition D</text><text fill="#555555" font-family="sans-serif" font-size="14" lengthAdjust="spacingAndGlyphs" textLength="48" x="501" y="88.9639">nothing</text><rect fill="#EEEEEE" filter="url(#f1hhtesflck1lh)" height="36.2969" rx="12.5" ry="12.5" style="stroke: #999999; stroke-width: 1.5;" width="59" x="422.5" y="138.7607"/><text fill="#555555" font-family="sans-serif" font-size="14" lengthAdjust="spacingAndGlyphs" textLength="39" x="432.5" y="161.7559">Text 4</text><rect fill="#EEEEEE" filter="url(#f1hhtesflck1lh)" height="36.2969" rx="12.5" ry="12.5" style="stroke: #999999; stroke-width: 1.5;" width="78" x="521" y="162.1123"/><text fill="#555555" font-family="sans-serif" font-size="14" lengthAdjust="spacingAndGlyphs" textLength="58" x="531" y="185.1074">Text else</text><ellipse cx="309.5" cy="283.0576" fill="#FFFFFF" filter="url(#f1hhtesflck1lh)" rx="11" ry="11" style="stroke: #000000; stroke-width: 1.0;"/><ellipse cx="309.5" cy="283.0576" fill="#000000" rx="6" ry="6" style="stroke: #7F7F7F; stroke-width: 1.0;"/><line style="stroke: #000000; stroke-width: 1.5;" x1="210" x2="210" y1="175.0576" y2="210.0576"/><polygon fill="#000000" points="206,200.0576,210,210.0576,214,200.0576,210,204.0576" style="stroke: #000000; stroke-width: 1.0;"/><line style="stroke: #000000; stroke-width: 1.5;" x1="76.5" x2="76.5" y1="104.2656" y2="138.7607"/><polygon fill="#000000" points="72.5,128.7607,76.5,138.7607,80.5,128.7607,76.5,132.7607" style="stroke: #000000; stroke-width: 1.0;"/><line style="stroke: #000000; stroke-width: 1.5;" x1="76.5" x2="76.5" y1="175.0576" y2="252.0576"/><polygon fill="#000000" points="72.5,242.0576,76.5,252.0576,80.5,242.0576,76.5,246.0576" style="stroke: #000000; stroke-width: 1.0;"/><line style="stroke: #000000; stroke-width: 1.5;" x1="210" x2="210" y1="104.2656" y2="138.7607"/><polygon fill="#000000" points="206,128.7607,210,138.7607,214,128.7607,210,132.7607" style="stroke: #000000; stroke-width: 1.0;"/><line style="stroke: #000000; stroke-width: 1.5;" x1="335" x2="335" y1="104.2656" y2="138.7607"/><polygon fill="#000000" points="331,128.7607,335,138.7607,339,128.7607,335,132.7607" style="stroke: #000000; stroke-width: 1.0;"/><line style="stroke: #000000; stroke-width: 1.5;" x1="335" x2="335" y1="175.0576" y2="252.0576"/><polygon fill="#000000" points="331,242.0576,335,252.0576,339,242.0576,335,246.0576" style="stroke: #000000; stroke-width: 1.0;"/><line style="stroke: #000000; stroke-width: 1.5;" x1="452" x2="452" y1="104.2656" y2="138.7607"/><polygon fill="#000000" points="448,128.7607,452,138.7607,456,128.7607,452,132.7607" style="stroke: #000000; stroke-width: 1.0;"/><line style="stroke: #000000; stroke-width: 1.5;" x1="452" x2="452" y1="175.0576" y2="252.0576"/><polygon fill="#000000" points="448,242.0576,452,252.0576,456,242.0576,452,246.0576" style="stroke: #000000; stroke-width: 1.0;"/><line style="stroke: #000000; stroke-width: 1.5;" x1="133" x2="153" y1="92.2656" y2="92.2656"/><polygon fill="#000000" points="143,88.2656,153,92.2656,143,96.2656,147,92.2656" style="stroke: #000000; stroke-width: 1.0;"/><line style="stroke: #000000; stroke-width: 1.5;" x1="267" x2="287" y1="92.2656" y2="92.2656"/><polygon fill="#000000" points="277,88.2656,287,92.2656,277,96.2656,281,92.2656" style="stroke: #000000; stroke-width: 1.0;"/><line style="stroke: #000000; stroke-width: 1.5;" x1="383" x2="403" y1="92.2656" y2="92.2656"/><polygon fill="#000000" points="393,88.2656,403,92.2656,393,96.2656,397,92.2656" style="stroke: #000000; stroke-width: 1.0;"/><line style="stroke: #000000; stroke-width: 1.5;" x1="309.5" x2="309.5" y1="60.2656" y2="65.2656"/><line style="stroke: #000000; stroke-width: 1.5;" x1="309.5" x2="76.5" y1="65.2656" y2="65.2656"/><line style="stroke: #000000; stroke-width: 1.5;" x1="76.5" x2="76.5" y1="65.2656" y2="80.2656"/><polygon fill="#000000" points="72.5,70.2656,76.5,80.2656,80.5,70.2656,76.5,74.2656" style="stroke: #000000; stroke-width: 1.0;"/><line style="stroke: #000000; stroke-width: 1.5;" x1="501" x2="560" y1="92.2656" y2="92.2656"/><line style="stroke: #000000; stroke-width: 1.5;" x1="560" x2="560" y1="92.2656" y2="162.1123"/><polygon fill="#000000" points="556,152.1123,560,162.1123,564,152.1123,560,156.1123" style="stroke: #000000; stroke-width: 1.0;"/><line style="stroke: #000000; stroke-width: 1.5;" x1="560" x2="560" y1="198.4092" y2="252.0576"/><polygon fill="#000000" points="556,242.0576,560,252.0576,564,242.0576,560,246.0576" style="stroke: #000000; stroke-width: 1.0;"/><line style="stroke: #000000; stroke-width: 1.5;" x1="76.5" x2="560" y1="252.0576" y2="252.0576"/><line style="stroke: #000000; stroke-width: 1.5;" x1="309.5" x2="309.5" y1="252.0576" y2="272.0576"/><polygon fill="#000000" points="305.5,262.0576,309.5,272.0576,313.5,262.0576,309.5,266.0576" style="stroke: #000000; stroke-width: 1.0;"/><text fill="#999999" font-family="sans-serif" font-size="10" lengthAdjust="spacingAndGlyphs" textLength="39" x="559" y="302.3398">mawatari</text><text fill="#999999" font-family="sans-serif" font-size="10" lengthAdjust="spacingAndGlyphs" textLength="167" x="431" y="313.9805">Last modified: 2020/02/23 08:34:47 GMT</text><!--MD5=[b9c580b127d058151b5c7e42f1aced78]
@startuml
skinparam {
  BoxPadding 5
  ParticipantPadding 10
}
skinparam default {
  FontColor #555555
  FontSize 14
}
skinparam Header {
  FontColor #D7A72D
  FontSize 10
}
skinparam Footer {
  FontColor #999999
  FontSize 10
}
skinparam Title {
  FontSize 16
}

skinparam Actor {
  BackgroundColor #eeeeee
  BorderColor #999999
}

skinparam note {
  FontStyle bold
  FontColor #ffffff
  BackgroundColor #7f8c8d
  BorderColor #7f8c8d
}

skinparam activity {
  ArrowColor #000000
  BackgroundColor #eeeeee
  BorderColor #999999
  StartColor #000000
  EndColor #000000
  BarColor #000000

  DiamondBackgroundColor #eeeeee
  DiamondBorderColor #999999
}
right header confidential
right footer mawatari\nLast modified: 2020/02/23 08:34:47 GMT
title example project1 activity-diagram.puml

start
if (condition AaA) then (yes)
  :Text 1;
elseif (condition BbB) then (yes)
  :Text 2;
  stop
elseif (condition C) then (yes)
  :Text 3;
elseif (condition D) then (yes)
  :Text 4;
else (nothing)
  :Text else;
endif
stop
@enduml

PlantUML version 1.2020.01(Sun Feb 16 17:40:32 GMT 2020)
(GPL source distribution)
Java Runtime: OpenJDK Runtime Environment
JVM: OpenJDK 64-Bit Server VM
Java Version: 11.0.5+10-alpine-r0
Operating System: Linux
Default Encoding: UTF-8
Language: en
Country: US
--></g></svg>