<?xml version="1.0" encoding="UTF-8" standalone="no"?><svg xmlns="http://www.w3.org/2000/svg" xmlns:xlink="http://www.w3.org/1999/xlink" contentScriptType="application/ecmascript" contentStyleType="text/css" height="327px" preserveAspectRatio="none" style="width:577px;height:327px;" version="1.1" viewBox="0 0 577 327" width="577px" zoomAndPan="magnify"><defs><filter height="300%" id="f1cg9e7qjncfrd" width="300%" x="-1" y="-1"><feGaussianBlur result="blurOut" stdDeviation="2.0"/><feColorMatrix in="blurOut" result="blurOut2" type="matrix" values="0 0 0 0 0 0 0 0 0 0 0 0 0 0 0 0 0 0 .4 0"/><feOffset dx="4.0" dy="4.0" in="blurOut2" result="blurOut3"/><feBlend in="SourceGraphic" in2="blurOut3" mode="normal"/></filter></defs><g><text fill="#D7A72D" font-family="sans-serif" font-size="10" lengthAdjust="spacingAndGlyphs" textLength="48" x="517" y="19.2822">confidential</text><text fill="#555555" font-family="sans-serif" font-size="16" lengthAdjust="spacingAndGlyphs" textLength="275" x="150" y="36.4922">example project activity-diagram.puml</text><ellipse cx="293" cy="50.2656" fill="#000000" filter="url(#f1cg9e7qjncfrd)" rx="10" ry="10" style="stroke: none; stroke-width: 1.0;"/><polygon fill="#EEEEEE" filter="url(#f1cg9e7qjncfrd)" points="32,80.2656,105,80.2656,117,92.2656,105,104.2656,32,104.2656,20,92.2656,32,80.2656" style="stroke: #999999; stroke-width: 1.5;"/><text fill="#555555" font-family="sans-serif" font-size="14" lengthAdjust="spacingAndGlyphs" textLength="22" x="72.5" y="117.2607">yes</text><text fill="#555555" font-family="sans-serif" font-size="14" lengthAdjust="spacingAndGlyphs" textLength="73" x="32" y="97.1123">condition A</text><rect fill="#EEEEEE" filter="url(#f1cg9e7qjncfrd)" height="36.2969" rx="12.5" ry="12.5" style="stroke: #999999; stroke-width: 1.5;" width="59" x="39" y="138.7607"/><text fill="#555555" font-family="sans-serif" font-size="14" lengthAdjust="spacingAndGlyphs" textLength="39" x="49" y="161.7559">Text 1</text><polygon fill="#EEEEEE" filter="url(#f1cg9e7qjncfrd)" points="149,80.2656,222,80.2656,234,92.2656,222,104.2656,149,104.2656,137,92.2656,149,80.2656" style="stroke: #999999; stroke-width: 1.5;"/><text fill="#555555" font-family="sans-serif" font-size="14" lengthAdjust="spacingAndGlyphs" textLength="22" x="189.5" y="117.2607">yes</text><text fill="#555555" font-family="sans-serif" font-size="14" lengthAdjust="spacingAndGlyphs" textLength="73" x="149" y="97.1123">condition B</text><rect fill="#EEEEEE" filter="url(#f1cg9e7qjncfrd)" height="36.2969" rx="12.5" ry="12.5" style="stroke: #999999; stroke-width: 1.5;" width="59" x="156" y="138.7607"/><text fill="#555555" font-family="sans-serif" font-size="14" lengthAdjust="spacingAndGlyphs" textLength="39" x="166" y="161.7559">Text 2</text><ellipse cx="185.5" cy="221.0576" fill="#FFFFFF" filter="url(#f1cg9e7qjncfrd)" rx="11" ry="11" style="stroke: #000000; stroke-width: 1.0;"/><ellipse cx="185.5" cy="221.0576" fill="#000000" rx="6" ry="6" style="stroke: #7F7F7F; stroke-width: 1.0;"/><polygon fill="#EEEEEE" filter="url(#f1cg9e7qjncfrd)" points="266,80.2656,338,80.2656,350,92.2656,338,104.2656,266,104.2656,254,92.2656,266,80.2656" style="stroke: #999999; stroke-width: 1.5;"/><text fill="#555555" font-family="sans-serif" font-size="14" lengthAdjust="spacingAndGlyphs" textLength="22" x="306" y="117.2607">yes</text><text fill="#555555" font-family="sans-serif" font-size="14" lengthAdjust="spacingAndGlyphs" textLength="72" x="266" y="97.1123">condition C</text><rect fill="#EEEEEE" filter="url(#f1cg9e7qjncfrd)" height="36.2969" rx="12.5" ry="12.5" style="stroke: #999999; stroke-width: 1.5;" width="59" x="272.5" y="138.7607"/><text fill="#555555" font-family="sans-serif" font-size="14" lengthAdjust="spacingAndGlyphs" textLength="39" x="282.5" y="161.7559">Text 3</text><polygon fill="#EEEEEE" filter="url(#f1cg9e7qjncfrd)" points="382,80.2656,456,80.2656,468,92.2656,456,104.2656,382,104.2656,370,92.2656,382,80.2656" style="stroke: #999999; stroke-width: 1.5;"/><text fill="#555555" font-family="sans-serif" font-size="14" lengthAdjust="spacingAndGlyphs" textLength="22" x="423" y="117.2607">yes</text><text fill="#555555" font-family="sans-serif" font-size="14" lengthAdjust="spacingAndGlyphs" textLength="74" x="382" y="97.1123">condition D</text><text fill="#555555" font-family="sans-serif" font-size="14" lengthAdjust="spacingAndGlyphs" textLength="48" x="468" y="88.9639">nothing</text><rect fill="#EEEEEE" filter="url(#f1cg9e7qjncfrd)" height="36.2969" rx="12.5" ry="12.5" style="stroke: #999999; stroke-width: 1.5;" width="59" x="389.5" y="138.7607"/><text fill="#555555" font-family="sans-serif" font-size="14" lengthAdjust="spacingAndGlyphs" textLength="39" x="399.5" y="161.7559">Text 4</text><rect fill="#EEEEEE" filter="url(#f1cg9e7qjncfrd)" height="36.2969" rx="12.5" ry="12.5" style="stroke: #999999; stroke-width: 1.5;" width="78" x="488" y="162.1123"/><text fill="#555555" font-family="sans-serif" font-size="14" lengthAdjust="spacingAndGlyphs" textLength="58" x="498" y="185.1074">Text else</text><ellipse cx="293" cy="283.0576" fill="#FFFFFF" filter="url(#f1cg9e7qjncfrd)" rx="11" ry="11" style="stroke: #000000; stroke-width: 1.0;"/><ellipse cx="293" cy="283.0576" fill="#000000" rx="6" ry="6" style="stroke: #7F7F7F; stroke-width: 1.0;"/><line style="stroke: #000000; stroke-width: 1.5;" x1="185.5" x2="185.5" y1="175.0576" y2="210.0576"/><polygon fill="#000000" points="181.5,200.0576,185.5,210.0576,189.5,200.0576,185.5,204.0576" style="stroke: #000000; stroke-width: 1.0;"/><line style="stroke: #000000; stroke-width: 1.5;" x1="68.5" x2="68.5" y1="104.2656" y2="138.7607"/><polygon fill="#000000" points="64.5,128.7607,68.5,138.7607,72.5,128.7607,68.5,132.7607" style="stroke: #000000; stroke-width: 1.0;"/><line style="stroke: #000000; stroke-width: 1.5;" x1="68.5" x2="68.5" y1="175.0576" y2="252.0576"/><polygon fill="#000000" points="64.5,242.0576,68.5,252.0576,72.5,242.0576,68.5,246.0576" style="stroke: #000000; stroke-width: 1.0;"/><line style="stroke: #000000; stroke-width: 1.5;" x1="185.5" x2="185.5" y1="104.2656" y2="138.7607"/><polygon fill="#000000" points="181.5,128.7607,185.5,138.7607,189.5,128.7607,185.5,132.7607" style="stroke: #000000; stroke-width: 1.0;"/><line style="stroke: #000000; stroke-width: 1.5;" x1="302" x2="302" y1="104.2656" y2="138.7607"/><polygon fill="#000000" points="298,128.7607,302,138.7607,306,128.7607,302,132.7607" style="stroke: #000000; stroke-width: 1.0;"/><line style="stroke: #000000; stroke-width: 1.5;" x1="302" x2="302" y1="175.0576" y2="252.0576"/><polygon fill="#000000" points="298,242.0576,302,252.0576,306,242.0576,302,246.0576" style="stroke: #000000; stroke-width: 1.0;"/><line style="stroke: #000000; stroke-width: 1.5;" x1="419" x2="419" y1="104.2656" y2="138.7607"/><polygon fill="#000000" points="415,128.7607,419,138.7607,423,128.7607,419,132.7607" style="stroke: #000000; stroke-width: 1.0;"/><line style="stroke: #000000; stroke-width: 1.5;" x1="419" x2="419" y1="175.0576" y2="252.0576"/><polygon fill="#000000" points="415,242.0576,419,252.0576,423,242.0576,419,246.0576" style="stroke: #000000; stroke-width: 1.0;"/><line style="stroke: #000000; stroke-width: 1.5;" x1="117" x2="137" y1="92.2656" y2="92.2656"/><polygon fill="#000000" points="127,88.2656,137,92.2656,127,96.2656,131,92.2656" style="stroke: #000000; stroke-width: 1.0;"/><line style="stroke: #000000; stroke-width: 1.5;" x1="234" x2="254" y1="92.2656" y2="92.2656"/><polygon fill="#000000" points="244,88.2656,254,92.2656,244,96.2656,248,92.2656" style="stroke: #000000; stroke-width: 1.0;"/><line style="stroke: #000000; stroke-width: 1.5;" x1="350" x2="370" y1="92.2656" y2="92.2656"/><polygon fill="#000000" points="360,88.2656,370,92.2656,360,96.2656,364,92.2656" style="stroke: #000000; stroke-width: 1.0;"/><line style="stroke: #000000; stroke-width: 1.5;" x1="293" x2="293" y1="60.2656" y2="65.2656"/><line style="stroke: #000000; stroke-width: 1.5;" x1="293" x2="68.5" y1="65.2656" y2="65.2656"/><line style="stroke: #000000; stroke-width: 1.5;" x1="68.5" x2="68.5" y1="65.2656" y2="80.2656"/><polygon fill="#000000" points="64.5,70.2656,68.5,80.2656,72.5,70.2656,68.5,74.2656" style="stroke: #000000; stroke-width: 1.0;"/><line style="stroke: #000000; stroke-width: 1.5;" x1="468" x2="527" y1="92.2656" y2="92.2656"/><line style="stroke: #000000; stroke-width: 1.5;" x1="527" x2="527" y1="92.2656" y2="162.1123"/><polygon fill="#000000" points="523,152.1123,527,162.1123,531,152.1123,527,156.1123" style="stroke: #000000; stroke-width: 1.0;"/><line style="stroke: #000000; stroke-width: 1.5;" x1="527" x2="527" y1="198.4092" y2="252.0576"/><polygon fill="#000000" points="523,242.0576,527,252.0576,531,242.0576,527,246.0576" style="stroke: #000000; stroke-width: 1.0;"/><line style="stroke: #000000; stroke-width: 1.5;" x1="68.5" x2="527" y1="252.0576" y2="252.0576"/><line style="stroke: #000000; stroke-width: 1.5;" x1="293" x2="293" y1="252.0576" y2="272.0576"/><polygon fill="#000000" points="289,262.0576,293,272.0576,297,262.0576,293,266.0576" style="stroke: #000000; stroke-width: 1.0;"/><text fill="#999999" font-family="sans-serif" font-size="10" lengthAdjust="spacingAndGlyphs" textLength="39" x="526" y="302.3398">mawatari</text><text fill="#999999" font-family="sans-serif" font-size="10" lengthAdjust="spacingAndGlyphs" textLength="167" x="398" y="313.9805">Last modified: 2020/02/22 09:04:50 GMT</text><!--MD5=[6668c36e26ee81f4524803f5a26c4579]
@startuml
skinparam {
  BoxPadding 5
  ParticipantPadding 10
}
skinparam default {
  FontColor #555555
  FontSize 14
}
skinparam Header {
  FontColor #D7A72D
  FontSize 10
}
skinparam Footer {
  FontColor #999999
  FontSize 10
}
skinparam Title {
  FontSize 16
}

skinparam note {
  FontStyle bold
  FontColor #ffffff
  BackgroundColor #7f8c8d
  BorderColor #7f8c8d
}

skinparam activity {
  ArrowColor #000000
  BackgroundColor #eeeeee
  BorderColor #999999
  StartColor #000000
  EndColor #000000
  BarColor #000000

  DiamondBackgroundColor #eeeeee
  DiamondBorderColor #999999
}
right header confidential
right footer mawatari\nLast modified: 2020/02/22 09:04:50 GMT
title example project activity-diagram.puml

start
if (condition A) then (yes)
  :Text 1;
elseif (condition B) then (yes)
  :Text 2;
  stop
elseif (condition C) then (yes)
  :Text 3;
elseif (condition D) then (yes)
  :Text 4;
else (nothing)
  :Text else;
endif
stop
@enduml

PlantUML version 1.2020.01(Sun Feb 16 17:40:32 GMT 2020)
(GPL source distribution)
Java Runtime: OpenJDK Runtime Environment
JVM: OpenJDK 64-Bit Server VM
Java Version: 11.0.5+10-alpine-r0
Operating System: Linux
Default Encoding: UTF-8
Language: en
Country: US
--></g></svg>