<?xml version="1.0" encoding="UTF-8" standalone="no"?><svg xmlns="http://www.w3.org/2000/svg" xmlns:xlink="http://www.w3.org/1999/xlink" contentScriptType="application/ecmascript" contentStyleType="text/css" height="269px" preserveAspectRatio="none" style="width:541px;height:269px;" version="1.1" viewBox="0 0 541 269" width="541px" zoomAndPan="magnify"><defs><filter height="300%" id="fg0sfpzjjz7vq" width="300%" x="-1" y="-1"><feGaussianBlur result="blurOut" stdDeviation="2.0"/><feColorMatrix in="blurOut" result="blurOut2" type="matrix" values="0 0 0 0 0 0 0 0 0 0 0 0 0 0 0 0 0 0 .4 0"/><feOffset dx="4.0" dy="4.0" in="blurOut2" result="blurOut3"/><feBlend in="SourceGraphic" in2="blurOut3" mode="normal"/></filter></defs><g><ellipse cx="275" cy="20" fill="#000000" filter="url(#fg0sfpzjjz7vq)" rx="10" ry="10" style="stroke: none; stroke-width: 1.0;"/><polygon fill="#F8F8F8" filter="url(#fg0sfpzjjz7vq)" points="32,50,101,50,113,62,101,74,32,74,20,62,32,50" style="stroke: #383838; stroke-width: 1.5;"/><text fill="#000000" font-family="sans-serif" font-size="11" lengthAdjust="spacingAndGlyphs" textLength="20" x="70.5" y="84.2104">yes</text><text fill="#000000" font-family="sans-serif" font-size="11" lengthAdjust="spacingAndGlyphs" textLength="69" x="32" y="65.8081">condition Aa</text><rect fill="#F8F8F8" filter="url(#fg0sfpzjjz7vq)" height="33.9688" rx="12.5" ry="12.5" style="stroke: #383838; stroke-width: 1.5;" width="58" x="37.5" y="105.7104"/><text fill="#000000" font-family="sans-serif" font-size="12" lengthAdjust="spacingAndGlyphs" textLength="38" x="47.5" y="126.8491">Text 1</text><polygon fill="#F8F8F8" filter="url(#fg0sfpzjjz7vq)" points="145,50,208,50,220,62,208,74,145,74,133,62,145,50" style="stroke: #383838; stroke-width: 1.5;"/><text fill="#000000" font-family="sans-serif" font-size="11" lengthAdjust="spacingAndGlyphs" textLength="20" x="180.5" y="84.2104">yes</text><text fill="#000000" font-family="sans-serif" font-size="11" lengthAdjust="spacingAndGlyphs" textLength="63" x="145" y="65.8081">condition B</text><rect fill="#F8F8F8" filter="url(#fg0sfpzjjz7vq)" height="33.9688" rx="12.5" ry="12.5" style="stroke: #383838; stroke-width: 1.5;" width="58" x="147.5" y="105.7104"/><text fill="#000000" font-family="sans-serif" font-size="12" lengthAdjust="spacingAndGlyphs" textLength="38" x="157.5" y="126.8491">Text 2</text><ellipse cx="176.5" cy="185.6792" fill="#FFFFFF" filter="url(#fg0sfpzjjz7vq)" rx="11" ry="11" style="stroke: #000000; stroke-width: 1.0;"/><ellipse cx="176.5" cy="185.6792" fill="#000000" rx="6" ry="6" style="stroke: #7F7F7F; stroke-width: 1.0;"/><polygon fill="#F8F8F8" filter="url(#fg0sfpzjjz7vq)" points="252,50,315,50,327,62,315,74,252,74,240,62,252,50" style="stroke: #383838; stroke-width: 1.5;"/><text fill="#000000" font-family="sans-serif" font-size="11" lengthAdjust="spacingAndGlyphs" textLength="20" x="287.5" y="84.2104">yes</text><text fill="#000000" font-family="sans-serif" font-size="11" lengthAdjust="spacingAndGlyphs" textLength="63" x="252" y="65.8081">condition C</text><rect fill="#F8F8F8" filter="url(#fg0sfpzjjz7vq)" height="33.9688" rx="12.5" ry="12.5" style="stroke: #383838; stroke-width: 1.5;" width="58" x="254.5" y="105.7104"/><text fill="#000000" font-family="sans-serif" font-size="12" lengthAdjust="spacingAndGlyphs" textLength="38" x="264.5" y="126.8491">Text 3</text><polygon fill="#F8F8F8" filter="url(#fg0sfpzjjz7vq)" points="359,50,422,50,434,62,422,74,359,74,347,62,359,50" style="stroke: #383838; stroke-width: 1.5;"/><text fill="#000000" font-family="sans-serif" font-size="11" lengthAdjust="spacingAndGlyphs" textLength="20" x="394.5" y="84.2104">yes</text><text fill="#000000" font-family="sans-serif" font-size="11" lengthAdjust="spacingAndGlyphs" textLength="63" x="359" y="65.8081">condition D</text><text fill="#000000" font-family="sans-serif" font-size="11" lengthAdjust="spacingAndGlyphs" textLength="42" x="434" y="59.4058">nothing</text><rect fill="#F8F8F8" filter="url(#fg0sfpzjjz7vq)" height="33.9688" rx="12.5" ry="12.5" style="stroke: #383838; stroke-width: 1.5;" width="58" x="361.5" y="105.7104"/><text fill="#000000" font-family="sans-serif" font-size="12" lengthAdjust="spacingAndGlyphs" textLength="38" x="371.5" y="126.8491">Text 4</text><rect fill="#F8F8F8" filter="url(#fg0sfpzjjz7vq)" height="33.9688" rx="12.5" ry="12.5" style="stroke: #383838; stroke-width: 1.5;" width="76" x="454" y="130.8081"/><text fill="#000000" font-family="sans-serif" font-size="12" lengthAdjust="spacingAndGlyphs" textLength="56" x="464" y="151.9468">Text else</text><ellipse cx="275" cy="247.6792" fill="#FFFFFF" filter="url(#fg0sfpzjjz7vq)" rx="11" ry="11" style="stroke: #000000; stroke-width: 1.0;"/><ellipse cx="275" cy="247.6792" fill="#000000" rx="6" ry="6" style="stroke: #7F7F7F; stroke-width: 1.0;"/><line style="stroke: #383838; stroke-width: 1.5;" x1="176.5" x2="176.5" y1="139.6792" y2="174.6792"/><polygon fill="#383838" points="172.5,164.6792,176.5,174.6792,180.5,164.6792,176.5,168.6792" style="stroke: #383838; stroke-width: 1.0;"/><line style="stroke: #383838; stroke-width: 1.5;" x1="66.5" x2="66.5" y1="74" y2="105.7104"/><polygon fill="#383838" points="62.5,95.7104,66.5,105.7104,70.5,95.7104,66.5,99.7104" style="stroke: #383838; stroke-width: 1.0;"/><line style="stroke: #383838; stroke-width: 1.5;" x1="66.5" x2="66.5" y1="139.6792" y2="216.6792"/><polygon fill="#383838" points="62.5,206.6792,66.5,216.6792,70.5,206.6792,66.5,210.6792" style="stroke: #383838; stroke-width: 1.0;"/><line style="stroke: #383838; stroke-width: 1.5;" x1="176.5" x2="176.5" y1="74" y2="105.7104"/><polygon fill="#383838" points="172.5,95.7104,176.5,105.7104,180.5,95.7104,176.5,99.7104" style="stroke: #383838; stroke-width: 1.0;"/><line style="stroke: #383838; stroke-width: 1.5;" x1="283.5" x2="283.5" y1="74" y2="105.7104"/><polygon fill="#383838" points="279.5,95.7104,283.5,105.7104,287.5,95.7104,283.5,99.7104" style="stroke: #383838; stroke-width: 1.0;"/><line style="stroke: #383838; stroke-width: 1.5;" x1="283.5" x2="283.5" y1="139.6792" y2="216.6792"/><polygon fill="#383838" points="279.5,206.6792,283.5,216.6792,287.5,206.6792,283.5,210.6792" style="stroke: #383838; stroke-width: 1.0;"/><line style="stroke: #383838; stroke-width: 1.5;" x1="390.5" x2="390.5" y1="74" y2="105.7104"/><polygon fill="#383838" points="386.5,95.7104,390.5,105.7104,394.5,95.7104,390.5,99.7104" style="stroke: #383838; stroke-width: 1.0;"/><line style="stroke: #383838; stroke-width: 1.5;" x1="390.5" x2="390.5" y1="139.6792" y2="216.6792"/><polygon fill="#383838" points="386.5,206.6792,390.5,216.6792,394.5,206.6792,390.5,210.6792" style="stroke: #383838; stroke-width: 1.0;"/><line style="stroke: #383838; stroke-width: 1.5;" x1="113" x2="133" y1="62" y2="62"/><polygon fill="#383838" points="123,58,133,62,123,66,127,62" style="stroke: #383838; stroke-width: 1.0;"/><line style="stroke: #383838; stroke-width: 1.5;" x1="220" x2="240" y1="62" y2="62"/><polygon fill="#383838" points="230,58,240,62,230,66,234,62" style="stroke: #383838; stroke-width: 1.0;"/><line style="stroke: #383838; stroke-width: 1.5;" x1="327" x2="347" y1="62" y2="62"/><polygon fill="#383838" points="337,58,347,62,337,66,341,62" style="stroke: #383838; stroke-width: 1.0;"/><line style="stroke: #383838; stroke-width: 1.5;" x1="275" x2="275" y1="30" y2="35"/><line style="stroke: #383838; stroke-width: 1.5;" x1="275" x2="66.5" y1="35" y2="35"/><line style="stroke: #383838; stroke-width: 1.5;" x1="66.5" x2="66.5" y1="35" y2="50"/><polygon fill="#383838" points="62.5,40,66.5,50,70.5,40,66.5,44" style="stroke: #383838; stroke-width: 1.0;"/><line style="stroke: #383838; stroke-width: 1.5;" x1="434" x2="492" y1="62" y2="62"/><line style="stroke: #383838; stroke-width: 1.5;" x1="492" x2="492" y1="62" y2="130.8081"/><polygon fill="#383838" points="488,120.8081,492,130.8081,496,120.8081,492,124.8081" style="stroke: #383838; stroke-width: 1.0;"/><line style="stroke: #383838; stroke-width: 1.5;" x1="492" x2="492" y1="164.7769" y2="216.6792"/><polygon fill="#383838" points="488,206.6792,492,216.6792,496,206.6792,492,210.6792" style="stroke: #383838; stroke-width: 1.0;"/><line style="stroke: #383838; stroke-width: 1.5;" x1="66.5" x2="492" y1="216.6792" y2="216.6792"/><line style="stroke: #383838; stroke-width: 1.5;" x1="275" x2="275" y1="216.6792" y2="236.6792"/><polygon fill="#383838" points="271,226.6792,275,236.6792,279,226.6792,275,230.6792" style="stroke: #383838; stroke-width: 1.0;"/><!--MD5=[4a3cfbdd4e28bd215c72b8f696fcf1bc]
@startuml
skinparam monochrome true
start
if (condition Aa) then (yes)
  :Text 1;
elseif (condition B) then (yes)
  :Text 2;
  stop
elseif (condition C) then (yes)
  :Text 3;
elseif (condition D) then (yes)
  :Text 4;
else (nothing)
  :Text else;
endif
stop
@enduml

PlantUML version 1.2020.01beta16(Unknown compile time)
(GPL source distribution)
Java Runtime: Java(TM) SE Runtime Environment
JVM: Java HotSpot(TM) 64-Bit Server VM
Java Version: 1.7.0_25-b15
Operating System: Linux
Default Encoding: UTF-8
Language: en
Country: US
--></g></svg>