<?xml version="1.0" encoding="UTF-8" standalone="no"?><svg xmlns="http://www.w3.org/2000/svg" xmlns:xlink="http://www.w3.org/1999/xlink" contentScriptType="application/ecmascript" contentStyleType="text/css" height="448px" preserveAspectRatio="none" style="width:425px;height:448px;" version="1.1" viewBox="0 0 425 448" width="425px" zoomAndPan="magnify"><defs/><g><text fill="#505050" font-family="sans-serif" font-size="16" lengthAdjust="spacingAndGlyphs" textLength="194" x="111" y="39.4922">example project x example</text><rect fill="#FFFFFF" height="151.4844" style="stroke: #000000; stroke-width: 1.0;" width="10" x="98.5" y="161.8594"/><rect fill="#FFFFFF" height="90.8906" style="stroke: #000000; stroke-width: 1.0;" width="10" x="237.5" y="192.1563"/><rect fill="#FFFFFF" height="30.2969" style="stroke: #000000; stroke-width: 1.0;" width="10" x="354.5" y="222.4531"/><line style="stroke: #000000; stroke-width: 1.0; stroke-dasharray: 5.0,5.0;" x1="26" x2="26" y1="129.5625" y2="331.3438"/><line style="stroke: #000000; stroke-width: 1.0; stroke-dasharray: 5.0,5.0;" x1="103" x2="103" y1="129.5625" y2="331.3438"/><line style="stroke: #000000; stroke-width: 1.0; stroke-dasharray: 5.0,5.0;" x1="242" x2="242" y1="129.5625" y2="331.3438"/><line style="stroke: #000000; stroke-width: 1.0; stroke-dasharray: 5.0,5.0;" x1="359" x2="359" y1="129.5625" y2="331.3438"/><text fill="#505050" font-family="sans-serif" font-size="14" lengthAdjust="spacingAndGlyphs" textLength="30" x="8" y="126.2607">User</text><ellipse cx="26" cy="60.2656" fill="#EEEEEE" rx="8" ry="8" style="stroke: #505050; stroke-width: 2.0;"/><path d="M26,68.2656 L26,95.2656 M13,76.2656 L39,76.2656 M26,95.2656 L13,110.2656 M26,95.2656 L39,110.2656 " fill="none" style="stroke: #505050; stroke-width: 2.0;"/><text fill="#505050" font-family="sans-serif" font-size="14" lengthAdjust="spacingAndGlyphs" textLength="30" x="8" y="343.3389">User</text><ellipse cx="26" cy="356.6406" fill="#EEEEEE" rx="8" ry="8" style="stroke: #505050; stroke-width: 2.0;"/><path d="M26,364.6406 L26,391.6406 M13,372.6406 L39,372.6406 M26,391.6406 L13,406.6406 M26,391.6406 L39,406.6406 " fill="none" style="stroke: #505050; stroke-width: 2.0;"/><rect fill="#FFFFFF" height="30.2969" rx="2" ry="2" style="stroke: #333333; stroke-width: 1.5;" width="79" x="64" y="98.2656"/><text fill="#505050" font-family="sans-serif" font-size="14" lengthAdjust="spacingAndGlyphs" textLength="65" x="71" y="118.2607">First Class</text><rect fill="#FFFFFF" height="30.2969" rx="2" ry="2" style="stroke: #333333; stroke-width: 1.5;" width="79" x="64" y="330.3438"/><text fill="#505050" font-family="sans-serif" font-size="14" lengthAdjust="spacingAndGlyphs" textLength="65" x="71" y="350.3389">First Class</text><rect fill="#FFFFFF" height="30.2969" rx="2" ry="2" style="stroke: #333333; stroke-width: 1.5;" width="97" x="194" y="98.2656"/><text fill="#505050" font-family="sans-serif" font-size="14" lengthAdjust="spacingAndGlyphs" textLength="83" x="201" y="118.2607">Second Class</text><rect fill="#FFFFFF" height="30.2969" rx="2" ry="2" style="stroke: #333333; stroke-width: 1.5;" width="97" x="194" y="330.3438"/><text fill="#505050" font-family="sans-serif" font-size="14" lengthAdjust="spacingAndGlyphs" textLength="83" x="201" y="350.3389">Second Class</text><rect fill="#FFFFFF" height="30.2969" rx="2" ry="2" style="stroke: #333333; stroke-width: 1.5;" width="77" x="321" y="98.2656"/><text fill="#505050" font-family="sans-serif" font-size="14" lengthAdjust="spacingAndGlyphs" textLength="63" x="328" y="118.2607">Last Class</text><rect fill="#FFFFFF" height="30.2969" rx="2" ry="2" style="stroke: #333333; stroke-width: 1.5;" width="77" x="321" y="330.3438"/><text fill="#505050" font-family="sans-serif" font-size="14" lengthAdjust="spacingAndGlyphs" textLength="63" x="328" y="350.3389">Last Class</text><rect fill="#FFFFFF" height="151.4844" style="stroke: #000000; stroke-width: 1.0;" width="10" x="98.5" y="161.8594"/><rect fill="#FFFFFF" height="90.8906" style="stroke: #000000; stroke-width: 1.0;" width="10" x="237.5" y="192.1563"/><rect fill="#FFFFFF" height="30.2969" style="stroke: #000000; stroke-width: 1.0;" width="10" x="354.5" y="222.4531"/><polygon fill="#000000" points="86.5,157.8594,96.5,161.8594,86.5,165.8594,90.5,161.8594" style="stroke: #000000; stroke-width: 1.0;"/><line style="stroke: #000000; stroke-width: 2.0;" x1="26" x2="92.5" y1="161.8594" y2="161.8594"/><text fill="#505050" font-family="sans-serif" font-size="14" lengthAdjust="spacingAndGlyphs" textLength="51" x="33" y="156.5576">DoWork</text><polygon fill="#000000" points="225.5,188.1563,235.5,192.1563,225.5,196.1563,229.5,192.1563" style="stroke: #000000; stroke-width: 1.0;"/><line style="stroke: #000000; stroke-width: 2.0;" x1="108.5" x2="231.5" y1="192.1563" y2="192.1563"/><text fill="#505050" font-family="sans-serif" font-size="14" lengthAdjust="spacingAndGlyphs" textLength="97" x="115.5" y="186.8545">Create Request</text><polygon fill="#000000" points="342.5,218.4531,352.5,222.4531,342.5,226.4531,346.5,222.4531" style="stroke: #000000; stroke-width: 1.0;"/><line style="stroke: #000000; stroke-width: 2.0;" x1="247.5" x2="348.5" y1="222.4531" y2="222.4531"/><text fill="#505050" font-family="sans-serif" font-size="14" lengthAdjust="spacingAndGlyphs" textLength="51" x="254.5" y="217.1514">DoWork</text><polygon fill="#000000" points="258.5,248.75,248.5,252.75,258.5,256.75,254.5,252.75" style="stroke: #000000; stroke-width: 1.0;"/><line style="stroke: #000000; stroke-width: 2.0; stroke-dasharray: 2.0,2.0;" x1="252.5" x2="358.5" y1="252.75" y2="252.75"/><text fill="#505050" font-family="sans-serif" font-size="14" lengthAdjust="spacingAndGlyphs" textLength="67" x="264.5" y="247.4482">WorkDone</text><line style="stroke: #000000; stroke-width: 2.0;" x1="350.5" x2="368.5" y1="243.75" y2="261.75"/><line style="stroke: #000000; stroke-width: 2.0;" x1="350.5" x2="368.5" y1="261.75" y2="243.75"/><polygon fill="#000000" points="119.5,279.0469,109.5,283.0469,119.5,287.0469,115.5,283.0469" style="stroke: #000000; stroke-width: 1.0;"/><line style="stroke: #000000; stroke-width: 2.0; stroke-dasharray: 2.0,2.0;" x1="113.5" x2="241.5" y1="283.0469" y2="283.0469"/><text fill="#505050" font-family="sans-serif" font-size="14" lengthAdjust="spacingAndGlyphs" textLength="105" x="125.5" y="277.7451">Request Created</text><polygon fill="#000000" points="37,309.3438,27,313.3438,37,317.3438,33,313.3438" style="stroke: #000000; stroke-width: 1.0;"/><line style="stroke: #000000; stroke-width: 2.0; stroke-dasharray: 2.0,2.0;" x1="31" x2="102.5" y1="313.3438" y2="313.3438"/><text fill="#505050" font-family="sans-serif" font-size="14" lengthAdjust="spacingAndGlyphs" textLength="34" x="43" y="308.042">Done</text><text fill="#D7A72D" font-family="sans-serif" font-size="10" lengthAdjust="spacingAndGlyphs" textLength="50" x="363" y="12.2822">Confidential</text><text fill="#999999" font-family="sans-serif" font-size="10" lengthAdjust="spacingAndGlyphs" textLength="39" x="374" y="422.9229">mawatari</text><text fill="#999999" font-family="sans-serif" font-size="10" lengthAdjust="spacingAndGlyphs" textLength="161" x="252" y="434.5635">Last modified: 2020/03/27 11:21:04 JST</text><!--MD5=[911cf3db01cbe59e500fcc495ced6939]
@startuml
skinparam {
  RoundCorner 4
  Shadowing false
}
skinparam Default {
  FontColor #505050
  FontSize 14
}
skinparam Header {
  FontColor #D7A72D
  FontSize 10
}
skinparam Footer {
  FontColor #999999
  FontSize 10
}
skinparam Title {
  FontSize 16
}

skinparam Actor {
  BackgroundColor #eeeeee
  BorderColor #505050
}
skinparam Arrow {
  Color #000000
}
skinparam Box {
  Padding 10
}
skinparam Participant {
  BackgroundColor #FFFFFF
  BorderColor #333333
  Padding 10
}
skinparam Note {
  BackgroundColor #7f8c8d
  BorderColor #7f8c8d
  FontStyle bold
  FontColor #ffffff
}

skinparam Activity {
  ArrowColor #000000
  BackgroundColor #eeeeee
  BorderColor #999999
  StartColor #000000
  EndColor #000000
  BarColor #000000

  DiamondBackgroundColor #eeeeee
  DiamondBorderColor #999999
}
skinparam Sequence {
  ArrowThickness 2
  BoxBackgroundColor #DDDDDD
  BoxBorderColor #999999
  LifeLineBorderColor #000000
  ReferenceBorderColor #000000
}
right header Confidential
right footer mawatari\nLast modified: 2020/03/27 11:21:04 JST
title example project x example

actor User
participant "First Class" as A
participant "Second Class" as B
participant "Last Class" as C

User -> A: DoWork
activate A

A -> B: Create Request
activate B

B -> C: DoWork
activate C
C - -> B: WorkDone
destroy C

B - -> A: Request Created
deactivate B

A - -> User: Done
deactivate A

@enduml

PlantUML version 1.2020.05(Fri Mar 20 06:17:32 JST 2020)
(GPL source distribution)
Java Runtime: OpenJDK Runtime Environment
JVM: OpenJDK 64-Bit Server VM
Java Version: 11.0.5+10-alpine-r0
Operating System: Linux
Default Encoding: UTF-8
Language: en
Country: US
--></g></svg>